<svg width="498" height="149" viewBox="0 0 498 149" fill="none" xmlns="http://www.w3.org/2000/svg">
<rect width="470" height="113" rx="9.99458" fill="#FAF6FF"/>
<path d="M22.2921 41V26.4545H31.7523V28.6634H24.927V32.6122H31.2623V34.821H24.927V38.7912H31.8091V41H22.2921ZM37.4661 41.2202C36.7748 41.2202 36.1522 41.0971 35.5982 40.8509C35.0489 40.5999 34.6133 40.2306 34.2914 39.7429C33.9741 39.2552 33.8155 38.6539 33.8155 37.9389C33.8155 37.3234 33.9292 36.8144 34.1564 36.4119C34.3837 36.0095 34.6938 35.6875 35.0868 35.446C35.4798 35.2045 35.9225 35.0223 36.415 34.8991C36.9121 34.7713 37.4258 34.679 37.9561 34.6222C38.5953 34.5559 39.1138 34.4967 39.5115 34.4446C39.9093 34.3878 40.1981 34.3026 40.378 34.1889C40.5627 34.0705 40.655 33.8883 40.655 33.642V33.5994C40.655 33.0644 40.4964 32.6501 40.1792 32.3565C39.8619 32.063 39.405 31.9162 38.8084 31.9162C38.1787 31.9162 37.6792 32.0535 37.3098 32.3281C36.9453 32.6027 36.699 32.9271 36.5712 33.3011L34.1706 32.9602C34.36 32.2973 34.6725 31.7434 35.1081 31.2983C35.5437 30.8485 36.0764 30.5123 36.7061 30.2898C37.3359 30.0625 38.0319 29.9489 38.7942 29.9489C39.3198 29.9489 39.843 30.0104 40.3638 30.1335C40.8846 30.2566 41.3605 30.4602 41.7914 30.7443C42.2222 31.0237 42.5679 31.4048 42.8283 31.8878C43.0935 32.3707 43.226 32.9744 43.226 33.6989V41H40.7544V39.5014H40.6692C40.513 39.8045 40.2928 40.0885 40.0087 40.3537C39.7293 40.6141 39.3766 40.8248 38.9505 40.9858C38.5291 41.142 38.0343 41.2202 37.4661 41.2202ZM38.1337 39.331C38.6498 39.331 39.0972 39.2292 39.476 39.0256C39.8548 38.8172 40.146 38.5426 40.3496 38.2017C40.5579 37.8608 40.6621 37.4891 40.6621 37.0866V35.8011C40.5816 35.8674 40.4443 35.929 40.2502 35.9858C40.0608 36.0426 39.8477 36.0923 39.611 36.1349C39.3742 36.1776 39.1399 36.2154 38.9078 36.2486C38.6758 36.2817 38.4746 36.3101 38.3042 36.3338C37.9206 36.3859 37.5774 36.4711 37.2743 36.5895C36.9713 36.7079 36.7322 36.8736 36.557 37.0866C36.3818 37.295 36.2942 37.5649 36.2942 37.8963C36.2942 38.3698 36.467 38.7273 36.8127 38.9688C37.1583 39.2102 37.5987 39.331 38.1337 39.331ZM54.4334 32.9744L52.0897 33.2301C52.0234 32.9934 51.9074 32.7708 51.7417 32.5625C51.5807 32.3542 51.3629 32.1861 51.0882 32.0582C50.8136 31.9304 50.4775 31.8665 50.0797 31.8665C49.5447 31.8665 49.0949 31.9825 48.7303 32.2145C48.3704 32.4465 48.1929 32.7472 48.1976 33.1165C48.1929 33.4337 48.3089 33.6918 48.5456 33.8906C48.7871 34.0895 49.1848 34.2528 49.7388 34.3807L51.5996 34.7784C52.6318 35.0009 53.3989 35.3537 53.9007 35.8366C54.4074 36.3196 54.6631 36.9517 54.6678 37.733C54.6631 38.4195 54.4618 39.0256 54.0641 39.5511C53.6711 40.072 53.1242 40.4792 52.4235 40.7727C51.7227 41.0663 50.9178 41.2131 50.0087 41.2131C48.6735 41.2131 47.5987 40.9337 46.7843 40.375C45.9699 39.8116 45.4846 39.0279 45.3283 38.0241L47.8354 37.7827C47.949 38.2751 48.1905 38.6468 48.5598 38.8977C48.9292 39.1487 49.4097 39.2741 50.0016 39.2741C50.6124 39.2741 51.1025 39.1487 51.4718 38.8977C51.8458 38.6468 52.0328 38.3366 52.0328 37.9673C52.0328 37.6548 51.9121 37.3968 51.6706 37.1932C51.4339 36.9896 51.0646 36.8333 50.5627 36.7244L48.7019 36.3338C47.6555 36.116 46.8813 35.7491 46.3794 35.233C45.8775 34.7121 45.629 34.054 45.6337 33.2585C45.629 32.5862 45.8113 32.0038 46.1806 31.5114C46.5546 31.0142 47.0731 30.6307 47.736 30.3608C48.4036 30.0862 49.173 29.9489 50.0442 29.9489C51.3226 29.9489 52.3288 30.2211 53.0627 30.7656C53.8013 31.3101 54.2582 32.0464 54.4334 32.9744ZM58.3858 45.0909C58.0355 45.0909 57.7111 45.0625 57.4128 45.0057C57.1193 44.9536 56.8849 44.892 56.7097 44.821L57.3063 42.8182C57.6803 42.9271 58.0141 42.9792 58.3077 42.9744C58.6013 42.9697 58.8593 42.8774 59.0819 42.6974C59.3091 42.5223 59.5009 42.2287 59.6571 41.8168L59.8773 41.2273L55.9213 30.0909H58.6486L61.1628 38.3295H61.2765L63.7978 30.0909H66.5321L62.1642 42.321C61.9606 42.8987 61.6908 43.3935 61.3546 43.8054C61.0184 44.2221 60.6065 44.5393 60.1188 44.7571C59.6358 44.9796 59.0582 45.0909 58.3858 45.0909ZM145.905 41V26.4545H155.366V28.6634H148.54V32.6122H154.876V34.821H148.54V38.7912H155.422V41H145.905ZM163.466 30.0909V32.0795H157.017V30.0909H163.466ZM158.629 41V29.0611C158.629 28.3272 158.781 27.7164 159.084 27.2287C159.391 26.741 159.803 26.3764 160.319 26.1349C160.836 25.8935 161.408 25.7727 162.038 25.7727C162.483 25.7727 162.879 25.8082 163.224 25.8793C163.57 25.9503 163.826 26.0142 163.991 26.071L163.48 28.0597C163.371 28.0265 163.234 27.9934 163.068 27.9602C162.902 27.9223 162.718 27.9034 162.514 27.9034C162.036 27.9034 161.697 28.0194 161.498 28.2514C161.304 28.4787 161.207 28.8054 161.207 29.2315V41H158.629ZM171.005 30.0909V32.0795H164.556V30.0909H171.005ZM166.168 41V29.0611C166.168 28.3272 166.32 27.7164 166.623 27.2287C166.93 26.741 167.342 26.3764 167.858 26.1349C168.375 25.8935 168.948 25.7727 169.577 25.7727C170.022 25.7727 170.418 25.8082 170.763 25.8793C171.109 25.9503 171.365 26.0142 171.53 26.071L171.019 28.0597C170.91 28.0265 170.773 27.9934 170.607 27.9602C170.441 27.9223 170.257 27.9034 170.053 27.9034C169.575 27.9034 169.236 28.0194 169.037 28.2514C168.843 28.4787 168.746 28.8054 168.746 29.2315V41H166.168ZM177.367 41.2131C176.301 41.2131 175.378 40.9787 174.597 40.5099C173.816 40.0412 173.209 39.3854 172.779 38.5426C172.352 37.6998 172.139 36.715 172.139 35.5881C172.139 34.4612 172.352 33.474 172.779 32.6264C173.209 31.7789 173.816 31.1207 174.597 30.652C175.378 30.1832 176.301 29.9489 177.367 29.9489C178.432 29.9489 179.355 30.1832 180.137 30.652C180.918 31.1207 181.521 31.7789 181.948 32.6264C182.378 33.474 182.594 34.4612 182.594 35.5881C182.594 36.715 182.378 37.6998 181.948 38.5426C181.521 39.3854 180.918 40.0412 180.137 40.5099C179.355 40.9787 178.432 41.2131 177.367 41.2131ZM177.381 39.1534C177.959 39.1534 178.441 38.9948 178.83 38.6776C179.218 38.3556 179.507 37.9247 179.696 37.3849C179.89 36.8452 179.987 36.2438 179.987 35.581C179.987 34.9134 179.89 34.3097 179.696 33.7699C179.507 33.2254 179.218 32.7921 178.83 32.4702C178.441 32.1482 177.959 31.9872 177.381 31.9872C176.789 31.9872 176.297 32.1482 175.904 32.4702C175.515 32.7921 175.224 33.2254 175.03 33.7699C174.841 34.3097 174.746 34.9134 174.746 35.581C174.746 36.2438 174.841 36.8452 175.03 37.3849C175.224 37.9247 175.515 38.3556 175.904 38.6776C176.297 38.9948 176.789 39.1534 177.381 39.1534ZM184.776 41V30.0909H187.269V31.9091H187.383C187.581 31.2794 187.922 30.794 188.405 30.4531C188.893 30.1075 189.449 29.9347 190.074 29.9347C190.216 29.9347 190.375 29.9418 190.55 29.956C190.73 29.9654 190.879 29.982 190.998 30.0057V32.3707C190.889 32.3329 190.716 32.2997 190.479 32.2713C190.247 32.2382 190.022 32.2216 189.805 32.2216C189.336 32.2216 188.914 32.3234 188.54 32.527C188.171 32.7259 187.88 33.0028 187.667 33.358C187.454 33.7131 187.347 34.1226 187.347 34.5866V41H184.776ZM198.739 30.0909V32.0795H192.468V30.0909H198.739ZM194.016 27.4773H196.587V37.7188C196.587 38.0644 196.639 38.3295 196.743 38.5142C196.852 38.6941 196.994 38.8172 197.17 38.8835C197.345 38.9498 197.539 38.983 197.752 38.983C197.913 38.983 198.06 38.9711 198.192 38.9474C198.33 38.9238 198.434 38.9025 198.505 38.8835L198.938 40.8935C198.801 40.9408 198.604 40.9929 198.349 41.0497C198.098 41.1065 197.79 41.1397 197.425 41.1491C196.781 41.1681 196.201 41.071 195.685 40.858C195.169 40.6402 194.76 40.304 194.456 39.8494C194.158 39.3949 194.011 38.8267 194.016 38.1449V27.4773ZM203.695 26.4545V41H201.124V26.4545H203.695ZM211.168 41.2131C210.074 41.2131 209.13 40.9858 208.334 40.5312C207.544 40.072 206.935 39.4233 206.509 38.5852C206.083 37.7424 205.87 36.7505 205.87 35.6094C205.87 34.4872 206.083 33.5024 206.509 32.6548C206.94 31.8026 207.541 31.1397 208.313 30.6662C209.085 30.188 209.992 29.9489 211.033 29.9489C211.706 29.9489 212.34 30.0578 212.937 30.2756C213.538 30.4886 214.068 30.8201 214.528 31.2699C214.992 31.7197 215.356 32.2926 215.621 32.9886C215.886 33.6799 216.019 34.5038 216.019 35.4602V36.2486H207.077V34.5156H213.555C213.55 34.0232 213.443 33.5852 213.235 33.2017C213.027 32.8134 212.735 32.508 212.361 32.2855C211.992 32.063 211.561 31.9517 211.069 31.9517C210.543 31.9517 210.081 32.0795 209.684 32.3352C209.286 32.5862 208.976 32.9176 208.753 33.3295C208.536 33.7367 208.424 34.1842 208.42 34.6719V36.1847C208.42 36.8191 208.536 37.3636 208.768 37.8182C209 38.268 209.324 38.6136 209.741 38.8551C210.157 39.0919 210.645 39.2102 211.204 39.2102C211.578 39.2102 211.916 39.1581 212.219 39.054C212.522 38.9451 212.785 38.7865 213.008 38.5781C213.23 38.3698 213.398 38.1117 213.512 37.804L215.912 38.0739C215.761 38.7083 215.472 39.2623 215.046 39.7358C214.625 40.2045 214.085 40.5691 213.427 40.8295C212.769 41.0852 212.016 41.2131 211.168 41.2131ZM226.816 32.9744L224.472 33.2301C224.406 32.9934 224.29 32.7708 224.124 32.5625C223.963 32.3542 223.746 32.1861 223.471 32.0582C223.196 31.9304 222.86 31.8665 222.463 31.8665C221.927 31.8665 221.478 31.9825 221.113 32.2145C220.753 32.4465 220.576 32.7472 220.58 33.1165C220.576 33.4337 220.692 33.6918 220.928 33.8906C221.17 34.0895 221.568 34.2528 222.122 34.3807L223.982 34.7784C225.015 35.0009 225.782 35.3537 226.284 35.8366C226.79 36.3196 227.046 36.9517 227.051 37.733C227.046 38.4195 226.845 39.0256 226.447 39.5511C226.054 40.072 225.507 40.4792 224.806 40.7727C224.106 41.0663 223.301 41.2131 222.392 41.2131C221.056 41.2131 219.981 40.9337 219.167 40.375C218.353 39.8116 217.867 39.0279 217.711 38.0241L220.218 37.7827C220.332 38.2751 220.573 38.6468 220.943 38.8977C221.312 39.1487 221.793 39.2741 222.384 39.2741C222.995 39.2741 223.485 39.1487 223.855 38.8977C224.229 38.6468 224.416 38.3366 224.416 37.9673C224.416 37.6548 224.295 37.3968 224.053 37.1932C223.817 36.9896 223.447 36.8333 222.945 36.7244L221.085 36.3338C220.038 36.116 219.264 35.7491 218.762 35.233C218.26 34.7121 218.012 34.054 218.017 33.2585C218.012 32.5862 218.194 32.0038 218.563 31.5114C218.937 31.0142 219.456 30.6307 220.119 30.3608C220.786 30.0862 221.556 29.9489 222.427 29.9489C223.705 29.9489 224.712 30.2211 225.445 30.7656C226.184 31.3101 226.641 32.0464 226.816 32.9744ZM237.793 32.9744L235.449 33.2301C235.383 32.9934 235.267 32.7708 235.101 32.5625C234.94 32.3542 234.722 32.1861 234.448 32.0582C234.173 31.9304 233.837 31.8665 233.439 31.8665C232.904 31.8665 232.454 31.9825 232.09 32.2145C231.73 32.4465 231.552 32.7472 231.557 33.1165C231.552 33.4337 231.668 33.6918 231.905 33.8906C232.146 34.0895 232.544 34.2528 233.098 34.3807L234.959 34.7784C235.991 35.0009 236.758 35.3537 237.26 35.8366C237.767 36.3196 238.022 36.9517 238.027 37.733C238.022 38.4195 237.821 39.0256 237.423 39.5511C237.03 40.072 236.484 40.4792 235.783 40.7727C235.082 41.0663 234.277 41.2131 233.368 41.2131C232.033 41.2131 230.958 40.9337 230.144 40.375C229.329 39.8116 228.844 39.0279 228.688 38.0241L231.195 37.7827C231.308 38.2751 231.55 38.6468 231.919 38.8977C232.289 39.1487 232.769 39.2741 233.361 39.2741C233.972 39.2741 234.462 39.1487 234.831 38.8977C235.205 38.6468 235.392 38.3366 235.392 37.9673C235.392 37.6548 235.271 37.3968 235.03 37.1932C234.793 36.9896 234.424 36.8333 233.922 36.7244L232.061 36.3338C231.015 36.116 230.241 35.7491 229.739 35.233C229.237 34.7121 228.988 34.054 228.993 33.2585C228.988 32.5862 229.171 32.0038 229.54 31.5114C229.914 31.0142 230.432 30.6307 231.095 30.3608C231.763 30.0862 232.532 29.9489 233.404 29.9489C234.682 29.9489 235.688 30.2211 236.422 30.7656C237.161 31.3101 237.618 32.0464 237.793 32.9744Z" fill="#7A2DB1"/>
<path d="M78.7196 30.0909V32.0795H72.4483V30.0909H78.7196ZM73.9966 27.4773H76.5676V37.7188C76.5676 38.0644 76.6197 38.3295 76.7239 38.5142C76.8328 38.6941 76.9748 38.8172 77.15 38.8835C77.3252 38.9498 77.5194 38.983 77.7324 38.983C77.8934 38.983 78.0402 38.9711 78.1728 38.9474C78.3101 38.9238 78.4142 38.9025 78.4853 38.8835L78.9185 40.8935C78.7812 40.9408 78.5847 40.9929 78.329 41.0497C78.0781 41.1065 77.7703 41.1397 77.4057 41.1491C76.7618 41.1681 76.1818 41.071 75.6657 40.858C75.1496 40.6402 74.74 40.304 74.437 39.8494C74.1387 39.3949 73.9919 38.8267 73.9966 38.1449V27.4773ZM85.5112 41.2131C84.4458 41.2131 83.5225 40.9787 82.7413 40.5099C81.96 40.0412 81.354 39.3854 80.9231 38.5426C80.497 37.6998 80.2839 36.715 80.2839 35.5881C80.2839 34.4612 80.497 33.474 80.9231 32.6264C81.354 31.7789 81.96 31.1207 82.7413 30.652C83.5225 30.1832 84.4458 29.9489 85.5112 29.9489C86.5765 29.9489 87.4998 30.1832 88.2811 30.652C89.0623 31.1207 89.666 31.7789 90.0922 32.6264C90.523 33.474 90.7385 34.4612 90.7385 35.5881C90.7385 36.715 90.523 37.6998 90.0922 38.5426C89.666 39.3854 89.0623 40.0412 88.2811 40.5099C87.4998 40.9787 86.5765 41.2131 85.5112 41.2131ZM85.5254 39.1534C86.103 39.1534 86.586 38.9948 86.9743 38.6776C87.3625 38.3556 87.6513 37.9247 87.8407 37.3849C88.0349 36.8452 88.1319 36.2438 88.1319 35.581C88.1319 34.9134 88.0349 34.3097 87.8407 33.7699C87.6513 33.2254 87.3625 32.7921 86.9743 32.4702C86.586 32.1482 86.103 31.9872 85.5254 31.9872C84.9335 31.9872 84.4411 32.1482 84.0481 32.4702C83.6599 32.7921 83.3687 33.2254 83.1745 33.7699C82.9851 34.3097 82.8904 34.9134 82.8904 35.581C82.8904 36.2438 82.9851 36.8452 83.1745 37.3849C83.3687 37.9247 83.6599 38.3556 84.0481 38.6776C84.4411 38.9948 84.9335 39.1534 85.5254 39.1534ZM107.164 26.4545H109.799V35.9574C109.799 36.9991 109.553 37.9152 109.061 38.706C108.573 39.4967 107.886 40.1146 107.001 40.5597C106.115 41 105.081 41.2202 103.897 41.2202C102.709 41.2202 101.672 41 100.786 40.5597C99.901 40.1146 99.2144 39.4967 98.7267 38.706C98.2391 37.9152 97.9952 36.9991 97.9952 35.9574V26.4545H100.63V35.7372C100.63 36.3433 100.763 36.883 101.028 37.3565C101.298 37.83 101.677 38.2017 102.164 38.4716C102.652 38.7367 103.23 38.8693 103.897 38.8693C104.565 38.8693 105.142 38.7367 105.63 38.4716C106.123 38.2017 106.501 37.83 106.767 37.3565C107.032 36.883 107.164 36.3433 107.164 35.7372V26.4545ZM121.172 32.9744L118.828 33.2301C118.762 32.9934 118.646 32.7708 118.48 32.5625C118.319 32.3542 118.101 32.1861 117.827 32.0582C117.552 31.9304 117.216 31.8665 116.818 31.8665C116.283 31.8665 115.833 31.9825 115.469 32.2145C115.109 32.4465 114.931 32.7472 114.936 33.1165C114.931 33.4337 115.047 33.6918 115.284 33.8906C115.525 34.0895 115.923 34.2528 116.477 34.3807L118.338 34.7784C119.37 35.0009 120.137 35.3537 120.639 35.8366C121.146 36.3196 121.401 36.9517 121.406 37.733C121.401 38.4195 121.2 39.0256 120.802 39.5511C120.409 40.072 119.863 40.4792 119.162 40.7727C118.461 41.0663 117.656 41.2131 116.747 41.2131C115.412 41.2131 114.337 40.9337 113.523 40.375C112.708 39.8116 112.223 39.0279 112.067 38.0241L114.574 37.7827C114.687 38.2751 114.929 38.6468 115.298 38.8977C115.667 39.1487 116.148 39.2741 116.74 39.2741C117.351 39.2741 117.841 39.1487 118.21 38.8977C118.584 38.6468 118.771 38.3366 118.771 37.9673C118.771 37.6548 118.65 37.3968 118.409 37.1932C118.172 36.9896 117.803 36.8333 117.301 36.7244L115.44 36.3338C114.394 36.116 113.62 35.7491 113.118 35.233C112.616 34.7121 112.367 34.054 112.372 33.2585C112.367 32.5862 112.55 32.0038 112.919 31.5114C113.293 31.0142 113.811 30.6307 114.474 30.3608C115.142 30.0862 115.911 29.9489 116.782 29.9489C118.061 29.9489 119.067 30.2211 119.801 30.7656C120.54 31.3101 120.997 32.0464 121.172 32.9744ZM128.356 41.2131C127.262 41.2131 126.317 40.9858 125.522 40.5312C124.731 40.072 124.123 39.4233 123.697 38.5852C123.27 37.7424 123.057 36.7505 123.057 35.6094C123.057 34.4872 123.27 33.5024 123.697 32.6548C124.127 31.8026 124.729 31.1397 125.501 30.6662C126.272 30.188 127.179 29.9489 128.221 29.9489C128.893 29.9489 129.528 30.0578 130.124 30.2756C130.725 30.4886 131.256 30.8201 131.715 31.2699C132.179 31.7197 132.544 32.2926 132.809 32.9886C133.074 33.6799 133.206 34.5038 133.206 35.4602V36.2486H124.265V34.5156H130.742C130.737 34.0232 130.631 33.5852 130.422 33.2017C130.214 32.8134 129.923 32.508 129.549 32.2855C129.18 32.063 128.749 31.9517 128.256 31.9517C127.731 31.9517 127.269 32.0795 126.871 32.3352C126.474 32.5862 126.163 32.9176 125.941 33.3295C125.723 33.7367 125.612 34.1842 125.607 34.6719V36.1847C125.607 36.8191 125.723 37.3636 125.955 37.8182C126.187 38.268 126.511 38.6136 126.928 38.8551C127.345 39.0919 127.832 39.2102 128.391 39.2102C128.765 39.2102 129.104 39.1581 129.407 39.054C129.71 38.9451 129.973 38.7865 130.195 38.5781C130.418 38.3698 130.586 38.1117 130.699 37.804L133.1 38.0739C132.948 38.7083 132.66 39.2623 132.233 39.7358C131.812 40.2045 131.272 40.5691 130.614 40.8295C129.956 41.0852 129.203 41.2131 128.356 41.2131ZM138.4 39.0114L138.308 39.7926C138.241 40.3892 138.123 40.9953 137.953 41.6108C137.787 42.2311 137.612 42.8016 137.427 43.3224C137.242 43.8433 137.093 44.2528 136.98 44.5511H135.247C135.313 44.2623 135.403 43.8693 135.517 43.3722C135.635 42.875 135.749 42.3163 135.857 41.696C135.966 41.0758 136.04 40.446 136.078 39.8068L136.127 39.0114H138.4ZM250.556 30.0909V32.0795H244.284V30.0909H250.556ZM245.833 27.4773H248.404V37.7188C248.404 38.0644 248.456 38.3295 248.56 38.5142C248.669 38.6941 248.811 38.8172 248.986 38.8835C249.161 38.9498 249.355 38.983 249.568 38.983C249.729 38.983 249.876 38.9711 250.009 38.9474C250.146 38.9238 250.25 38.9025 250.321 38.8835L250.754 40.8935C250.617 40.9408 250.421 40.9929 250.165 41.0497C249.914 41.1065 249.606 41.1397 249.242 41.1491C248.598 41.1681 248.018 41.071 247.502 40.858C246.985 40.6402 246.576 40.304 246.273 39.8494C245.975 39.3949 245.828 38.8267 245.833 38.1449V27.4773ZM257.347 41.2131C256.282 41.2131 255.358 40.9787 254.577 40.5099C253.796 40.0412 253.19 39.3854 252.759 38.5426C252.333 37.6998 252.12 36.715 252.12 35.5881C252.12 34.4612 252.333 33.474 252.759 32.6264C253.19 31.7789 253.796 31.1207 254.577 30.652C255.358 30.1832 256.282 29.9489 257.347 29.9489C258.412 29.9489 259.336 30.1832 260.117 30.652C260.898 31.1207 261.502 31.7789 261.928 32.6264C262.359 33.474 262.574 34.4612 262.574 35.5881C262.574 36.715 262.359 37.6998 261.928 38.5426C261.502 39.3854 260.898 40.0412 260.117 40.5099C259.336 40.9787 258.412 41.2131 257.347 41.2131ZM257.361 39.1534C257.939 39.1534 258.422 38.9948 258.81 38.6776C259.198 38.3556 259.487 37.9247 259.677 37.3849C259.871 36.8452 259.968 36.2438 259.968 35.581C259.968 34.9134 259.871 34.3097 259.677 33.7699C259.487 33.2254 259.198 32.7921 258.81 32.4702C258.422 32.1482 257.939 31.9872 257.361 31.9872C256.769 31.9872 256.277 32.1482 255.884 32.4702C255.496 32.7921 255.205 33.2254 255.01 33.7699C254.821 34.3097 254.726 34.9134 254.726 35.581C254.726 36.2438 254.821 36.8452 255.01 37.3849C255.205 37.9247 255.496 38.3556 255.884 38.6776C256.277 38.9948 256.769 39.1534 257.361 39.1534ZM281.784 26.4545V41H279.441L272.587 31.0923H272.466V41H269.831V26.4545H272.189L279.036 36.3693H279.164V26.4545H281.784ZM287.681 41.2202C286.99 41.2202 286.367 41.0971 285.813 40.8509C285.264 40.5999 284.828 40.2306 284.506 39.7429C284.189 39.2552 284.03 38.6539 284.03 37.9389C284.03 37.3234 284.144 36.8144 284.371 36.4119C284.599 36.0095 284.909 35.6875 285.302 35.446C285.695 35.2045 286.137 35.0223 286.63 34.8991C287.127 34.7713 287.641 34.679 288.171 34.6222C288.81 34.5559 289.329 34.4967 289.726 34.4446C290.124 34.3878 290.413 34.3026 290.593 34.1889C290.778 34.0705 290.87 33.8883 290.87 33.642V33.5994C290.87 33.0644 290.711 32.6501 290.394 32.3565C290.077 32.063 289.62 31.9162 289.023 31.9162C288.394 31.9162 287.894 32.0535 287.525 32.3281C287.16 32.6027 286.914 32.9271 286.786 33.3011L284.385 32.9602C284.575 32.2973 284.887 31.7434 285.323 31.2983C285.759 30.8485 286.291 30.5123 286.921 30.2898C287.551 30.0625 288.247 29.9489 289.009 29.9489C289.535 29.9489 290.058 30.0104 290.579 30.1335C291.099 30.2566 291.575 30.4602 292.006 30.7443C292.437 31.0237 292.783 31.4048 293.043 31.8878C293.308 32.3707 293.441 32.9744 293.441 33.6989V41H290.969V39.5014H290.884C290.728 39.8045 290.508 40.0885 290.224 40.3537C289.944 40.6141 289.591 40.8248 289.165 40.9858C288.744 41.142 288.249 41.2202 287.681 41.2202ZM288.349 39.331C288.865 39.331 289.312 39.2292 289.691 39.0256C290.07 38.8172 290.361 38.5426 290.564 38.2017C290.773 37.8608 290.877 37.4891 290.877 37.0866V35.8011C290.796 35.8674 290.659 35.929 290.465 35.9858C290.276 36.0426 290.063 36.0923 289.826 36.1349C289.589 36.1776 289.355 36.2154 289.123 36.2486C288.891 36.2817 288.689 36.3101 288.519 36.3338C288.135 36.3859 287.792 36.4711 287.489 36.5895C287.186 36.7079 286.947 36.8736 286.772 37.0866C286.597 37.295 286.509 37.5649 286.509 37.8963C286.509 38.3698 286.682 38.7273 287.028 38.9688C287.373 39.2102 287.814 39.331 288.349 39.331ZM305.38 30.0909L301.495 41H298.654L294.769 30.0909H297.51L300.018 38.1946H300.131L302.645 30.0909H305.38ZM307.159 41V30.0909H309.73V41H307.159ZM308.452 28.5426C308.044 28.5426 307.694 28.4077 307.4 28.1378C307.107 27.8632 306.96 27.5341 306.96 27.1506C306.96 26.7623 307.107 26.4332 307.4 26.1634C307.694 25.8887 308.044 25.7514 308.452 25.7514C308.863 25.7514 309.214 25.8887 309.503 26.1634C309.796 26.4332 309.943 26.7623 309.943 27.1506C309.943 27.5341 309.796 27.8632 309.503 28.1378C309.214 28.4077 308.863 28.5426 308.452 28.5426ZM317.118 45.3182C316.195 45.3182 315.402 45.1927 314.739 44.9418C314.076 44.6955 313.543 44.3641 313.141 43.9474C312.738 43.5308 312.459 43.0691 312.303 42.5625L314.618 42.0014C314.722 42.2145 314.874 42.4252 315.073 42.6335C315.271 42.8466 315.539 43.0218 315.875 43.1591C316.216 43.3011 316.645 43.3722 317.161 43.3722C317.89 43.3722 318.494 43.1946 318.972 42.8395C319.45 42.4891 319.689 41.9115 319.689 41.1065V39.0398H319.561C319.429 39.3049 319.235 39.5772 318.979 39.8565C318.728 40.1359 318.394 40.3703 317.977 40.5597C317.566 40.7491 317.047 40.8438 316.422 40.8438C315.584 40.8438 314.824 40.6473 314.142 40.2543C313.465 39.8565 312.925 39.2647 312.523 38.4787C312.125 37.688 311.926 36.6984 311.926 35.5099C311.926 34.312 312.125 33.3011 312.523 32.4773C312.925 31.6487 313.468 31.0213 314.149 30.5952C314.831 30.1643 315.591 29.9489 316.429 29.9489C317.068 29.9489 317.594 30.0578 318.006 30.2756C318.423 30.4886 318.754 30.7467 319 31.0497C319.246 31.348 319.433 31.6297 319.561 31.8949H319.703V30.0909H322.239V41.1776C322.239 42.1103 322.016 42.8821 321.571 43.4929C321.126 44.1037 320.518 44.5606 319.746 44.8636C318.974 45.1667 318.098 45.3182 317.118 45.3182ZM317.139 38.8267C317.684 38.8267 318.148 38.6941 318.531 38.429C318.915 38.1638 319.206 37.7827 319.405 37.2855C319.604 36.7884 319.703 36.1918 319.703 35.4957C319.703 34.8092 319.604 34.2079 319.405 33.6918C319.211 33.1757 318.922 32.7756 318.539 32.4915C318.16 32.2027 317.693 32.0582 317.139 32.0582C316.566 32.0582 316.088 32.2074 315.705 32.5057C315.321 32.804 315.032 33.2135 314.838 33.7344C314.644 34.2505 314.547 34.8376 314.547 35.4957C314.547 36.1634 314.644 36.7481 314.838 37.25C315.037 37.7472 315.328 38.1354 315.712 38.4148C316.1 38.6894 316.576 38.8267 317.139 38.8267ZM328.013 41.2202C327.322 41.2202 326.699 41.0971 326.145 40.8509C325.596 40.5999 325.16 40.2306 324.838 39.7429C324.521 39.2552 324.362 38.6539 324.362 37.9389C324.362 37.3234 324.476 36.8144 324.703 36.4119C324.931 36.0095 325.241 35.6875 325.634 35.446C326.027 35.2045 326.469 35.0223 326.962 34.8991C327.459 34.7713 327.973 34.679 328.503 34.6222C329.142 34.5559 329.661 34.4967 330.058 34.4446C330.456 34.3878 330.745 34.3026 330.925 34.1889C331.11 34.0705 331.202 33.8883 331.202 33.642V33.5994C331.202 33.0644 331.043 32.6501 330.726 32.3565C330.409 32.063 329.952 31.9162 329.355 31.9162C328.726 31.9162 328.226 32.0535 327.857 32.3281C327.492 32.6027 327.246 32.9271 327.118 33.3011L324.718 32.9602C324.907 32.2973 325.219 31.7434 325.655 31.2983C326.091 30.8485 326.623 30.5123 327.253 30.2898C327.883 30.0625 328.579 29.9489 329.341 29.9489C329.867 29.9489 330.39 30.0104 330.911 30.1335C331.432 30.2566 331.907 30.4602 332.338 30.7443C332.769 31.0237 333.115 31.4048 333.375 31.8878C333.64 32.3707 333.773 32.9744 333.773 33.6989V41H331.301V39.5014H331.216C331.06 39.8045 330.84 40.0885 330.556 40.3537C330.276 40.6141 329.923 40.8248 329.497 40.9858C329.076 41.142 328.581 41.2202 328.013 41.2202ZM328.681 39.331C329.197 39.331 329.644 39.2292 330.023 39.0256C330.402 38.8172 330.693 38.5426 330.896 38.2017C331.105 37.8608 331.209 37.4891 331.209 37.0866V35.8011C331.128 35.8674 330.991 35.929 330.797 35.9858C330.608 36.0426 330.395 36.0923 330.158 36.1349C329.921 36.1776 329.687 36.2154 329.455 36.2486C329.223 36.2817 329.021 36.3101 328.851 36.3338C328.468 36.3859 328.124 36.4711 327.821 36.5895C327.518 36.7079 327.279 36.8736 327.104 37.0866C326.929 37.295 326.841 37.5649 326.841 37.8963C326.841 38.3698 327.014 38.7273 327.36 38.9688C327.705 39.2102 328.146 39.331 328.681 39.331ZM341.806 30.0909V32.0795H335.534V30.0909H341.806ZM337.083 27.4773H339.654V37.7188C339.654 38.0644 339.706 38.3295 339.81 38.5142C339.919 38.6941 340.061 38.8172 340.236 38.8835C340.411 38.9498 340.605 38.983 340.818 38.983C340.979 38.983 341.126 38.9711 341.259 38.9474C341.396 38.9238 341.5 38.9025 341.571 38.8835L342.004 40.8935C341.867 40.9408 341.671 40.9929 341.415 41.0497C341.164 41.1065 340.856 41.1397 340.492 41.1491C339.848 41.1681 339.268 41.071 338.752 40.858C338.235 40.6402 337.826 40.304 337.523 39.8494C337.225 39.3949 337.078 38.8267 337.083 38.1449V27.4773ZM348.668 41.2131C347.574 41.2131 346.63 40.9858 345.834 40.5312C345.044 40.072 344.435 39.4233 344.009 38.5852C343.583 37.7424 343.37 36.7505 343.37 35.6094C343.37 34.4872 343.583 33.5024 344.009 32.6548C344.44 31.8026 345.041 31.1397 345.813 30.6662C346.585 30.188 347.492 29.9489 348.533 29.9489C349.206 29.9489 349.84 30.0578 350.437 30.2756C351.038 30.4886 351.568 30.8201 352.028 31.2699C352.492 31.7197 352.856 32.2926 353.121 32.9886C353.386 33.6799 353.519 34.5038 353.519 35.4602V36.2486H344.577V34.5156H351.055C351.05 34.0232 350.943 33.5852 350.735 33.2017C350.527 32.8134 350.235 32.508 349.861 32.2855C349.492 32.063 349.061 31.9517 348.569 31.9517C348.043 31.9517 347.581 32.0795 347.184 32.3352C346.786 32.5862 346.476 32.9176 346.253 33.3295C346.036 33.7367 345.924 34.1842 345.92 34.6719V36.1847C345.92 36.8191 346.036 37.3636 346.268 37.8182C346.5 38.268 346.824 38.6136 347.241 38.8551C347.657 39.0919 348.145 39.2102 348.704 39.2102C349.078 39.2102 349.416 39.1581 349.719 39.054C350.022 38.9451 350.285 38.7865 350.508 38.5781C350.73 38.3698 350.898 38.1117 351.012 37.804L353.412 38.0739C353.261 38.7083 352.972 39.2623 352.546 39.7358C352.125 40.2045 351.585 40.5691 350.927 40.8295C350.269 41.0852 349.516 41.2131 348.668 41.2131ZM357.278 41.1562C356.847 41.1562 356.478 41.0047 356.17 40.7017C355.862 40.3987 355.711 40.0294 355.715 39.5938C355.711 39.1676 355.862 38.803 356.17 38.5C356.478 38.197 356.847 38.0455 357.278 38.0455C357.695 38.0455 358.057 38.197 358.365 38.5C358.677 38.803 358.836 39.1676 358.84 39.5938C358.836 39.8826 358.76 40.1454 358.613 40.3821C358.471 40.6188 358.282 40.8082 358.045 40.9503C357.813 41.0876 357.557 41.1562 357.278 41.1562Z" fill="black"/>
<path d="M28.6301 59.2727C28.562 58.697 28.2855 58.25 27.8006 57.9318C27.3158 57.6136 26.7211 57.4545 26.0165 57.4545C25.5014 57.4545 25.0506 57.5379 24.6642 57.7045C24.2817 57.8712 23.9824 58.1004 23.7665 58.392C23.5544 58.6837 23.4483 59.0152 23.4483 59.3864C23.4483 59.697 23.5222 59.964 23.6699 60.1875C23.8214 60.4072 24.0146 60.5909 24.2495 60.7386C24.4843 60.8826 24.7305 61.0019 24.9881 61.0966C25.2457 61.1875 25.4824 61.2614 25.6983 61.3182L26.8801 61.6364C27.1832 61.7159 27.5203 61.8258 27.8915 61.9659C28.2665 62.1061 28.6245 62.2973 28.9654 62.5398C29.3101 62.7784 29.5942 63.0852 29.8176 63.4602C30.0411 63.8352 30.1529 64.2955 30.1529 64.8409C30.1529 65.4697 29.9881 66.0379 29.6586 66.5455C29.3328 67.053 28.8555 67.4564 28.2267 67.7557C27.6017 68.0549 26.8423 68.2045 25.9483 68.2045C25.115 68.2045 24.3934 68.0701 23.7836 67.8011C23.1775 67.5322 22.7002 67.1572 22.3517 66.6761C22.007 66.1951 21.812 65.6364 21.7665 65H23.2211C23.2589 65.4394 23.4067 65.803 23.6642 66.0909C23.9256 66.375 24.2551 66.5871 24.6529 66.7273C25.0544 66.8636 25.4862 66.9318 25.9483 66.9318C26.4862 66.9318 26.9692 66.8447 27.3972 66.6705C27.8252 66.4924 28.1642 66.2462 28.4142 65.9318C28.6642 65.6136 28.7892 65.2424 28.7892 64.8182C28.7892 64.4318 28.6813 64.1174 28.4654 63.875C28.2495 63.6326 27.9654 63.4356 27.6131 63.2841C27.2608 63.1326 26.8801 63 26.4711 62.8864L25.0392 62.4773C24.1301 62.2159 23.4105 61.8428 22.8801 61.358C22.3498 60.8731 22.0847 60.2386 22.0847 59.4545C22.0847 58.803 22.2608 58.2348 22.6131 57.75C22.9692 57.2614 23.4464 56.8826 24.0449 56.6136C24.6472 56.3409 25.3195 56.2045 26.062 56.2045C26.812 56.2045 27.4786 56.339 28.062 56.608C28.6453 56.8731 29.1074 57.2367 29.4483 57.6989C29.793 58.161 29.9748 58.6856 29.9938 59.2727H28.6301ZM35.9469 68.1818C35.106 68.1818 34.3806 67.9962 33.7708 67.625C33.1647 67.25 32.6969 66.7273 32.3674 66.0568C32.0416 65.3826 31.8787 64.5985 31.8787 63.7045C31.8787 62.8106 32.0416 62.0227 32.3674 61.3409C32.6969 60.6553 33.1552 60.1212 33.7424 59.7386C34.3333 59.3523 35.0227 59.1591 35.8105 59.1591C36.2651 59.1591 36.714 59.2348 37.1571 59.3864C37.6003 59.5379 38.0037 59.7841 38.3674 60.125C38.731 60.4621 39.0208 60.9091 39.2367 61.4659C39.4526 62.0227 39.5605 62.7083 39.5605 63.5227V64.0909H32.8333V62.9318H38.1969C38.1969 62.4394 38.0984 62 37.9015 61.6136C37.7083 61.2273 37.4318 60.9223 37.0719 60.6989C36.7159 60.4754 36.2954 60.3636 35.8105 60.3636C35.2765 60.3636 34.8143 60.4962 34.4242 60.7614C34.0378 61.0227 33.7405 61.3636 33.5321 61.7841C33.3238 62.2045 33.2196 62.6553 33.2196 63.1364V63.9091C33.2196 64.5682 33.3333 65.1269 33.5605 65.5852C33.7916 66.0398 34.1117 66.3864 34.5208 66.625C34.9299 66.8598 35.4052 66.9773 35.9469 66.9773C36.2992 66.9773 36.6174 66.928 36.9015 66.8295C37.1893 66.7273 37.4374 66.5758 37.6458 66.375C37.8541 66.1705 38.0151 65.9167 38.1287 65.6136L39.4242 65.9773C39.2878 66.4167 39.0587 66.803 38.7367 67.1364C38.4147 67.4659 38.017 67.7235 37.5435 67.9091C37.07 68.0909 36.5378 68.1818 35.9469 68.1818ZM44.1685 68.2045C43.6155 68.2045 43.1136 68.1004 42.6628 67.892C42.2121 67.6799 41.8541 67.375 41.589 66.9773C41.3238 66.5758 41.1912 66.0909 41.1912 65.5227C41.1912 65.0227 41.2897 64.6174 41.4867 64.3068C41.6837 63.9924 41.9469 63.7462 42.2765 63.5682C42.606 63.3902 42.9696 63.2576 43.3674 63.1705C43.7689 63.0795 44.1723 63.0076 44.5776 62.9545C45.1079 62.8864 45.5378 62.8352 45.8674 62.8011C46.2007 62.7633 46.4431 62.7008 46.5946 62.6136C46.7499 62.5265 46.8276 62.375 46.8276 62.1591V62.1136C46.8276 61.553 46.6742 61.1174 46.3674 60.8068C46.0643 60.4962 45.6041 60.3409 44.9867 60.3409C44.3465 60.3409 43.8446 60.4811 43.481 60.7614C43.1174 61.0417 42.8617 61.3409 42.714 61.6591L41.4412 61.2045C41.6685 60.6742 41.9715 60.2614 42.3503 59.9659C42.7329 59.6667 43.1496 59.4583 43.6003 59.3409C44.0549 59.2197 44.5018 59.1591 44.9412 59.1591C45.2215 59.1591 45.5435 59.1932 45.9071 59.2614C46.2746 59.3258 46.6287 59.4602 46.9696 59.6648C47.3143 59.8693 47.6003 60.178 47.8276 60.5909C48.0549 61.0038 48.1685 61.5568 48.1685 62.25V68H46.8276V66.8182H46.7594C46.6685 67.0076 46.517 67.2102 46.3049 67.4261C46.0927 67.642 45.8105 67.8258 45.4583 67.9773C45.106 68.1288 44.6761 68.2045 44.1685 68.2045ZM44.373 67C44.9033 67 45.3503 66.8958 45.714 66.6875C46.0814 66.4792 46.3579 66.2102 46.5435 65.8807C46.7329 65.5511 46.8276 65.2045 46.8276 64.8409V63.6136C46.7708 63.6818 46.6458 63.7443 46.4526 63.8011C46.2632 63.8542 46.0435 63.9015 45.7935 63.9432C45.5473 63.9811 45.3068 64.0152 45.0719 64.0455C44.8409 64.072 44.6534 64.0947 44.5094 64.1136C44.1609 64.1591 43.8352 64.233 43.5321 64.3352C43.2329 64.4337 42.9905 64.5833 42.8049 64.7841C42.623 64.9811 42.5321 65.25 42.5321 65.5909C42.5321 66.0568 42.7045 66.4091 43.0492 66.6477C43.3977 66.8826 43.839 67 44.373 67ZM50.6159 68V59.2727H51.9114V60.6364H52.025C52.2069 60.1705 52.5004 59.8087 52.9057 59.5511C53.311 59.2898 53.7978 59.1591 54.3659 59.1591C54.9417 59.1591 55.4209 59.2898 55.8034 59.5511C56.1898 59.8087 56.4909 60.1705 56.7069 60.6364H56.7978C57.0212 60.1856 57.3565 59.8277 57.8034 59.5625C58.2504 59.2936 58.7864 59.1591 59.4114 59.1591C60.1917 59.1591 60.83 59.4034 61.3262 59.892C61.8224 60.3769 62.0705 61.1326 62.0705 62.1591V68H60.7296V62.1591C60.7296 61.5152 60.5534 61.0549 60.2012 60.7784C59.8489 60.5019 59.4341 60.3636 58.9569 60.3636C58.3432 60.3636 57.8678 60.5492 57.5307 60.9205C57.1936 61.2879 57.025 61.7538 57.025 62.3182V68H55.6614V62.0227C55.6614 61.5265 55.5004 61.1269 55.1784 60.8239C54.8565 60.517 54.4417 60.3636 53.9341 60.3636C53.5856 60.3636 53.2599 60.4564 52.9569 60.642C52.6576 60.8277 52.4152 61.0852 52.2296 61.4148C52.0478 61.7405 51.9569 62.1174 51.9569 62.5455V68H50.6159ZM65.8631 56.3636V68H64.5222V56.3636H65.8631ZM71.9782 68.1818C71.1373 68.1818 70.4119 67.9962 69.802 67.625C69.196 67.25 68.7282 66.7273 68.3986 66.0568C68.0729 65.3826 67.91 64.5985 67.91 63.7045C67.91 62.8106 68.0729 62.0227 68.3986 61.3409C68.7282 60.6553 69.1865 60.1212 69.7736 59.7386C70.3645 59.3523 71.0539 59.1591 71.8418 59.1591C72.2963 59.1591 72.7452 59.2348 73.1884 59.3864C73.6316 59.5379 74.035 59.7841 74.3986 60.125C74.7623 60.4621 75.052 60.9091 75.2679 61.4659C75.4838 62.0227 75.5918 62.7083 75.5918 63.5227V64.0909H68.8645V62.9318H74.2282C74.2282 62.4394 74.1297 62 73.9327 61.6136C73.7395 61.2273 73.463 60.9223 73.1032 60.6989C72.7471 60.4754 72.3266 60.3636 71.8418 60.3636C71.3077 60.3636 70.8456 60.4962 70.4554 60.7614C70.0691 61.0227 69.7717 61.3636 69.5634 61.7841C69.3551 62.2045 69.2509 62.6553 69.2509 63.1364V63.9091C69.2509 64.5682 69.3645 65.1269 69.5918 65.5852C69.8229 66.0398 70.1429 66.3864 70.552 66.625C70.9611 66.8598 71.4365 66.9773 71.9782 66.9773C72.3304 66.9773 72.6486 66.928 72.9327 66.8295C73.2206 66.7273 73.4687 66.5758 73.677 66.375C73.8854 66.1705 74.0463 65.9167 74.16 65.6136L75.4554 65.9773C75.3191 66.4167 75.0899 66.803 74.7679 67.1364C74.446 67.4659 74.0482 67.7235 73.5748 67.9091C73.1013 68.0909 72.5691 68.1818 71.9782 68.1818ZM83.8134 61.2273L82.6088 61.5682C82.5331 61.3674 82.4213 61.1723 82.2736 60.983C82.1297 60.7898 81.9327 60.6307 81.6827 60.5057C81.4327 60.3807 81.1126 60.3182 80.7225 60.3182C80.1884 60.3182 79.7433 60.4413 79.3873 60.6875C79.035 60.9299 78.8588 61.2386 78.8588 61.6136C78.8588 61.947 78.9801 62.2102 79.2225 62.4034C79.4649 62.5966 79.8437 62.7576 80.3588 62.8864L81.6543 63.2045C82.4346 63.3939 83.016 63.6837 83.3986 64.0739C83.7812 64.4602 83.9725 64.9583 83.9725 65.5682C83.9725 66.0682 83.8285 66.5152 83.5407 66.9091C83.2566 67.303 82.8588 67.6136 82.3475 67.8409C81.8361 68.0682 81.2414 68.1818 80.5634 68.1818C79.6732 68.1818 78.9365 67.9886 78.3532 67.6023C77.7698 67.2159 77.4005 66.6515 77.2452 65.9091L78.5179 65.5909C78.6391 66.0606 78.8683 66.4129 79.2054 66.6477C79.5463 66.8826 79.9914 67 80.5407 67C81.1657 67 81.6619 66.8674 82.0293 66.6023C82.4005 66.3333 82.5861 66.0114 82.5861 65.6364C82.5861 65.3333 82.4801 65.0795 82.2679 64.875C82.0558 64.6667 81.7301 64.5114 81.2907 64.4091L79.8361 64.0682C79.0369 63.8788 78.4498 63.5852 78.0748 63.1875C77.7035 62.786 77.5179 62.2841 77.5179 61.6818C77.5179 61.1894 77.6562 60.7538 77.9327 60.375C78.213 59.9962 78.5937 59.6989 79.0748 59.483C79.5596 59.267 80.1088 59.1591 80.7225 59.1591C81.5861 59.1591 82.2641 59.3485 82.7566 59.7273C83.2528 60.1061 83.6051 60.6061 83.8134 61.2273ZM92.1728 61.2273L90.9682 61.5682C90.8925 61.3674 90.7807 61.1723 90.633 60.983C90.4891 60.7898 90.2921 60.6307 90.0421 60.5057C89.7921 60.3807 89.472 60.3182 89.0819 60.3182C88.5478 60.3182 88.1027 60.4413 87.7466 60.6875C87.3944 60.9299 87.2182 61.2386 87.2182 61.6136C87.2182 61.947 87.3394 62.2102 87.5819 62.4034C87.8243 62.5966 88.2031 62.7576 88.7182 62.8864L90.0137 63.2045C90.794 63.3939 91.3754 63.6837 91.758 64.0739C92.1406 64.4602 92.3319 64.9583 92.3319 65.5682C92.3319 66.0682 92.1879 66.5152 91.9 66.9091C91.6159 67.303 91.2182 67.6136 90.7069 67.8409C90.1955 68.0682 89.6008 68.1818 88.9228 68.1818C88.0326 68.1818 87.2959 67.9886 86.7125 67.6023C86.1292 67.2159 85.7599 66.6515 85.6046 65.9091L86.8773 65.5909C86.9985 66.0606 87.2277 66.4129 87.5648 66.6477C87.9057 66.8826 88.3508 67 88.9 67C89.525 67 90.0212 66.8674 90.3887 66.6023C90.7599 66.3333 90.9455 66.0114 90.9455 65.6364C90.9455 65.3333 90.8394 65.0795 90.6273 64.875C90.4152 64.6667 90.0894 64.5114 89.65 64.4091L88.1955 64.0682C87.3962 63.8788 86.8091 63.5852 86.4341 63.1875C86.0629 62.786 85.8773 62.2841 85.8773 61.6818C85.8773 61.1894 86.0156 60.7538 86.2921 60.375C86.5724 59.9962 86.9531 59.6989 87.4341 59.483C87.919 59.267 88.4682 59.1591 89.0819 59.1591C89.9455 59.1591 90.6235 59.3485 91.1159 59.7273C91.6122 60.1061 91.9644 60.6061 92.1728 61.2273ZM96.3503 66.4091L96.2594 67.0227C96.195 67.4545 96.0965 67.9167 95.964 68.4091C95.8352 68.9015 95.7007 69.3655 95.5605 69.8011C95.4204 70.2367 95.3049 70.5833 95.214 70.8409H94.1912C94.2405 70.5985 94.3049 70.2784 94.3844 69.8807C94.464 69.483 94.5435 69.0379 94.623 68.5455C94.7064 68.0568 94.7746 67.5568 94.8276 67.0455L94.8958 66.4091H96.3503ZM108.835 64.4318V59.2727H110.176V68H108.835V66.5227H108.744C108.539 66.9659 108.221 67.3428 107.789 67.6534C107.357 67.9602 106.812 68.1136 106.153 68.1136C105.607 68.1136 105.123 67.9943 104.698 67.7557C104.274 67.5133 103.941 67.1496 103.698 66.6648C103.456 66.1761 103.335 65.5606 103.335 64.8182V59.2727H104.676V64.7273C104.676 65.3636 104.854 65.8712 105.21 66.25C105.57 66.6288 106.028 66.8182 106.585 66.8182C106.918 66.8182 107.257 66.733 107.602 66.5625C107.95 66.392 108.242 66.1307 108.477 65.7784C108.715 65.4261 108.835 64.9773 108.835 64.4318ZM118.813 61.2273L117.609 61.5682C117.533 61.3674 117.421 61.1723 117.274 60.983C117.13 60.7898 116.933 60.6307 116.683 60.5057C116.433 60.3807 116.113 60.3182 115.722 60.3182C115.188 60.3182 114.743 60.4413 114.387 60.6875C114.035 60.9299 113.859 61.2386 113.859 61.6136C113.859 61.947 113.98 62.2102 114.222 62.4034C114.465 62.5966 114.844 62.7576 115.359 62.8864L116.654 63.2045C117.435 63.3939 118.016 63.6837 118.399 64.0739C118.781 64.4602 118.972 64.9583 118.972 65.5682C118.972 66.0682 118.829 66.5152 118.541 66.9091C118.257 67.303 117.859 67.6136 117.347 67.8409C116.836 68.0682 116.241 68.1818 115.563 68.1818C114.673 68.1818 113.936 67.9886 113.353 67.6023C112.77 67.2159 112.401 66.6515 112.245 65.9091L113.518 65.5909C113.639 66.0606 113.868 66.4129 114.205 66.6477C114.546 66.8826 114.991 67 115.541 67C116.166 67 116.662 66.8674 117.029 66.6023C117.401 66.3333 117.586 66.0114 117.586 65.6364C117.586 65.3333 117.48 65.0795 117.268 64.875C117.056 64.6667 116.73 64.5114 116.291 64.4091L114.836 64.0682C114.037 63.8788 113.45 63.5852 113.075 63.1875C112.704 62.786 112.518 62.2841 112.518 61.6818C112.518 61.1894 112.656 60.7538 112.933 60.375C113.213 59.9962 113.594 59.6989 114.075 59.483C114.56 59.267 115.109 59.1591 115.722 59.1591C116.586 59.1591 117.264 59.3485 117.757 59.7273C118.253 60.1061 118.605 60.6061 118.813 61.2273ZM124.65 68.1818C123.809 68.1818 123.084 67.9962 122.474 67.625C121.868 67.25 121.4 66.7273 121.07 66.0568C120.745 65.3826 120.582 64.5985 120.582 63.7045C120.582 62.8106 120.745 62.0227 121.07 61.3409C121.4 60.6553 121.858 60.1212 122.445 59.7386C123.036 59.3523 123.726 59.1591 124.514 59.1591C124.968 59.1591 125.417 59.2348 125.86 59.3864C126.303 59.5379 126.707 59.7841 127.07 60.125C127.434 60.4621 127.724 60.9091 127.94 61.4659C128.156 62.0227 128.264 62.7083 128.264 63.5227V64.0909H121.536V62.9318H126.9C126.9 62.4394 126.802 62 126.605 61.6136C126.411 61.2273 126.135 60.9223 125.775 60.6989C125.419 60.4754 124.999 60.3636 124.514 60.3636C123.98 60.3636 123.517 60.4962 123.127 60.7614C122.741 61.0227 122.444 61.3636 122.235 61.7841C122.027 62.2045 121.923 62.6553 121.923 63.1364V63.9091C121.923 64.5682 122.036 65.1269 122.264 65.5852C122.495 66.0398 122.815 66.3864 123.224 66.625C123.633 66.8598 124.108 66.9773 124.65 66.9773C125.002 66.9773 125.32 66.928 125.605 66.8295C125.892 66.7273 126.141 66.5758 126.349 66.375C126.557 66.1705 126.718 65.9167 126.832 65.6136L128.127 65.9773C127.991 66.4167 127.762 66.803 127.44 67.1364C127.118 67.4659 126.72 67.7235 126.247 67.9091C125.773 68.0909 125.241 68.1818 124.65 68.1818ZM130.303 68V59.2727H131.599V60.5909H131.69C131.849 60.1591 132.137 59.8087 132.553 59.5398C132.97 59.2708 133.44 59.1364 133.963 59.1364C134.061 59.1364 134.184 59.1383 134.332 59.142C134.48 59.1458 134.591 59.1515 134.667 59.1591V60.5227C134.622 60.5114 134.517 60.4943 134.355 60.4716C134.195 60.4451 134.027 60.4318 133.849 60.4318C133.425 60.4318 133.046 60.5208 132.713 60.6989C132.383 60.8731 132.122 61.1155 131.928 61.4261C131.739 61.733 131.644 62.0833 131.644 62.4773V68H130.303ZM140.616 62.3864V63.6364H135.525V62.3864H140.616ZM146.862 59.2727V60.4091H142.157V59.2727H146.862ZM143.566 68V58.0682C143.566 57.5682 143.684 57.1515 143.919 56.8182C144.153 56.4848 144.458 56.2348 144.833 56.0682C145.208 55.9015 145.604 55.8182 146.021 55.8182C146.35 55.8182 146.619 55.8447 146.828 55.8977C147.036 55.9508 147.191 56 147.294 56.0455L146.907 57.2045C146.839 57.1818 146.744 57.1534 146.623 57.1193C146.506 57.0852 146.35 57.0682 146.157 57.0682C145.714 57.0682 145.394 57.1799 145.197 57.4034C145.004 57.6269 144.907 57.9545 144.907 58.3864V68H143.566ZM148.741 68V59.2727H150.036V60.5909H150.127C150.286 60.1591 150.574 59.8087 150.991 59.5398C151.408 59.2708 151.877 59.1364 152.4 59.1364C152.499 59.1364 152.622 59.1383 152.769 59.142C152.917 59.1458 153.029 59.1515 153.105 59.1591V60.5227C153.059 60.5114 152.955 60.4943 152.792 60.4716C152.633 60.4451 152.464 60.4318 152.286 60.4318C151.862 60.4318 151.483 60.5208 151.15 60.6989C150.82 60.8731 150.559 61.1155 150.366 61.4261C150.177 61.733 150.082 62.0833 150.082 62.4773V68H148.741ZM154.694 68V59.2727H156.035V68H154.694ZM155.376 57.8182C155.115 57.8182 154.889 57.7292 154.7 57.5511C154.514 57.3731 154.421 57.1591 154.421 56.9091C154.421 56.6591 154.514 56.4451 154.7 56.267C154.889 56.089 155.115 56 155.376 56C155.637 56 155.861 56.089 156.046 56.267C156.236 56.4451 156.33 56.6591 156.33 56.9091C156.33 57.1591 156.236 57.3731 156.046 57.5511C155.861 57.7292 155.637 57.8182 155.376 57.8182ZM162.15 68.1818C161.309 68.1818 160.584 67.9962 159.974 67.625C159.368 67.25 158.9 66.7273 158.57 66.0568C158.245 65.3826 158.082 64.5985 158.082 63.7045C158.082 62.8106 158.245 62.0227 158.57 61.3409C158.9 60.6553 159.358 60.1212 159.945 59.7386C160.536 59.3523 161.226 59.1591 162.014 59.1591C162.468 59.1591 162.917 59.2348 163.36 59.3864C163.803 59.5379 164.207 59.7841 164.57 60.125C164.934 60.4621 165.224 60.9091 165.44 61.4659C165.656 62.0227 165.764 62.7083 165.764 63.5227V64.0909H159.036V62.9318H164.4C164.4 62.4394 164.302 62 164.105 61.6136C163.911 61.2273 163.635 60.9223 163.275 60.6989C162.919 60.4754 162.499 60.3636 162.014 60.3636C161.48 60.3636 161.017 60.4962 160.627 60.7614C160.241 61.0227 159.944 61.3636 159.735 61.7841C159.527 62.2045 159.423 62.6553 159.423 63.1364V63.9091C159.423 64.5682 159.536 65.1269 159.764 65.5852C159.995 66.0398 160.315 66.3864 160.724 66.625C161.133 66.8598 161.608 66.9773 162.15 66.9773C162.502 66.9773 162.82 66.928 163.105 66.8295C163.392 66.7273 163.641 66.5758 163.849 66.375C164.057 66.1705 164.218 65.9167 164.332 65.6136L165.627 65.9773C165.491 66.4167 165.262 66.803 164.94 67.1364C164.618 67.4659 164.22 67.7235 163.747 67.9091C163.273 68.0909 162.741 68.1818 162.15 68.1818ZM169.144 62.75V68H167.803V59.2727H169.099V60.6364H169.213C169.417 60.1932 169.728 59.8371 170.144 59.5682C170.561 59.2955 171.099 59.1591 171.758 59.1591C172.349 59.1591 172.866 59.2803 173.309 59.5227C173.752 59.7614 174.097 60.125 174.343 60.6136C174.589 61.0985 174.713 61.7121 174.713 62.4545V68H173.372V62.5455C173.372 61.8598 173.194 61.3258 172.838 60.9432C172.481 60.5568 171.993 60.3636 171.372 60.3636C170.944 60.3636 170.561 60.4564 170.224 60.642C169.891 60.8277 169.627 61.0985 169.434 61.4545C169.241 61.8106 169.144 62.2424 169.144 62.75ZM180.458 68.1818C179.731 68.1818 179.089 67.9981 178.532 67.6307C177.975 67.2595 177.54 66.7367 177.225 66.0625C176.911 65.3845 176.754 64.5833 176.754 63.6591C176.754 62.7424 176.911 61.947 177.225 61.2727C177.54 60.5985 177.977 60.0777 178.538 59.7102C179.098 59.3428 179.746 59.1591 180.481 59.1591C181.049 59.1591 181.498 59.2538 181.828 59.4432C182.161 59.6288 182.415 59.8409 182.589 60.0795C182.767 60.3144 182.905 60.5076 183.004 60.6591H183.117V56.3636H184.458V68H183.163V66.6591H183.004C182.905 66.8182 182.765 67.0189 182.583 67.2614C182.401 67.5 182.142 67.714 181.805 67.9034C181.468 68.089 181.019 68.1818 180.458 68.1818ZM180.64 66.9773C181.178 66.9773 181.633 66.8371 182.004 66.5568C182.375 66.2727 182.657 65.8807 182.85 65.3807C183.044 64.8769 183.14 64.2955 183.14 63.6364C183.14 62.9848 183.045 62.4148 182.856 61.9261C182.667 61.4337 182.386 61.0511 182.015 60.7784C181.644 60.5019 181.186 60.3636 180.64 60.3636C180.072 60.3636 179.598 60.5095 179.22 60.8011C178.845 61.089 178.562 61.4811 178.373 61.9773C178.187 62.4697 178.095 63.0227 178.095 63.6364C178.095 64.2576 178.189 64.822 178.379 65.3295C178.572 65.8333 178.856 66.2348 179.231 66.5341C179.61 66.8295 180.079 66.9773 180.64 66.9773ZM188.441 56.3636V68H187.1V56.3636H188.441ZM191.761 71.2727C191.534 71.2727 191.331 71.2538 191.153 71.2159C190.975 71.1818 190.852 71.1477 190.784 71.1136L191.124 69.9318C191.45 70.0152 191.738 70.0455 191.988 70.0227C192.238 70 192.46 69.8883 192.653 69.6875C192.85 69.4905 193.03 69.1705 193.193 68.7273L193.443 68.0455L190.215 59.2727H191.67L194.079 66.2273H194.17L196.579 59.2727H198.034L194.329 69.2727C194.162 69.7235 193.956 70.0966 193.71 70.392C193.463 70.6913 193.177 70.9129 192.852 71.0568C192.53 71.2008 192.166 71.2727 191.761 71.2727ZM204.303 68V59.2727H205.644V68H204.303ZM204.985 57.8182C204.724 57.8182 204.499 57.7292 204.309 57.5511C204.124 57.3731 204.031 57.1591 204.031 56.9091C204.031 56.6591 204.124 56.4451 204.309 56.267C204.499 56.089 204.724 56 204.985 56C205.247 56 205.47 56.089 205.656 56.267C205.845 56.4451 205.94 56.6591 205.94 56.9091C205.94 57.1591 205.845 57.3731 205.656 57.5511C205.47 57.7292 205.247 57.8182 204.985 57.8182ZM209.441 62.75V68H208.1V59.2727H209.396V60.6364H209.509C209.714 60.1932 210.025 59.8371 210.441 59.5682C210.858 59.2955 211.396 59.1591 212.055 59.1591C212.646 59.1591 213.163 59.2803 213.606 59.5227C214.049 59.7614 214.394 60.125 214.64 60.6136C214.886 61.0985 215.009 61.7121 215.009 62.4545V68H213.669V62.5455C213.669 61.8598 213.49 61.3258 213.134 60.9432C212.778 60.5568 212.29 60.3636 211.669 60.3636C211.24 60.3636 210.858 60.4564 210.521 60.642C210.187 60.8277 209.924 61.0985 209.731 61.4545C209.538 61.8106 209.441 62.2424 209.441 62.75ZM221.255 59.2727V60.4091H216.732V59.2727H221.255ZM218.051 57.1818H219.392V65.5C219.392 65.8788 219.446 66.1629 219.556 66.3523C219.67 66.5379 219.814 66.6629 219.988 66.7273C220.166 66.7879 220.354 66.8182 220.551 66.8182C220.698 66.8182 220.82 66.8106 220.914 66.7955C221.009 66.7765 221.085 66.7614 221.142 66.75L221.414 67.9545C221.323 67.9886 221.196 68.0227 221.034 68.0568C220.871 68.0947 220.664 68.1136 220.414 68.1136C220.035 68.1136 219.664 68.0322 219.301 67.8693C218.941 67.7064 218.642 67.4583 218.403 67.125C218.168 66.7917 218.051 66.3712 218.051 65.8636V57.1818ZM226.838 68.1818C225.997 68.1818 225.271 67.9962 224.661 67.625C224.055 67.25 223.588 66.7273 223.258 66.0568C222.932 65.3826 222.769 64.5985 222.769 63.7045C222.769 62.8106 222.932 62.0227 223.258 61.3409C223.588 60.6553 224.046 60.1212 224.633 59.7386C225.224 59.3523 225.913 59.1591 226.701 59.1591C227.156 59.1591 227.605 59.2348 228.048 59.3864C228.491 59.5379 228.894 59.7841 229.258 60.125C229.622 60.4621 229.911 60.9091 230.127 61.4659C230.343 62.0227 230.451 62.7083 230.451 63.5227V64.0909H223.724V62.9318H229.088C229.088 62.4394 228.989 62 228.792 61.6136C228.599 61.2273 228.322 60.9223 227.963 60.6989C227.606 60.4754 227.186 60.3636 226.701 60.3636C226.167 60.3636 225.705 60.4962 225.315 60.7614C224.928 61.0227 224.631 61.3636 224.423 61.7841C224.214 62.2045 224.11 62.6553 224.11 63.1364V63.9091C224.11 64.5682 224.224 65.1269 224.451 65.5852C224.682 66.0398 225.002 66.3864 225.411 66.625C225.82 66.8598 226.296 66.9773 226.838 66.9773C227.19 66.9773 227.508 66.928 227.792 66.8295C228.08 66.7273 228.328 66.5758 228.536 66.375C228.745 66.1705 228.906 65.9167 229.019 65.6136L230.315 65.9773C230.178 66.4167 229.949 66.803 229.627 67.1364C229.305 67.4659 228.908 67.7235 228.434 67.9091C227.961 68.0909 227.428 68.1818 226.838 68.1818ZM232.491 68V59.2727H233.786V60.5909H233.877C234.036 60.1591 234.324 59.8087 234.741 59.5398C235.158 59.2708 235.627 59.1364 236.15 59.1364C236.249 59.1364 236.372 59.1383 236.519 59.142C236.667 59.1458 236.779 59.1515 236.855 59.1591V60.5227C236.809 60.5114 236.705 60.4943 236.542 60.4716C236.383 60.4451 236.214 60.4318 236.036 60.4318C235.612 60.4318 235.233 60.5208 234.9 60.6989C234.57 60.8731 234.309 61.1155 234.116 61.4261C233.927 61.733 233.832 62.0833 233.832 62.4773V68H232.491ZM242.877 59.2727V60.4091H238.173V59.2727H242.877ZM239.582 68V58.0682C239.582 57.5682 239.699 57.1515 239.934 56.8182C240.169 56.4848 240.474 56.2348 240.849 56.0682C241.224 55.9015 241.62 55.8182 242.036 55.8182C242.366 55.8182 242.635 55.8447 242.843 55.8977C243.052 55.9508 243.207 56 243.309 56.0455L242.923 57.2045C242.855 57.1818 242.76 57.1534 242.639 57.1193C242.521 57.0852 242.366 57.0682 242.173 57.0682C241.73 57.0682 241.41 57.1799 241.213 57.4034C241.019 57.6269 240.923 57.9545 240.923 58.3864V68H239.582ZM247.075 68.2045C246.522 68.2045 246.02 68.1004 245.569 67.892C245.118 67.6799 244.76 67.375 244.495 66.9773C244.23 66.5758 244.097 66.0909 244.097 65.5227C244.097 65.0227 244.196 64.6174 244.393 64.3068C244.59 63.9924 244.853 63.7462 245.183 63.5682C245.512 63.3902 245.876 63.2576 246.274 63.1705C246.675 63.0795 247.079 63.0076 247.484 62.9545C248.014 62.8864 248.444 62.8352 248.774 62.8011C249.107 62.7633 249.349 62.7008 249.501 62.6136C249.656 62.5265 249.734 62.375 249.734 62.1591V62.1136C249.734 61.553 249.58 61.1174 249.274 60.8068C248.971 60.4962 248.51 60.3409 247.893 60.3409C247.253 60.3409 246.751 60.4811 246.387 60.7614C246.024 61.0417 245.768 61.3409 245.62 61.6591L244.347 61.2045C244.575 60.6742 244.878 60.2614 245.257 59.9659C245.639 59.6667 246.056 59.4583 246.507 59.3409C246.961 59.2197 247.408 59.1591 247.847 59.1591C248.128 59.1591 248.45 59.1932 248.813 59.2614C249.181 59.3258 249.535 59.4602 249.876 59.6648C250.221 59.8693 250.507 60.178 250.734 60.5909C250.961 61.0038 251.075 61.5568 251.075 62.25V68H249.734V66.8182H249.666C249.575 67.0076 249.423 67.2102 249.211 67.4261C248.999 67.642 248.717 67.8258 248.365 67.9773C248.012 68.1288 247.582 68.2045 247.075 68.2045ZM247.279 67C247.81 67 248.257 66.8958 248.62 66.6875C248.988 66.4792 249.264 66.2102 249.45 65.8807C249.639 65.5511 249.734 65.2045 249.734 64.8409V63.6136C249.677 63.6818 249.552 63.7443 249.359 63.8011C249.169 63.8542 248.95 63.9015 248.7 63.9432C248.454 63.9811 248.213 64.0152 247.978 64.0455C247.747 64.072 247.56 64.0947 247.416 64.1136C247.067 64.1591 246.741 64.233 246.438 64.3352C246.139 64.4337 245.897 64.5833 245.711 64.7841C245.529 64.9811 245.438 65.25 245.438 65.5909C245.438 66.0568 245.611 66.4091 245.955 66.6477C246.304 66.8826 246.745 67 247.279 67ZM257.068 68.1818C256.249 68.1818 255.545 67.9886 254.954 67.6023C254.363 67.2159 253.909 66.6837 253.59 66.0057C253.272 65.3277 253.113 64.553 253.113 63.6818C253.113 62.7955 253.276 62.0133 253.602 61.3352C253.931 60.6534 254.39 60.1212 254.977 59.7386C255.568 59.3523 256.257 59.1591 257.045 59.1591C257.659 59.1591 258.212 59.2727 258.704 59.5C259.196 59.7273 259.6 60.0455 259.914 60.4545C260.229 60.8636 260.424 61.3409 260.499 61.8864H259.159C259.056 61.4886 258.829 61.1364 258.477 60.8295C258.128 60.5189 257.659 60.3636 257.068 60.3636C256.545 60.3636 256.087 60.5 255.693 60.7727C255.302 61.0417 254.998 61.4223 254.778 61.9148C254.562 62.4034 254.454 62.9773 254.454 63.6364C254.454 64.3106 254.56 64.8977 254.772 65.3977C254.988 65.8977 255.291 66.286 255.681 66.5625C256.075 66.839 256.537 66.9773 257.068 66.9773C257.416 66.9773 257.732 66.9167 258.017 66.7955C258.301 66.6742 258.541 66.5 258.738 66.2727C258.935 66.0455 259.075 65.7727 259.159 65.4545H260.499C260.424 65.9697 260.236 66.4337 259.937 66.8466C259.642 67.2557 259.249 67.5814 258.761 67.8239C258.276 68.0625 257.712 68.1818 257.068 68.1818ZM266.119 68.1818C265.278 68.1818 264.552 67.9962 263.943 67.625C263.337 67.25 262.869 66.7273 262.539 66.0568C262.213 65.3826 262.051 64.5985 262.051 63.7045C262.051 62.8106 262.213 62.0227 262.539 61.3409C262.869 60.6553 263.327 60.1212 263.914 59.7386C264.505 59.3523 265.195 59.1591 265.982 59.1591C266.437 59.1591 266.886 59.2348 267.329 59.3864C267.772 59.5379 268.176 59.7841 268.539 60.125C268.903 60.4621 269.193 60.9091 269.409 61.4659C269.624 62.0227 269.732 62.7083 269.732 63.5227V64.0909H263.005V62.9318H268.369C268.369 62.4394 268.27 62 268.073 61.6136C267.88 61.2273 267.604 60.9223 267.244 60.6989C266.888 60.4754 266.467 60.3636 265.982 60.3636C265.448 60.3636 264.986 60.4962 264.596 60.7614C264.21 61.0227 263.912 61.3636 263.704 61.7841C263.496 62.2045 263.392 62.6553 263.392 63.1364V63.9091C263.392 64.5682 263.505 65.1269 263.732 65.5852C263.963 66.0398 264.284 66.3864 264.693 66.625C265.102 66.8598 265.577 66.9773 266.119 66.9773C266.471 66.9773 266.789 66.928 267.073 66.8295C267.361 66.7273 267.609 66.5758 267.818 66.375C268.026 66.1705 268.187 65.9167 268.301 65.6136L269.596 65.9773C269.46 66.4167 269.231 66.803 268.909 67.1364C268.587 67.4659 268.189 67.7235 267.715 67.9091C267.242 68.0909 266.71 68.1818 266.119 68.1818ZM280.159 59.2727V60.4091H275.454V59.2727H280.159ZM276.863 68V58.0682C276.863 57.5682 276.981 57.1515 277.215 56.8182C277.45 56.4848 277.755 56.2348 278.13 56.0682C278.505 55.9015 278.901 55.8182 279.318 55.8182C279.647 55.8182 279.916 55.8447 280.124 55.8977C280.333 55.9508 280.488 56 280.59 56.0455L280.204 57.2045C280.136 57.1818 280.041 57.1534 279.92 57.1193C279.802 57.0852 279.647 57.0682 279.454 57.0682C279.011 57.0682 278.691 57.1799 278.494 57.4034C278.301 57.6269 278.204 57.9545 278.204 58.3864V68H276.863ZM285.224 68.1818C284.436 68.1818 283.745 67.9943 283.15 67.6193C282.559 67.2443 282.097 66.7197 281.764 66.0455C281.434 65.3712 281.269 64.5833 281.269 63.6818C281.269 62.7727 281.434 61.9792 281.764 61.3011C282.097 60.6231 282.559 60.0966 283.15 59.7216C283.745 59.3466 284.436 59.1591 285.224 59.1591C286.012 59.1591 286.701 59.3466 287.292 59.7216C287.887 60.0966 288.349 60.6231 288.678 61.3011C289.012 61.9792 289.178 62.7727 289.178 63.6818C289.178 64.5833 289.012 65.3712 288.678 66.0455C288.349 66.7197 287.887 67.2443 287.292 67.6193C286.701 67.9943 286.012 68.1818 285.224 68.1818ZM285.224 66.9773C285.822 66.9773 286.315 66.8239 286.701 66.517C287.088 66.2102 287.374 65.8068 287.559 65.3068C287.745 64.8068 287.838 64.2652 287.838 63.6818C287.838 63.0985 287.745 62.5549 287.559 62.0511C287.374 61.5473 287.088 61.1402 286.701 60.8295C286.315 60.5189 285.822 60.3636 285.224 60.3636C284.625 60.3636 284.133 60.5189 283.747 60.8295C283.36 61.1402 283.074 61.5473 282.889 62.0511C282.703 62.5549 282.61 63.0985 282.61 63.6818C282.61 64.2652 282.703 64.8068 282.889 65.3068C283.074 65.8068 283.36 66.2102 283.747 66.517C284.133 66.8239 284.625 66.9773 285.224 66.9773ZM291.225 68V59.2727H292.521V60.5909H292.612C292.771 60.1591 293.059 59.8087 293.475 59.5398C293.892 59.2708 294.362 59.1364 294.884 59.1364C294.983 59.1364 295.106 59.1383 295.254 59.142C295.401 59.1458 295.513 59.1515 295.589 59.1591V60.5227C295.544 60.5114 295.439 60.4943 295.276 60.4716C295.117 60.4451 294.949 60.4318 294.771 60.4318C294.347 60.4318 293.968 60.5208 293.634 60.6989C293.305 60.8731 293.044 61.1155 292.85 61.4261C292.661 61.733 292.566 62.0833 292.566 62.4773V68H291.225ZM25.7438 87.1818C24.9029 87.1818 24.1775 86.9962 23.5676 86.625C22.9616 86.25 22.4938 85.7273 22.1642 85.0568C21.8385 84.3826 21.6756 83.5985 21.6756 82.7045C21.6756 81.8106 21.8385 81.0227 22.1642 80.3409C22.4938 79.6553 22.9521 79.1212 23.5392 78.7386C24.1301 78.3523 24.8195 78.1591 25.6074 78.1591C26.062 78.1591 26.5108 78.2348 26.954 78.3864C27.3972 78.5379 27.8006 78.7841 28.1642 79.125C28.5279 79.4621 28.8176 79.9091 29.0336 80.4659C29.2495 81.0227 29.3574 81.7083 29.3574 82.5227V83.0909H22.6301V81.9318H27.9938C27.9938 81.4394 27.8953 81 27.6983 80.6136C27.5051 80.2273 27.2286 79.9223 26.8688 79.6989C26.5127 79.4754 26.0923 79.3636 25.6074 79.3636C25.0733 79.3636 24.6112 79.4962 24.2211 79.7614C23.8347 80.0227 23.5373 80.3636 23.329 80.7841C23.1207 81.2045 23.0165 81.6553 23.0165 82.1364V82.9091C23.0165 83.5682 23.1301 84.1269 23.3574 84.5852C23.5885 85.0398 23.9086 85.3864 24.3176 85.625C24.7267 85.8598 25.2021 85.9773 25.7438 85.9773C26.0961 85.9773 26.4142 85.928 26.6983 85.8295C26.9862 85.7273 27.2343 85.5758 27.4426 85.375C27.651 85.1705 27.812 84.9167 27.9256 84.6136L29.2211 84.9773C29.0847 85.4167 28.8555 85.803 28.5336 86.1364C28.2116 86.4659 27.8139 86.7235 27.3404 86.9091C26.8669 87.0909 26.3347 87.1818 25.7438 87.1818ZM35.2836 78.2727V79.4091H30.579V78.2727H35.2836ZM31.9881 87V77.0682C31.9881 76.5682 32.1055 76.1515 32.3404 75.8182C32.5752 75.4848 32.8801 75.2348 33.2551 75.0682C33.6301 74.9015 34.026 74.8182 34.4426 74.8182C34.7722 74.8182 35.0411 74.8447 35.2495 74.8977C35.4578 74.9508 35.6131 75 35.7154 75.0455L35.329 76.2045C35.2608 76.1818 35.1661 76.1534 35.0449 76.1193C34.9275 76.0852 34.7722 76.0682 34.579 76.0682C34.1358 76.0682 33.8158 76.1799 33.6188 76.4034C33.4256 76.6269 33.329 76.9545 33.329 77.3864V87H31.9881ZM41.0492 78.2727V79.4091H36.3446V78.2727H41.0492ZM37.7537 87V77.0682C37.7537 76.5682 37.8712 76.1515 38.106 75.8182C38.3408 75.4848 38.6458 75.2348 39.0208 75.0682C39.3958 74.9015 39.7916 74.8182 40.2083 74.8182C40.5378 74.8182 40.8068 74.8447 41.0151 74.8977C41.2234 74.9508 41.3787 75 41.481 75.0455L41.0946 76.2045C41.0265 76.1818 40.9318 76.1534 40.8105 76.1193C40.6931 76.0852 40.5378 76.0682 40.3446 76.0682C39.9015 76.0682 39.5814 76.1799 39.3844 76.4034C39.1912 76.6269 39.0946 76.9545 39.0946 77.3864V87H37.7537ZM46.1145 87.1818C45.3266 87.1818 44.6354 86.9943 44.0407 86.6193C43.4498 86.2443 42.9876 85.7197 42.6543 85.0455C42.3248 84.3712 42.16 83.5833 42.16 82.6818C42.16 81.7727 42.3248 80.9792 42.6543 80.3011C42.9876 79.6231 43.4498 79.0966 44.0407 78.7216C44.6354 78.3466 45.3266 78.1591 46.1145 78.1591C46.9024 78.1591 47.5918 78.3466 48.1827 78.7216C48.7774 79.0966 49.2395 79.6231 49.5691 80.3011C49.9024 80.9792 50.0691 81.7727 50.0691 82.6818C50.0691 83.5833 49.9024 84.3712 49.5691 85.0455C49.2395 85.7197 48.7774 86.2443 48.1827 86.6193C47.5918 86.9943 46.9024 87.1818 46.1145 87.1818ZM46.1145 85.9773C46.713 85.9773 47.2054 85.8239 47.5918 85.517C47.9782 85.2102 48.2641 84.8068 48.4498 84.3068C48.6354 83.8068 48.7282 83.2652 48.7282 82.6818C48.7282 82.0985 48.6354 81.5549 48.4498 81.0511C48.2641 80.5473 47.9782 80.1402 47.5918 79.8295C47.2054 79.5189 46.713 79.3636 46.1145 79.3636C45.516 79.3636 45.0236 79.5189 44.6373 79.8295C44.2509 80.1402 43.9649 80.5473 43.7793 81.0511C43.5937 81.5549 43.5009 82.0985 43.5009 82.6818C43.5009 83.2652 43.5937 83.8068 43.7793 84.3068C43.9649 84.8068 44.2509 85.2102 44.6373 85.517C45.0236 85.8239 45.516 85.9773 46.1145 85.9773ZM52.1159 87V78.2727H53.4114V79.5909H53.5023C53.6614 79.1591 53.9493 78.8087 54.3659 78.5398C54.7826 78.2708 55.2523 78.1364 55.775 78.1364C55.8735 78.1364 55.9966 78.1383 56.1444 78.142C56.2921 78.1458 56.4038 78.1515 56.4796 78.1591V79.5227C56.4341 79.5114 56.33 79.4943 56.1671 79.4716C56.008 79.4451 55.8394 79.4318 55.6614 79.4318C55.2372 79.4318 54.8584 79.5208 54.525 79.6989C54.1955 79.8731 53.9341 80.1155 53.7409 80.4261C53.5516 80.733 53.4569 81.0833 53.4569 81.4773V87H52.1159ZM62.4114 78.2727V79.4091H57.8887V78.2727H62.4114ZM59.2069 76.1818H60.5478V84.5C60.5478 84.8788 60.6027 85.1629 60.7125 85.3523C60.8262 85.5379 60.9701 85.6629 61.1444 85.7273C61.3224 85.7879 61.5099 85.8182 61.7069 85.8182C61.8546 85.8182 61.9758 85.8106 62.0705 85.7955C62.1652 85.7765 62.2409 85.7614 62.2978 85.75L62.5705 86.9545C62.4796 86.9886 62.3527 87.0227 62.1898 87.0568C62.0269 87.0947 61.8205 87.1136 61.5705 87.1136C61.1917 87.1136 60.8205 87.0322 60.4569 86.8693C60.097 86.7064 59.7978 86.4583 59.5591 86.125C59.3243 85.7917 59.2069 85.3712 59.2069 84.8636V76.1818ZM65.9569 75.3636V87H64.6159V75.3636H65.9569ZM72.0719 87.1818C71.231 87.1818 70.5056 86.9962 69.8958 86.625C69.2897 86.25 68.8219 85.7273 68.4924 85.0568C68.1666 84.3826 68.0037 83.5985 68.0037 82.7045C68.0037 81.8106 68.1666 81.0227 68.4924 80.3409C68.8219 79.6553 69.2802 79.1212 69.8674 78.7386C70.4583 78.3523 71.1477 78.1591 71.9355 78.1591C72.3901 78.1591 72.839 78.2348 73.2821 78.3864C73.7253 78.5379 74.1287 78.7841 74.4924 79.125C74.856 79.4621 75.1458 79.9091 75.3617 80.4659C75.5776 81.0227 75.6855 81.7083 75.6855 82.5227V83.0909H68.9583V81.9318H74.3219C74.3219 81.4394 74.2234 81 74.0265 80.6136C73.8333 80.2273 73.5568 79.9223 73.1969 79.6989C72.8409 79.4754 72.4204 79.3636 71.9355 79.3636C71.4015 79.3636 70.9393 79.4962 70.5492 79.7614C70.1628 80.0227 69.8655 80.3636 69.6571 80.7841C69.4488 81.2045 69.3446 81.6553 69.3446 82.1364V82.9091C69.3446 83.5682 69.4583 84.1269 69.6855 84.5852C69.9166 85.0398 70.2367 85.3864 70.6458 85.625C71.0549 85.8598 71.5302 85.9773 72.0719 85.9773C72.4242 85.9773 72.7424 85.928 73.0265 85.8295C73.3143 85.7273 73.5624 85.5758 73.7708 85.375C73.9791 85.1705 74.1401 84.9167 74.2537 84.6136L75.5492 84.9773C75.4128 85.4167 75.1837 85.803 74.8617 86.1364C74.5397 86.4659 74.142 86.7235 73.6685 86.9091C73.195 87.0909 72.6628 87.1818 72.0719 87.1818ZM83.9071 80.2273L82.7026 80.5682C82.6268 80.3674 82.5151 80.1723 82.3674 79.983C82.2234 79.7898 82.0265 79.6307 81.7765 79.5057C81.5265 79.3807 81.2064 79.3182 80.8162 79.3182C80.2821 79.3182 79.8371 79.4413 79.481 79.6875C79.1287 79.9299 78.9526 80.2386 78.9526 80.6136C78.9526 80.947 79.0738 81.2102 79.3162 81.4034C79.5587 81.5966 79.9374 81.7576 80.4526 81.8864L81.748 82.2045C82.5283 82.3939 83.1098 82.6837 83.4924 83.0739C83.8749 83.4602 84.0662 83.9583 84.0662 84.5682C84.0662 85.0682 83.9223 85.5152 83.6344 85.9091C83.3503 86.303 82.9526 86.6136 82.4412 86.8409C81.9299 87.0682 81.3352 87.1818 80.6571 87.1818C79.767 87.1818 79.0302 86.9886 78.4469 86.6023C77.8636 86.2159 77.4943 85.6515 77.339 84.9091L78.6117 84.5909C78.7329 85.0606 78.9621 85.4129 79.2992 85.6477C79.6401 85.8826 80.0852 86 80.6344 86C81.2594 86 81.7556 85.8674 82.123 85.6023C82.4943 85.3333 82.6799 85.0114 82.6799 84.6364C82.6799 84.3333 82.5738 84.0795 82.3617 83.875C82.1496 83.6667 81.8238 83.5114 81.3844 83.4091L79.9299 83.0682C79.1306 82.8788 78.5435 82.5852 78.1685 82.1875C77.7973 81.786 77.6117 81.2841 77.6117 80.6818C77.6117 80.1894 77.7499 79.7538 78.0265 79.375C78.3068 78.9962 78.6874 78.6989 79.1685 78.483C79.6534 78.267 80.2026 78.1591 80.8162 78.1591C81.6799 78.1591 82.3579 78.3485 82.8503 78.7273C83.3465 79.1061 83.6988 79.6061 83.9071 80.2273ZM92.2665 80.2273L91.062 80.5682C90.9862 80.3674 90.8745 80.1723 90.7267 79.983C90.5828 79.7898 90.3858 79.6307 90.1358 79.5057C89.8858 79.3807 89.5658 79.3182 89.1756 79.3182C88.6415 79.3182 88.1964 79.4413 87.8404 79.6875C87.4881 79.9299 87.312 80.2386 87.312 80.6136C87.312 80.947 87.4332 81.2102 87.6756 81.4034C87.918 81.5966 88.2968 81.7576 88.812 81.8864L90.1074 82.2045C90.8877 82.3939 91.4692 82.6837 91.8517 83.0739C92.2343 83.4602 92.4256 83.9583 92.4256 84.5682C92.4256 85.0682 92.2817 85.5152 91.9938 85.9091C91.7097 86.303 91.312 86.6136 90.8006 86.8409C90.2892 87.0682 89.6945 87.1818 89.0165 87.1818C88.1264 87.1818 87.3896 86.9886 86.8063 86.6023C86.223 86.2159 85.8536 85.6515 85.6983 84.9091L86.9711 84.5909C87.0923 85.0606 87.3214 85.4129 87.6586 85.6477C87.9995 85.8826 88.4445 86 88.9938 86C89.6188 86 90.115 85.8674 90.4824 85.6023C90.8536 85.3333 91.0392 85.0114 91.0392 84.6364C91.0392 84.3333 90.9332 84.0795 90.7211 83.875C90.5089 83.6667 90.1832 83.5114 89.7438 83.4091L88.2892 83.0682C87.49 82.8788 86.9029 82.5852 86.5279 82.1875C86.1567 81.786 85.9711 81.2841 85.9711 80.6818C85.9711 80.1894 86.1093 79.7538 86.3858 79.375C86.6661 78.9962 87.0468 78.6989 87.5279 78.483C88.0127 78.267 88.562 78.1591 89.1756 78.1591C90.0392 78.1591 90.7173 78.3485 91.2097 78.7273C91.7059 79.1061 92.0582 79.6061 92.2665 80.2273ZM100.285 81.75V87H98.9441V78.2727H100.24V79.6364H100.353C100.558 79.1932 100.868 78.8371 101.285 78.5682C101.702 78.2955 102.24 78.1591 102.899 78.1591C103.49 78.1591 104.007 78.2803 104.45 78.5227C104.893 78.7614 105.238 79.125 105.484 79.6136C105.73 80.0985 105.853 80.7121 105.853 81.4545V87H104.512V81.5455C104.512 80.8598 104.334 80.3258 103.978 79.9432C103.622 79.5568 103.133 79.3636 102.512 79.3636C102.084 79.3636 101.702 79.4564 101.365 79.642C101.031 79.8277 100.768 80.0985 100.575 80.4545C100.382 80.8106 100.285 81.2424 100.285 81.75ZM110.872 87.2045C110.319 87.2045 109.817 87.1004 109.366 86.892C108.915 86.6799 108.557 86.375 108.292 85.9773C108.027 85.5758 107.894 85.0909 107.894 84.5227C107.894 84.0227 107.993 83.6174 108.19 83.3068C108.387 82.9924 108.65 82.7462 108.98 82.5682C109.309 82.3902 109.673 82.2576 110.07 82.1705C110.472 82.0795 110.875 82.0076 111.281 81.9545C111.811 81.8864 112.241 81.8352 112.57 81.8011C112.904 81.7633 113.146 81.7008 113.298 81.6136C113.453 81.5265 113.531 81.375 113.531 81.1591V81.1136C113.531 80.553 113.377 80.1174 113.07 79.8068C112.767 79.4962 112.307 79.3409 111.69 79.3409C111.05 79.3409 110.548 79.4811 110.184 79.7614C109.82 80.0417 109.565 80.3409 109.417 80.6591L108.144 80.2045C108.372 79.6742 108.675 79.2614 109.053 78.9659C109.436 78.6667 109.853 78.4583 110.303 78.3409C110.758 78.2197 111.205 78.1591 111.644 78.1591C111.925 78.1591 112.247 78.1932 112.61 78.2614C112.978 78.3258 113.332 78.4602 113.673 78.6648C114.017 78.8693 114.303 79.178 114.531 79.5909C114.758 80.0038 114.872 80.5568 114.872 81.25V87H113.531V85.8182H113.463C113.372 86.0076 113.22 86.2102 113.008 86.4261C112.796 86.642 112.514 86.8258 112.161 86.9773C111.809 87.1288 111.379 87.2045 110.872 87.2045ZM111.076 86C111.606 86 112.053 85.8958 112.417 85.6875C112.785 85.4792 113.061 85.2102 113.247 84.8807C113.436 84.5511 113.531 84.2045 113.531 83.8409V82.6136C113.474 82.6818 113.349 82.7443 113.156 82.8011C112.966 82.8542 112.747 82.9015 112.497 82.9432C112.25 82.9811 112.01 83.0152 111.775 83.0455C111.544 83.072 111.356 83.0947 111.213 83.1136C110.864 83.1591 110.538 83.233 110.235 83.3352C109.936 83.4337 109.694 83.5833 109.508 83.7841C109.326 83.9811 109.235 84.25 109.235 84.5909C109.235 85.0568 109.408 85.4091 109.752 85.6477C110.101 85.8826 110.542 86 111.076 86ZM124.143 78.2727L120.916 87H119.552L116.325 78.2727H117.779L120.188 85.2273H120.279L122.688 78.2727H124.143ZM125.913 87V78.2727H127.254V87H125.913ZM126.595 76.8182C126.333 76.8182 126.108 76.7292 125.919 76.5511C125.733 76.3731 125.64 76.1591 125.64 75.9091C125.64 75.6591 125.733 75.4451 125.919 75.267C126.108 75.089 126.333 75 126.595 75C126.856 75 127.079 75.089 127.265 75.267C127.454 75.4451 127.549 75.6591 127.549 75.9091C127.549 76.1591 127.454 76.3731 127.265 76.5511C127.079 76.7292 126.856 76.8182 126.595 76.8182ZM133.232 90.4545C132.585 90.4545 132.028 90.3712 131.562 90.2045C131.096 90.0417 130.708 89.8258 130.397 89.5568C130.09 89.2917 129.846 89.0076 129.664 88.7045L130.732 87.9545C130.854 88.1136 131.007 88.2955 131.193 88.5C131.378 88.7083 131.632 88.8883 131.954 89.0398C132.28 89.1951 132.706 89.2727 133.232 89.2727C133.937 89.2727 134.518 89.1023 134.977 88.7614C135.435 88.4205 135.664 87.8864 135.664 87.1591V85.3864H135.551C135.452 85.5455 135.312 85.7424 135.13 85.9773C134.952 86.2083 134.695 86.4148 134.357 86.5966C134.024 86.7746 133.573 86.8636 133.005 86.8636C132.301 86.8636 131.668 86.697 131.107 86.3636C130.551 86.0303 130.109 85.5455 129.784 84.9091C129.462 84.2727 129.301 83.5 129.301 82.5909C129.301 81.697 129.458 80.9186 129.772 80.2557C130.087 79.589 130.524 79.0739 131.085 78.7102C131.645 78.3428 132.293 78.1591 133.028 78.1591C133.596 78.1591 134.047 78.2538 134.38 78.4432C134.717 78.6288 134.975 78.8409 135.153 79.0795C135.335 79.3144 135.475 79.5076 135.573 79.6591H135.71V78.2727H137.005V87.25C137.005 88 136.835 88.6098 136.494 89.0795C136.157 89.553 135.702 89.8996 135.13 90.1193C134.562 90.3428 133.929 90.4545 133.232 90.4545ZM133.187 85.6591C133.725 85.6591 134.179 85.536 134.551 85.2898C134.922 85.0436 135.204 84.6894 135.397 84.2273C135.59 83.7652 135.687 83.2121 135.687 82.5682C135.687 81.9394 135.592 81.3845 135.403 80.9034C135.213 80.4223 134.933 80.0455 134.562 79.7727C134.191 79.5 133.732 79.3636 133.187 79.3636C132.619 79.3636 132.145 79.5076 131.767 79.7955C131.392 80.0833 131.109 80.4697 130.92 80.9545C130.734 81.4394 130.642 81.9773 130.642 82.5682C130.642 83.1742 130.736 83.7102 130.926 84.1761C131.119 84.6383 131.403 85.0019 131.778 85.267C132.157 85.5284 132.626 85.6591 133.187 85.6591ZM142.028 87.2045C141.475 87.2045 140.973 87.1004 140.522 86.892C140.071 86.6799 139.713 86.375 139.448 85.9773C139.183 85.5758 139.051 85.0909 139.051 84.5227C139.051 84.0227 139.149 83.6174 139.346 83.3068C139.543 82.9924 139.806 82.7462 140.136 82.5682C140.465 82.3902 140.829 82.2576 141.227 82.1705C141.628 82.0795 142.032 82.0076 142.437 81.9545C142.967 81.8864 143.397 81.8352 143.727 81.8011C144.06 81.7633 144.302 81.7008 144.454 81.6136C144.609 81.5265 144.687 81.375 144.687 81.1591V81.1136C144.687 80.553 144.534 80.1174 144.227 79.8068C143.924 79.4962 143.463 79.3409 142.846 79.3409C142.206 79.3409 141.704 79.4811 141.34 79.7614C140.977 80.0417 140.721 80.3409 140.573 80.6591L139.301 80.2045C139.528 79.6742 139.831 79.2614 140.21 78.9659C140.592 78.6667 141.009 78.4583 141.46 78.3409C141.914 78.2197 142.361 78.1591 142.801 78.1591C143.081 78.1591 143.403 78.1932 143.767 78.2614C144.134 78.3258 144.488 78.4602 144.829 78.6648C145.174 78.8693 145.46 79.178 145.687 79.5909C145.914 80.0038 146.028 80.5568 146.028 81.25V87H144.687V85.8182H144.619C144.528 86.0076 144.376 86.2102 144.164 86.4261C143.952 86.642 143.67 86.8258 143.318 86.9773C142.965 87.1288 142.535 87.2045 142.028 87.2045ZM142.232 86C142.763 86 143.21 85.8958 143.573 85.6875C143.941 85.4792 144.217 85.2102 144.403 84.8807C144.592 84.5511 144.687 84.2045 144.687 83.8409V82.6136C144.63 82.6818 144.505 82.7443 144.312 82.8011C144.123 82.8542 143.903 82.9015 143.653 82.9432C143.407 82.9811 143.166 83.0152 142.931 83.0455C142.7 83.072 142.513 83.0947 142.369 83.1136C142.02 83.1591 141.695 83.233 141.392 83.3352C141.092 83.4337 140.85 83.5833 140.664 83.7841C140.482 83.9811 140.392 84.25 140.392 84.5909C140.392 85.0568 140.564 85.4091 140.909 85.6477C141.257 85.8826 141.698 86 142.232 86ZM152.271 78.2727V79.4091H147.748V78.2727H152.271ZM149.066 76.1818H150.407V84.5C150.407 84.8788 150.462 85.1629 150.572 85.3523C150.686 85.5379 150.829 85.6629 151.004 85.7273C151.182 85.7879 151.369 85.8182 151.566 85.8182C151.714 85.8182 151.835 85.8106 151.93 85.7955C152.025 85.7765 152.1 85.7614 152.157 85.75L152.43 86.9545C152.339 86.9886 152.212 87.0227 152.049 87.0568C151.886 87.0947 151.68 87.1136 151.43 87.1136C151.051 87.1136 150.68 87.0322 150.316 86.8693C149.956 86.7064 149.657 86.4583 149.419 86.125C149.184 85.7917 149.066 85.3712 149.066 84.8636V76.1818ZM154.288 87V78.2727H155.629V87H154.288ZM154.97 76.8182C154.708 76.8182 154.483 76.7292 154.294 76.5511C154.108 76.3731 154.015 76.1591 154.015 75.9091C154.015 75.6591 154.108 75.4451 154.294 75.267C154.483 75.089 154.708 75 154.97 75C155.231 75 155.454 75.089 155.64 75.267C155.829 75.4451 155.924 75.6591 155.924 75.9091C155.924 76.1591 155.829 76.3731 155.64 76.5511C155.454 76.7292 155.231 76.8182 154.97 76.8182ZM161.63 87.1818C160.842 87.1818 160.151 86.9943 159.556 86.6193C158.965 86.2443 158.503 85.7197 158.17 85.0455C157.84 84.3712 157.676 83.5833 157.676 82.6818C157.676 81.7727 157.84 80.9792 158.17 80.3011C158.503 79.6231 158.965 79.0966 159.556 78.7216C160.151 78.3466 160.842 78.1591 161.63 78.1591C162.418 78.1591 163.107 78.3466 163.698 78.7216C164.293 79.0966 164.755 79.6231 165.085 80.3011C165.418 80.9792 165.585 81.7727 165.585 82.6818C165.585 83.5833 165.418 84.3712 165.085 85.0455C164.755 85.7197 164.293 86.2443 163.698 86.6193C163.107 86.9943 162.418 87.1818 161.63 87.1818ZM161.63 85.9773C162.229 85.9773 162.721 85.8239 163.107 85.517C163.494 85.2102 163.78 84.8068 163.965 84.3068C164.151 83.8068 164.244 83.2652 164.244 82.6818C164.244 82.0985 164.151 81.5549 163.965 81.0511C163.78 80.5473 163.494 80.1402 163.107 79.8295C162.721 79.5189 162.229 79.3636 161.63 79.3636C161.032 79.3636 160.539 79.5189 160.153 79.8295C159.767 80.1402 159.481 80.5473 159.295 81.0511C159.109 81.5549 159.017 82.0985 159.017 82.6818C159.017 83.2652 159.109 83.8068 159.295 84.3068C159.481 84.8068 159.767 85.2102 160.153 85.517C160.539 85.8239 161.032 85.9773 161.63 85.9773ZM168.972 81.75V87H167.632V78.2727H168.927V79.6364H169.041C169.245 79.1932 169.556 78.8371 169.972 78.5682C170.389 78.2955 170.927 78.1591 171.586 78.1591C172.177 78.1591 172.694 78.2803 173.137 78.5227C173.58 78.7614 173.925 79.125 174.171 79.6136C174.418 80.0985 174.541 80.7121 174.541 81.4545V87H173.2V81.5455C173.2 80.8598 173.022 80.3258 172.666 79.9432C172.31 79.5568 171.821 79.3636 171.2 79.3636C170.772 79.3636 170.389 79.4564 170.052 79.642C169.719 79.8277 169.455 80.0985 169.262 80.4545C169.069 80.8106 168.972 81.2424 168.972 81.75ZM177.968 87.0909C177.688 87.0909 177.447 86.9905 177.247 86.7898C177.046 86.589 176.945 86.3485 176.945 86.0682C176.945 85.7879 177.046 85.5473 177.247 85.3466C177.447 85.1458 177.688 85.0455 177.968 85.0455C178.249 85.0455 178.489 85.1458 178.69 85.3466C178.891 85.5473 178.991 85.7879 178.991 86.0682C178.991 86.2538 178.944 86.4242 178.849 86.5795C178.758 86.7348 178.635 86.8598 178.48 86.9545C178.328 87.0455 178.158 87.0909 177.968 87.0909Z" fill="black"/>
<circle cx="425.5" cy="81.5" r="62.5" fill="#E7EFFF"/>
<path d="M358.972 141.054C361.166 141.054 362.944 139.275 362.944 137.082C362.944 134.888 361.166 133.109 358.972 133.109C356.778 133.109 355 134.888 355 137.082C355 139.275 356.778 141.054 358.972 141.054Z" fill="#00C99F"/>
<path d="M400.972 12.9445C403.166 12.9445 404.944 11.166 404.944 8.97223C404.944 6.77843 403.166 5 400.972 5C398.778 5 397 6.77843 397 8.97223C397 11.166 398.778 12.9445 400.972 12.9445Z" fill="#FF4D69"/>
<path d="M475.492 20.5656C477.686 20.5656 479.464 18.7871 479.464 16.5933C479.464 14.3995 477.686 12.6211 475.492 12.6211C473.298 12.6211 471.52 14.3995 471.52 16.5933C471.52 18.7871 473.298 20.5656 475.492 20.5656Z" fill="#00C99F"/>
<path d="M494.027 81.4718C496.221 81.4718 497.999 79.6934 497.999 77.4996C497.999 75.3058 496.221 73.5273 494.027 73.5273C491.833 73.5273 490.055 75.3058 490.055 77.4996C490.055 79.6934 491.833 81.4718 494.027 81.4718Z" fill="#FFA100"/>
<path d="M374.86 36.4531H464.898C467.005 36.4531 469.025 37.2901 470.515 38.78C472.005 40.2699 472.842 42.2906 472.842 44.3976V107.953H366.916V44.3976C366.916 42.2906 367.753 40.2699 369.243 38.78C370.733 37.2901 372.753 36.4531 374.86 36.4531Z" fill="#C5B7FB"/>
<path d="M464.898 41.75H374.861C373.399 41.75 372.213 42.9356 372.213 44.3982V100.009C372.213 101.472 373.399 102.658 374.861 102.658H464.898C466.361 102.658 467.546 101.472 467.546 100.009V44.3982C467.546 42.9356 466.361 41.75 464.898 41.75Z" fill="white"/>
<path d="M372.213 97.3594H467.546V100.008C467.546 100.71 467.267 101.383 466.771 101.88C466.274 102.377 465.601 102.656 464.898 102.656H374.861C374.159 102.656 373.485 102.377 372.989 101.88C372.492 101.383 372.213 100.71 372.213 100.008V97.3594Z" fill="#E7EFFF"/>
<path d="M366.916 107.953H472.842V113.249C472.842 115.356 472.005 117.377 470.515 118.867C469.025 120.357 467.005 121.194 464.898 121.194H374.86C372.753 121.194 370.733 120.357 369.243 118.867C367.753 117.377 366.916 115.356 366.916 113.249V107.953Z" fill="#874EE9"/>
<path d="M434.444 134.436H405.314C408.453 129.14 409.287 127.273 409.287 121.195H430.472C430.472 127.074 431.253 129.14 434.444 134.436Z" fill="#5C26B1"/>
<path d="M445.037 137.086C445.037 137.788 444.758 138.462 444.261 138.958C443.765 139.455 443.091 139.734 442.389 139.734H403.885C400.851 138.63 397.903 137.302 395.066 135.762C395.3 135.357 395.636 135.022 396.04 134.79C396.445 134.557 396.904 134.436 397.37 134.438H442.389C443.091 134.438 443.765 134.717 444.261 135.213C444.758 135.71 445.037 136.383 445.037 137.086Z" fill="#874EE9"/>
<path d="M419.881 117.222C421.343 117.222 422.529 116.036 422.529 114.574C422.529 113.111 421.343 111.926 419.881 111.926C418.418 111.926 417.232 113.111 417.232 114.574C417.232 116.036 418.418 117.222 419.881 117.222Z" fill="white"/>
<path d="M419.88 47.0469H380.158C378.695 47.0469 377.51 48.2325 377.51 49.695V73.5284C377.51 74.991 378.695 76.1766 380.158 76.1766H419.88C421.343 76.1766 422.528 74.991 422.528 73.5284V49.695C422.528 48.2325 421.343 47.0469 419.88 47.0469Z" fill="#C5B7FB"/>
<path d="M419.88 45.7227H380.158C379.104 45.7227 378.094 46.1412 377.349 46.8861C376.604 47.631 376.186 48.6414 376.186 49.6949V73.5283C376.186 74.5818 376.604 75.5921 377.349 76.3371C378.094 77.082 379.104 77.5005 380.158 77.5005H419.88C420.934 77.5005 421.944 77.082 422.689 76.3371C423.434 75.5921 423.852 74.5818 423.852 73.5283V49.6949C423.852 48.6414 423.434 47.631 422.689 46.8861C421.944 46.1412 420.934 45.7227 419.88 45.7227ZM421.204 49.9332V73.2899L402.521 61.6116L421.204 49.9332ZM400.019 60.0492L381.336 48.3708H418.702L400.019 60.0492ZM397.516 61.6116L378.834 73.2899V49.9332L397.516 61.6116ZM400.019 63.174L418.702 74.8524H381.336L400.019 63.174Z" fill="#874EE9"/>
<path d="M451.658 48.3708H430.473C430.121 48.3708 429.785 48.2313 429.536 47.983C429.288 47.7347 429.148 47.3979 429.148 47.0467C429.148 46.6956 429.288 46.3588 429.536 46.1105C429.785 45.8622 430.121 45.7227 430.473 45.7227H451.658C452.009 45.7227 452.346 45.8622 452.594 46.1105C452.842 46.3588 452.982 46.6956 452.982 47.0467C452.982 47.3979 452.842 47.7347 452.594 47.983C452.346 48.2313 452.009 48.3708 451.658 48.3708Z" fill="#FF4D69"/>
<path d="M462.25 54.9919H430.473C430.121 54.9919 429.785 54.8524 429.536 54.6041C429.288 54.3558 429.148 54.019 429.148 53.6678C429.148 53.3167 429.288 52.9799 429.536 52.7316C429.785 52.4832 430.121 52.3438 430.473 52.3438H462.25C462.602 52.3438 462.938 52.4832 463.187 52.7316C463.435 52.9799 463.574 53.3167 463.574 53.6678C463.574 54.019 463.435 54.3558 463.187 54.6041C462.938 54.8524 462.602 54.9919 462.25 54.9919ZM462.25 61.6123H430.473C430.121 61.6123 429.785 61.4728 429.536 61.2245C429.288 60.9762 429.148 60.6394 429.148 60.2882C429.148 59.937 429.288 59.6003 429.536 59.3519C429.785 59.1036 430.121 58.9641 430.473 58.9641H462.25C462.602 58.9641 462.938 59.1036 463.187 59.3519C463.435 59.6003 463.574 59.937 463.574 60.2882C463.574 60.6394 463.435 60.9762 463.187 61.2245C462.938 61.4728 462.602 61.6123 462.25 61.6123ZM451.658 68.2327H430.473C430.121 68.2327 429.785 68.0932 429.536 67.8449C429.288 67.5965 429.148 67.2598 429.148 66.9086C429.148 66.5574 429.288 66.2206 429.536 65.9723C429.785 65.724 430.121 65.5845 430.473 65.5845H451.658C452.009 65.5845 452.346 65.724 452.594 65.9723C452.842 66.2206 452.982 66.5574 452.982 66.9086C452.982 67.2598 452.842 67.5965 452.594 67.8449C452.346 68.0932 452.009 68.2327 451.658 68.2327Z" fill="#C5B7FB"/>
<path d="M400.019 84.1208H378.834C378.483 84.1208 378.146 83.9813 377.898 83.733C377.649 83.4847 377.51 83.1479 377.51 82.7967C377.51 82.4456 377.649 82.1088 377.898 81.8605C378.146 81.6122 378.483 81.4727 378.834 81.4727H400.019C400.37 81.4727 400.707 81.6122 400.955 81.8605C401.204 82.1088 401.343 82.4456 401.343 82.7967C401.343 83.1479 401.204 83.4847 400.955 83.733C400.707 83.9813 400.37 84.1208 400.019 84.1208Z" fill="#FFA100"/>
<path d="M384.13 90.7419H378.834C378.483 90.7419 378.146 90.6024 377.898 90.3541C377.649 90.1058 377.51 89.769 377.51 89.4178C377.51 89.0667 377.649 88.7299 377.898 88.4816C378.146 88.2332 378.483 88.0938 378.834 88.0938H384.13C384.481 88.0938 384.818 88.2332 385.066 88.4816C385.315 88.7299 385.454 89.0667 385.454 89.4178C385.454 89.769 385.315 90.1058 385.066 90.3541C384.818 90.6024 384.481 90.7419 384.13 90.7419Z" fill="#C5B7FB"/>
<path d="M459.603 73.5273H438.418C436.955 73.5273 435.77 74.713 435.77 76.1755V89.4163C435.77 90.8788 436.955 92.0644 438.418 92.0644H459.603C461.065 92.0644 462.251 90.8788 462.251 89.4163V76.1755C462.251 74.713 461.065 73.5273 459.603 73.5273Z" fill="#C5B7FB"/>
<path d="M459.601 72.2031H438.416C437.362 72.2031 436.352 72.6216 435.607 73.3666C434.862 74.1115 434.443 75.1219 434.443 76.1754V89.4161C434.443 90.4696 434.862 91.48 435.607 92.2249C436.352 92.9699 437.362 93.3884 438.416 93.3884H459.601C460.654 93.3884 461.665 92.9699 462.41 92.2249C463.155 91.48 463.573 90.4696 463.573 89.4161V76.1754C463.573 75.1219 463.155 74.1115 462.41 73.3666C461.665 72.6216 460.654 72.2031 459.601 72.2031ZM460.925 76.4402V89.1513L451.392 82.7957L460.925 76.4402ZM449.008 81.2068L439.475 74.8513H458.542L449.008 81.2068ZM446.625 82.7957L437.092 89.1513V76.4402L446.625 82.7957ZM449.008 84.3846L458.542 90.7402H439.475L449.008 84.3846Z" fill="#874EE9"/>
<path d="M480.788 90.7422H459.603C455.215 90.7422 451.658 94.299 451.658 98.6867V141.057C451.658 145.445 455.215 149.002 459.603 149.002H480.788C485.176 149.002 488.732 145.445 488.732 141.057V98.6867C488.732 94.299 485.176 90.7422 480.788 90.7422Z" fill="#5C26B1"/>
<path d="M484.759 98.6871V141.058C484.759 142.111 484.34 143.121 483.595 143.866C482.85 144.611 481.84 145.03 480.786 145.03H459.601C458.548 145.03 457.537 144.611 456.792 143.866C456.047 143.121 455.629 142.111 455.629 141.058V98.6871C455.629 97.6336 456.047 96.6232 456.792 95.8783C457.537 95.1333 458.548 94.7148 459.601 94.7148H462.249C462.249 94.7148 464.553 96.701 470.194 96.701C475.834 96.701 478.138 94.7148 478.138 94.7148H480.786C481.84 94.7148 482.85 95.1333 483.595 95.8783C484.34 96.6232 484.759 97.6336 484.759 98.6871Z" fill="white"/>
<path d="M462.25 94.7148H478.139V96.0389C478.139 96.7413 477.86 97.4148 477.363 97.9115C476.867 98.4081 476.193 98.6871 475.491 98.6871H464.898C464.196 98.6871 463.522 98.4081 463.026 97.9115C462.529 97.4148 462.25 96.7413 462.25 96.0389V94.7148Z" fill="#5C26B1"/>
<path d="M478.139 141.054H462.25C461.899 141.054 461.562 140.915 461.314 140.667C461.065 140.418 460.926 140.081 460.926 139.73C460.926 139.379 461.065 139.042 461.314 138.794C461.562 138.546 461.899 138.406 462.25 138.406H478.139C478.49 138.406 478.827 138.546 479.075 138.794C479.323 139.042 479.463 139.379 479.463 139.73C479.463 140.081 479.323 140.418 479.075 140.667C478.827 140.915 478.49 141.054 478.139 141.054Z" fill="#C5B7FB"/>
<path d="M464.898 105.305H462.25C460.787 105.305 459.602 106.49 459.602 107.953V110.601C459.602 112.064 460.787 113.249 462.25 113.249H464.898C466.36 113.249 467.546 112.064 467.546 110.601V107.953C467.546 106.49 466.36 105.305 464.898 105.305Z" fill="#00C99F"/>
<path d="M478.14 105.305H475.492C474.029 105.305 472.844 106.49 472.844 107.953V110.601C472.844 112.064 474.029 113.249 475.492 113.249H478.14C479.603 113.249 480.788 112.064 480.788 110.601V107.953C480.788 106.49 479.603 105.305 478.14 105.305Z" fill="#FFA100"/>
<path d="M464.898 117.223H462.25C460.787 117.223 459.602 118.408 459.602 119.871V122.519C459.602 123.981 460.787 125.167 462.25 125.167H464.898C466.36 125.167 467.546 123.981 467.546 122.519V119.871C467.546 118.408 466.36 117.223 464.898 117.223Z" fill="#FF4D69"/>
<path d="M478.14 117.223H475.492C474.029 117.223 472.844 118.408 472.844 119.871V122.519C472.844 123.981 474.029 125.167 475.492 125.167H478.14C479.603 125.167 480.788 123.981 480.788 122.519V119.871C480.788 118.408 479.603 117.223 478.14 117.223Z" fill="#00C99F"/>
</svg>
