<svg width="120" height="127" viewBox="0 0 120 127" fill="none" xmlns="http://www.w3.org/2000/svg">
<path d="M95.3148 21.7722L94.2284 19.3717L88.9165 4.77894C88.2535 2.95724 86.9209 1.50294 85.164 0.683634C83.4069 -0.135427 81.4366 -0.221423 79.6149 0.441415C77.7932 1.1045 76.3389 2.43707 75.5196 4.19397C74.7005 5.95086 74.6145 7.92163 75.2774 9.74308L76.3189 12.6049C77.3905 15.5487 80.1804 17.3803 83.1457 17.3803C83.9679 17.3803 84.8042 17.2393 85.6203 16.9424C86.7734 16.5252 87.8011 15.8211 88.6066 14.8965C88.6066 14.8965 90.7616 20.8105 90.7811 20.8539L91.8968 23.3192C91.9972 23.5455 92.1414 23.7496 92.321 23.9199C92.5007 24.0902 92.7122 24.2233 92.9435 24.3115C93.1748 24.3996 93.4213 24.4411 93.6687 24.4336C93.9161 24.4261 94.1596 24.3697 94.3851 24.2676C94.6107 24.1655 94.8137 24.0198 94.9827 23.8389C95.1516 23.658 95.2831 23.4454 95.3695 23.2135C95.4559 22.9815 95.4956 22.7347 95.4862 22.4874C95.4768 22.24 95.4185 21.997 95.3148 21.7722ZM86.3164 11.6044C86.1229 12.0224 85.8484 12.3978 85.5088 12.709C85.1692 13.0202 84.7713 13.2609 84.338 13.4173C82.521 14.0784 80.5054 13.1386 79.844 11.3218L78.8025 8.46003C78.6438 8.02762 78.5724 7.56803 78.5925 7.10785C78.6125 6.64767 78.7237 6.19604 78.9195 5.77911C79.1131 5.36117 79.3876 4.98576 79.7272 4.6746C80.0668 4.36343 80.4647 4.12269 80.8979 3.96628C81.2829 3.82552 81.6895 3.75329 82.0994 3.75289C82.6045 3.75289 83.1077 3.86329 83.5791 4.08308C83.997 4.27666 84.3724 4.55118 84.6836 4.89077C84.9948 5.23036 85.2355 5.62827 85.3919 6.06149L85.7485 7.04146C85.7507 7.04786 85.7519 7.05427 85.7544 7.06043L86.4379 8.93806C86.594 9.36865 86.6637 9.82581 86.6428 10.2834C86.622 10.7409 86.5111 11.1898 86.3164 11.6044Z" fill="#AD7FDD"/>
<path d="M114.69 4.19432C113.87 2.43743 112.416 1.10486 110.594 0.441772C106.835 -0.926286 102.662 1.01886 101.293 4.7793L95.2228 21.2776C95.0422 21.7388 95.0515 22.2528 95.2485 22.7073C95.4455 23.1618 95.8143 23.5199 96.2744 23.7034C96.7345 23.887 97.2485 23.8811 97.7043 23.687C98.16 23.4929 98.5205 23.1264 98.707 22.6675C98.707 22.6675 99.4753 20.7404 99.482 20.7224L101.603 14.8968C102.408 15.8214 103.436 16.5254 104.589 16.9425C105.386 17.2336 106.227 17.383 107.075 17.3838C108.121 17.3838 109.162 17.1549 110.138 16.7003C111.895 15.881 113.227 14.4267 113.89 12.605L114.932 9.74344C115.595 7.92199 115.509 5.95121 114.69 4.19432ZM111.407 8.46063L110.366 11.3224C110.045 12.2023 109.402 12.9051 108.553 13.3008C107.704 13.6966 106.752 13.7382 105.872 13.4179C104.992 13.0975 104.289 12.4537 103.894 11.6051C103.502 10.7701 103.457 9.8138 103.77 8.94606L104.456 7.06128C104.459 7.05291 104.461 7.04428 104.464 7.0359L104.818 6.06234C105.336 4.64008 106.684 3.75498 108.117 3.75498C108.514 3.75498 108.918 3.82323 109.312 3.96664C109.746 4.12302 110.144 4.36376 110.483 4.67493C110.823 4.98609 111.097 5.36152 111.291 5.77947C111.486 6.19651 111.597 6.64819 111.617 7.10839C111.637 7.56859 111.566 8.02819 111.407 8.46063Z" fill="#AD7FDD"/>
<path d="M97.5267 24.3086C119.883 33.5287 113.283 53.7714 109.914 61.2218C109.418 62.319 107.841 62.2584 107.429 61.1269L94.4375 25.433L97.5267 24.3086Z" fill="#E5D5F5"/>
<path d="M112.901 81.754C102.239 94.9862 86.5712 107.564 68.5398 103.174C61.2803 101.406 55.1031 96.4612 52.0213 89.9015C50.7885 87.2825 50.0483 84.4051 49.9325 81.3691C49.6257 73.3372 53.2837 65.6015 51.717 57.5267C50.172 49.5729 44.6219 42.7873 36.5577 40.9705C34.5658 40.5211 32.5203 40.3811 30.4961 40.5344C25.1424 41.864 20.3189 45.1262 17.3177 51.8581C15.3151 56.3449 14.1227 62.3797 14.1227 70.4114C14.1227 72.4866 14.3704 74.4756 14.8225 76.368C10.3463 74.3601 6.52968 70.7667 4.05327 66.4871C0.538014 60.4121 -0.479405 53.1177 0.196246 46.133C0.955183 38.276 3.92687 30.4247 9.59278 24.9284C16.2707 18.4441 26.0708 15.879 35.357 16.4793C44.6458 17.0768 53.5254 20.5408 61.8212 24.7613C70.1168 28.9845 77.9979 33.9989 86.3824 38.0338C95.4264 42.3888 108.058 46.1463 117.035 39.8614C117.95 39.2181 119.223 39.7619 119.414 40.8653C121.575 53.3841 117.667 67.0225 109.135 76.4191C108.311 77.3234 108.809 78.7769 110.017 78.9706C110.655 79.0702 111.296 79.1805 111.934 79.2801C113.102 79.4607 113.644 80.8335 112.901 81.754Z" fill="#6A61B2"/>
<path d="M111.933 79.2763C111.295 79.1767 110.655 79.0664 110.017 78.9668C108.808 78.7729 108.31 77.3196 109.134 76.4153C117.667 67.0187 121.575 53.3803 119.414 40.8615C119.222 39.7578 117.949 39.2143 117.034 39.8576C115.461 40.9588 113.776 41.7508 112.018 42.2862C113.927 54.6185 110.012 67.9373 101.632 77.1656C100.809 78.0699 101.307 79.5234 102.515 79.7171C103.153 79.8167 103.794 79.9271 104.431 80.0266C105.6 80.207 106.141 81.5797 105.398 82.5003C97.6454 92.1218 87.2452 101.395 75.2148 104.053C90.4264 104.39 103.577 93.3206 112.9 81.75C113.643 80.8292 113.102 79.4567 111.933 79.2763Z" fill="#5F55AD"/>
<path d="M47.5969 105.756V89.0039H26.8924V105.756C26.8925 106.194 26.7517 106.62 26.4909 106.972C26.2301 107.323 25.8631 107.581 25.4443 107.708C17.4961 110.115 4.49219 112.463 4.49219 123.379V124.554C4.49219 124.981 4.66174 125.39 4.96354 125.692C5.26534 125.993 5.67467 126.163 6.10148 126.163H68.3878C68.8146 126.163 69.224 125.993 69.5258 125.692C69.8276 125.39 69.9971 124.981 69.9971 124.554V123.379C69.9971 112.463 56.9932 110.115 49.045 107.708C48.6261 107.581 48.2592 107.323 47.9984 106.972C47.7376 106.62 47.5968 106.194 47.5969 105.756Z" fill="#FFCDBE"/>
<path d="M49.0457 107.708C48.6268 107.581 48.2598 107.323 47.999 106.972C47.7382 106.62 47.5975 106.194 47.5975 105.756V89.0039H40.8457V107.257C40.8456 107.694 40.9864 108.12 41.2472 108.472C41.508 108.823 41.875 109.081 42.2938 109.208C50.242 111.616 63.2459 112.463 63.2459 123.379V124.553C63.2459 124.98 63.0764 125.39 62.7746 125.691C62.4728 125.993 62.0635 126.163 61.6366 126.163H68.3885C68.8153 126.163 69.2246 125.993 69.5264 125.691C69.8282 125.39 69.9978 124.98 69.9978 124.553V123.379C69.9978 112.463 56.9938 110.115 49.0457 107.708Z" fill="#EBAE9D"/>
<path d="M15.7207 79.7834C22.0235 79.7834 27.1329 75.6923 27.1329 70.6456C27.1329 65.5989 22.0235 61.5078 15.7207 61.5078C9.41799 61.5078 4.30859 65.5989 4.30859 70.6456C4.30859 75.6923 9.41799 79.7834 15.7207 79.7834Z" fill="#EBAE9D"/>
<path d="M49.9323 81.3713C50.0481 84.4075 50.7883 87.2848 52.0211 89.9036C47.1413 94.9153 41.1846 97.8089 37.244 97.8089C30.5176 97.8089 17.9155 89.3788 14.8228 76.3702C14.3567 74.4189 14.1218 72.4196 14.1231 70.4135C14.1231 62.3816 15.3154 56.347 17.318 51.8602C20.3192 45.1283 25.1427 41.8661 30.4964 40.5365C32.5204 40.383 34.5661 40.5229 36.558 40.9726C44.6222 42.7894 50.1723 49.575 51.7173 57.5288C53.2832 65.6039 49.6253 73.3396 49.9323 81.3713Z" fill="#FFCDBE"/>
<path d="M31.7592 95.9197C31.3088 95.9197 30.8305 95.8781 30.3301 95.7978C32.8774 97.1069 35.3053 97.8089 37.2445 97.8089C41.1851 97.8089 47.1418 94.9154 52.0216 89.9037C50.9631 87.655 50.2692 85.2153 50.0203 82.6484C45.1165 90.9043 36.7505 95.9197 31.7592 95.9197Z" fill="#EBAE9D"/>
<path d="M92.684 24.3086C70.3273 33.5287 76.9279 53.7714 80.2968 61.2218C80.793 62.319 82.3698 62.2584 82.7816 61.1269L95.7729 25.4332L92.684 24.3086Z" fill="#F2EAFA"/>
<path d="M95.1059 30.1571C98.0768 30.1571 100.485 27.7487 100.485 24.7778C100.485 21.8068 98.0768 19.3984 95.1059 19.3984C92.135 19.3984 89.7266 21.8068 89.7266 24.7778C89.7266 27.7487 92.135 30.1571 95.1059 30.1571Z" fill="#92E0C4"/>
<path d="M63.2053 65.9931C60.8146 58.1061 53.8703 47.7983 46.3857 44.1998C45.473 43.7622 43.91 43.177 41.8794 43.0695C44.9851 44.8875 47.4883 47.5581 49.2462 50.7165C53.9551 54.9976 58.0036 61.762 59.6141 67.081C59.7309 67.4663 59.9685 67.8039 60.2918 68.0439C60.6151 68.2839 61.007 68.4136 61.4097 68.4138C61.5898 68.4138 61.7724 68.3862 61.9523 68.3313C62.1881 68.2601 62.4076 68.1431 62.5982 67.9871C62.7889 67.831 62.9469 67.639 63.0632 67.4218C63.1796 67.2047 63.252 66.9667 63.2764 66.7216C63.3008 66.4765 63.2766 66.2289 63.2053 65.9931ZM57.5664 37.3427C48.4215 31.0061 38.2963 29.8458 29.7866 34.152C23.2874 37.4428 18.8387 43.617 18.166 50.1338C20.0316 46.6905 22.4373 44.2998 25.1529 42.6893C26.7809 40.5887 28.9414 38.7857 31.4822 37.5004C38.7241 33.8319 47.4538 34.8999 55.4311 40.4263C56.2814 41.0164 57.4492 40.8038 58.0393 39.9537C58.3225 39.5446 58.4317 39.0399 58.3431 38.5504C58.2544 38.0608 57.9751 37.6265 57.5664 37.3427Z" fill="#5F55AD"/>
</svg>
