<svg width="481" height="139" viewBox="0 0 481 139" fill="none" xmlns="http://www.w3.org/2000/svg">
<rect width="481" height="113" rx="9.99458" fill="#FAF6FF"/>
<path d="M161.339 28.4531C161.273 27.8329 160.994 27.3499 160.501 27.0043C160.014 26.6586 159.379 26.4858 158.598 26.4858C158.049 26.4858 157.578 26.5687 157.185 26.7344C156.792 26.9001 156.491 27.125 156.283 27.4091C156.074 27.6932 155.968 28.0175 155.963 28.3821C155.963 28.6851 156.032 28.9479 156.169 29.1705C156.311 29.393 156.503 29.5824 156.744 29.7386C156.986 29.8902 157.253 30.018 157.547 30.1222C157.84 30.2263 158.136 30.3139 158.435 30.3849L159.798 30.7259C160.348 30.8537 160.875 31.0265 161.382 31.2443C161.893 31.4621 162.35 31.7367 162.753 32.0682C163.16 32.3996 163.482 32.7997 163.719 33.2685C163.955 33.7372 164.074 34.2865 164.074 34.9162C164.074 35.7685 163.856 36.5189 163.42 37.1676C162.985 37.8116 162.355 38.3158 161.531 38.6804C160.712 39.0402 159.72 39.2202 158.555 39.2202C157.424 39.2202 156.441 39.045 155.608 38.6946C154.779 38.3442 154.131 37.8329 153.662 37.1605C153.198 36.4882 152.947 35.669 152.909 34.7031H155.501C155.539 35.2098 155.696 35.6312 155.97 35.9673C156.245 36.3035 156.602 36.5545 157.043 36.7202C157.488 36.8859 157.985 36.9688 158.534 36.9688C159.107 36.9688 159.609 36.8835 160.04 36.7131C160.475 36.5379 160.816 36.2964 161.062 35.9886C161.309 35.6761 161.434 35.3116 161.439 34.8949C161.434 34.5161 161.323 34.2036 161.105 33.9574C160.887 33.7064 160.582 33.4981 160.189 33.3324C159.801 33.1619 159.346 33.0104 158.825 32.8778L157.17 32.4517C155.973 32.1439 155.026 31.6776 154.33 31.0526C153.638 30.4228 153.293 29.5871 153.293 28.5455C153.293 27.6884 153.525 26.938 153.989 26.294C154.457 25.6501 155.094 25.1506 155.899 24.7955C156.704 24.4356 157.616 24.2557 158.634 24.2557C159.666 24.2557 160.57 24.4356 161.347 24.7955C162.128 25.1506 162.741 25.6454 163.186 26.2798C163.631 26.9096 163.861 27.634 163.875 28.4531H161.339ZM171.757 28.0909V30.0795H165.485V28.0909H171.757ZM167.034 25.4773H169.605V35.7188C169.605 36.0644 169.657 36.3295 169.761 36.5142C169.87 36.6941 170.012 36.8172 170.187 36.8835C170.362 36.9498 170.556 36.983 170.77 36.983C170.931 36.983 171.077 36.9711 171.21 36.9474C171.347 36.9238 171.451 36.9025 171.522 36.8835L171.956 38.8935C171.818 38.9408 171.622 38.9929 171.366 39.0497C171.115 39.1065 170.807 39.1397 170.443 39.1491C169.799 39.1681 169.219 39.071 168.703 38.858C168.187 38.6402 167.777 38.304 167.474 37.8494C167.176 37.3949 167.029 36.8267 167.034 36.1449V25.4773ZM177.046 39.2202C176.355 39.2202 175.732 39.0971 175.178 38.8509C174.629 38.5999 174.193 38.2306 173.871 37.7429C173.554 37.2552 173.396 36.6539 173.396 35.9389C173.396 35.3234 173.509 34.8144 173.737 34.4119C173.964 34.0095 174.274 33.6875 174.667 33.446C175.06 33.2045 175.503 33.0223 175.995 32.8991C176.492 32.7713 177.006 32.679 177.536 32.6222C178.175 32.5559 178.694 32.4967 179.092 32.4446C179.489 32.3878 179.778 32.3026 179.958 32.1889C180.143 32.0705 180.235 31.8883 180.235 31.642V31.5994C180.235 31.0644 180.076 30.6501 179.759 30.3565C179.442 30.063 178.985 29.9162 178.388 29.9162C177.759 29.9162 177.259 30.0535 176.89 30.3281C176.525 30.6027 176.279 30.9271 176.151 31.3011L173.751 30.9602C173.94 30.2973 174.253 29.7434 174.688 29.2983C175.124 28.8485 175.656 28.5123 176.286 28.2898C176.916 28.0625 177.612 27.9489 178.374 27.9489C178.9 27.9489 179.423 28.0104 179.944 28.1335C180.465 28.2566 180.941 28.4602 181.371 28.7443C181.802 29.0237 182.148 29.4048 182.408 29.8878C182.674 30.3707 182.806 30.9744 182.806 31.6989V39H180.335V37.5014H180.249C180.093 37.8045 179.873 38.0885 179.589 38.3537C179.309 38.6141 178.957 38.8248 178.531 38.9858C178.109 39.142 177.614 39.2202 177.046 39.2202ZM177.714 37.331C178.23 37.331 178.677 37.2292 179.056 37.0256C179.435 36.8172 179.726 36.5426 179.93 36.2017C180.138 35.8608 180.242 35.4891 180.242 35.0866V33.8011C180.162 33.8674 180.024 33.929 179.83 33.9858C179.641 34.0426 179.428 34.0923 179.191 34.1349C178.954 34.1776 178.72 34.2154 178.488 34.2486C178.256 34.2817 178.055 34.3101 177.884 34.3338C177.501 34.3859 177.157 34.4711 176.854 34.5895C176.551 34.7079 176.312 34.8736 176.137 35.0866C175.962 35.295 175.874 35.5649 175.874 35.8963C175.874 36.3698 176.047 36.7273 176.393 36.9688C176.738 37.2102 177.179 37.331 177.714 37.331ZM186.599 43.0909C186.248 43.0909 185.924 43.0625 185.626 43.0057C185.332 42.9536 185.098 42.892 184.923 42.821L185.519 40.8182C185.893 40.9271 186.227 40.9792 186.521 40.9744C186.814 40.9697 187.072 40.8774 187.295 40.6974C187.522 40.5223 187.714 40.2287 187.87 39.8168L188.09 39.2273L184.134 28.0909H186.862L189.376 36.3295H189.489L192.011 28.0909H194.745L190.377 40.321C190.174 40.8987 189.904 41.3935 189.567 41.8054C189.231 42.2221 188.819 42.5393 188.332 42.7571C187.849 42.9796 187.271 43.0909 186.599 43.0909ZM210.768 24.4545H213.403V33.9574C213.403 34.9991 213.156 35.9152 212.664 36.706C212.176 37.4967 211.49 38.1146 210.604 38.5597C209.719 39 208.684 39.2202 207.501 39.2202C206.312 39.2202 205.275 39 204.39 38.5597C203.504 38.1146 202.818 37.4967 202.33 36.706C201.843 35.9152 201.599 34.9991 201.599 33.9574V24.4545H204.234V33.7372C204.234 34.3433 204.366 34.883 204.631 35.3565C204.901 35.83 205.28 36.2017 205.768 36.4716C206.255 36.7367 206.833 36.8693 207.501 36.8693C208.168 36.8693 208.746 36.7367 209.234 36.4716C209.726 36.2017 210.105 35.83 210.37 35.3565C210.635 34.883 210.768 34.3433 210.768 33.7372V24.4545ZM216.153 43.0909V28.0909H218.681V29.8949H218.831C218.963 29.6297 219.15 29.348 219.392 29.0497C219.633 28.7467 219.96 28.4886 220.372 28.2756C220.784 28.0578 221.309 27.9489 221.949 27.9489C222.791 27.9489 223.551 28.1643 224.228 28.5952C224.91 29.0213 225.45 29.6534 225.848 30.4915C226.25 31.3248 226.451 32.3475 226.451 33.5597C226.451 34.7576 226.255 35.7756 225.862 36.6136C225.469 37.4517 224.934 38.0909 224.257 38.5312C223.58 38.9716 222.813 39.1918 221.956 39.1918C221.331 39.1918 220.812 39.0876 220.4 38.8793C219.988 38.6709 219.657 38.42 219.406 38.1264C219.16 37.8281 218.968 37.5464 218.831 37.2812H218.724V43.0909H216.153ZM218.674 33.5455C218.674 34.2509 218.774 34.8688 218.973 35.3991C219.176 35.9295 219.467 36.3437 219.846 36.642C220.23 36.9356 220.694 37.0824 221.238 37.0824C221.806 37.0824 222.282 36.9309 222.666 36.6278C223.049 36.3201 223.338 35.901 223.532 35.3707C223.731 34.8357 223.831 34.2273 223.831 33.5455C223.831 32.8684 223.734 32.267 223.539 31.7415C223.345 31.2159 223.056 30.804 222.673 30.5057C222.289 30.2074 221.811 30.0582 221.238 30.0582C220.689 30.0582 220.223 30.2027 219.839 30.4915C219.456 30.7803 219.164 31.1851 218.966 31.706C218.771 32.2268 218.674 32.84 218.674 33.5455ZM232.701 39.1918C231.844 39.1918 231.077 38.9716 230.4 38.5312C229.723 38.0909 229.188 37.4517 228.795 36.6136C228.402 35.7756 228.206 34.7576 228.206 33.5597C228.206 32.3475 228.404 31.3248 228.802 30.4915C229.205 29.6534 229.747 29.0213 230.429 28.5952C231.11 28.1643 231.87 27.9489 232.708 27.9489C233.348 27.9489 233.873 28.0578 234.285 28.2756C234.697 28.4886 235.024 28.7467 235.265 29.0497C235.507 29.348 235.694 29.6297 235.826 29.8949H235.933V24.4545H238.511V39H235.983V37.2812H235.826C235.694 37.5464 235.502 37.8281 235.251 38.1264C235 38.42 234.669 38.6709 234.257 38.8793C233.845 39.0876 233.326 39.1918 232.701 39.1918ZM233.419 37.0824C233.963 37.0824 234.427 36.9356 234.811 36.642C235.194 36.3437 235.485 35.9295 235.684 35.3991C235.883 34.8688 235.983 34.2509 235.983 33.5455C235.983 32.84 235.883 32.2268 235.684 31.706C235.49 31.1851 235.201 30.7803 234.818 30.4915C234.439 30.2027 233.973 30.0582 233.419 30.0582C232.846 30.0582 232.368 30.2074 231.984 30.5057C231.6 30.804 231.312 31.2159 231.118 31.7415C230.923 32.267 230.826 32.8684 230.826 33.5455C230.826 34.2273 230.923 34.8357 231.118 35.3707C231.316 35.901 231.608 36.3201 231.991 36.6278C232.379 36.9309 232.855 37.0824 233.419 37.0824ZM244.39 39.2202C243.699 39.2202 243.076 39.0971 242.522 38.8509C241.973 38.5999 241.537 38.2306 241.215 37.7429C240.898 37.2552 240.739 36.6539 240.739 35.9389C240.739 35.3234 240.853 34.8144 241.08 34.4119C241.308 34.0095 241.618 33.6875 242.011 33.446C242.404 33.2045 242.846 33.0223 243.339 32.8991C243.836 32.7713 244.35 32.679 244.88 32.6222C245.519 32.5559 246.038 32.4967 246.435 32.4446C246.833 32.3878 247.122 32.3026 247.302 32.1889C247.487 32.0705 247.579 31.8883 247.579 31.642V31.5994C247.579 31.0644 247.42 30.6501 247.103 30.3565C246.786 30.063 246.329 29.9162 245.732 29.9162C245.103 29.9162 244.603 30.0535 244.234 30.3281C243.869 30.6027 243.623 30.9271 243.495 31.3011L241.094 30.9602C241.284 30.2973 241.596 29.7434 242.032 29.2983C242.468 28.8485 243 28.5123 243.63 28.2898C244.26 28.0625 244.956 27.9489 245.718 27.9489C246.244 27.9489 246.767 28.0104 247.288 28.1335C247.808 28.2566 248.284 28.4602 248.715 28.7443C249.146 29.0237 249.492 29.4048 249.752 29.8878C250.017 30.3707 250.15 30.9744 250.15 31.6989V39H247.678V37.5014H247.593C247.437 37.8045 247.217 38.0885 246.933 38.3537C246.653 38.6141 246.3 38.8248 245.874 38.9858C245.453 39.142 244.958 39.2202 244.39 39.2202ZM245.058 37.331C245.574 37.331 246.021 37.2292 246.4 37.0256C246.779 36.8172 247.07 36.5426 247.273 36.2017C247.482 35.8608 247.586 35.4891 247.586 35.0866V33.8011C247.505 33.8674 247.368 33.929 247.174 33.9858C246.985 34.0426 246.772 34.0923 246.535 34.1349C246.298 34.1776 246.064 34.2154 245.832 34.2486C245.6 34.2817 245.398 34.3101 245.228 34.3338C244.844 34.3859 244.501 34.4711 244.198 34.5895C243.895 34.7079 243.656 34.8736 243.481 35.0866C243.306 35.295 243.218 35.5649 243.218 35.8963C243.218 36.3698 243.391 36.7273 243.737 36.9688C244.082 37.2102 244.522 37.331 245.058 37.331ZM258.183 28.0909V30.0795H251.911V28.0909H258.183ZM253.46 25.4773H256.031V35.7188C256.031 36.0644 256.083 36.3295 256.187 36.5142C256.296 36.6941 256.438 36.8172 256.613 36.8835C256.788 36.9498 256.982 36.983 257.195 36.983C257.356 36.983 257.503 36.9711 257.636 36.9474C257.773 36.9238 257.877 36.9025 257.948 36.8835L258.381 38.8935C258.244 38.9408 258.048 38.9929 257.792 39.0497C257.541 39.1065 257.233 39.1397 256.869 39.1491C256.225 39.1681 255.645 39.071 255.129 38.858C254.612 38.6402 254.203 38.304 253.9 37.8494C253.602 37.3949 253.455 36.8267 253.46 36.1449V25.4773ZM265.045 39.2131C263.951 39.2131 263.007 38.9858 262.211 38.5312C261.421 38.072 260.812 37.4233 260.386 36.5852C259.96 35.7424 259.747 34.7505 259.747 33.6094C259.747 32.4872 259.96 31.5024 260.386 30.6548C260.817 29.8026 261.418 29.1397 262.19 28.6662C262.962 28.188 263.868 27.9489 264.91 27.9489C265.583 27.9489 266.217 28.0578 266.814 28.2756C267.415 28.4886 267.945 28.8201 268.404 29.2699C268.868 29.7197 269.233 30.2926 269.498 30.9886C269.763 31.6799 269.896 32.5038 269.896 33.4602V34.2486H260.954V32.5156H267.431C267.427 32.0232 267.32 31.5852 267.112 31.2017C266.904 30.8134 266.612 30.508 266.238 30.2855C265.869 30.063 265.438 29.9517 264.946 29.9517C264.42 29.9517 263.958 30.0795 263.561 30.3352C263.163 30.5862 262.853 30.9176 262.63 31.3295C262.413 31.7367 262.301 32.1842 262.297 32.6719V34.1847C262.297 34.8191 262.413 35.3636 262.645 35.8182C262.877 36.268 263.201 36.6136 263.618 36.8551C264.034 37.0919 264.522 37.2102 265.081 37.2102C265.455 37.2102 265.793 37.1581 266.096 37.054C266.399 36.9451 266.662 36.7865 266.885 36.5781C267.107 36.3698 267.275 36.1117 267.389 35.804L269.789 36.0739C269.638 36.7083 269.349 37.2623 268.923 37.7358C268.502 38.2045 267.962 38.5691 267.304 38.8295C266.645 39.0852 265.893 39.2131 265.045 39.2131ZM276.119 39.1918C275.262 39.1918 274.495 38.9716 273.818 38.5312C273.141 38.0909 272.606 37.4517 272.213 36.6136C271.82 35.7756 271.624 34.7576 271.624 33.5597C271.624 32.3475 271.822 31.3248 272.22 30.4915C272.623 29.6534 273.165 29.0213 273.847 28.5952C274.528 28.1643 275.288 27.9489 276.126 27.9489C276.766 27.9489 277.291 28.0578 277.703 28.2756C278.115 28.4886 278.442 28.7467 278.683 29.0497C278.925 29.348 279.112 29.6297 279.244 29.8949H279.351V24.4545H281.929V39H279.401V37.2812H279.244C279.112 37.5464 278.92 37.8281 278.669 38.1264C278.418 38.42 278.087 38.6709 277.675 38.8793C277.263 39.0876 276.744 39.1918 276.119 39.1918ZM276.837 37.0824C277.381 37.0824 277.845 36.9356 278.229 36.642C278.612 36.3437 278.903 35.9295 279.102 35.3991C279.301 34.8688 279.401 34.2509 279.401 33.5455C279.401 32.84 279.301 32.2268 279.102 31.706C278.908 31.1851 278.619 30.7803 278.236 30.4915C277.857 30.2027 277.391 30.0582 276.837 30.0582C276.264 30.0582 275.786 30.2074 275.402 30.5057C275.018 30.804 274.73 31.2159 274.536 31.7415C274.341 32.267 274.244 32.8684 274.244 33.5455C274.244 34.2273 274.341 34.8357 274.536 35.3707C274.734 35.901 275.026 36.3201 275.409 36.6278C275.797 36.9309 276.273 37.0824 276.837 37.0824ZM291.881 39L288.799 28.0909H291.419L293.337 35.7614H293.436L295.397 28.0909H297.989L299.949 35.7188H300.056L301.945 28.0909H304.573L301.483 39H298.806L296.76 31.6278H296.611L294.566 39H291.881ZM306.368 39V28.0909H308.939V39H306.368ZM307.661 26.5426C307.253 26.5426 306.903 26.4077 306.609 26.1378C306.316 25.8632 306.169 25.5341 306.169 25.1506C306.169 24.7623 306.316 24.4332 306.609 24.1634C306.903 23.8887 307.253 23.7514 307.661 23.7514C308.072 23.7514 308.423 23.8887 308.712 24.1634C309.005 24.4332 309.152 24.7623 309.152 25.1506C309.152 25.5341 309.005 25.8632 308.712 26.1378C308.423 26.4077 308.072 26.5426 307.661 26.5426ZM317.03 28.0909V30.0795H310.759V28.0909H317.03ZM312.307 25.4773H314.878V35.7188C314.878 36.0644 314.93 36.3295 315.034 36.5142C315.143 36.6941 315.285 36.8172 315.461 36.8835C315.636 36.9498 315.83 36.983 316.043 36.983C316.204 36.983 316.351 36.9711 316.483 36.9474C316.621 36.9238 316.725 36.9025 316.796 36.8835L317.229 38.8935C317.092 38.9408 316.895 38.9929 316.64 39.0497C316.389 39.1065 316.081 39.1397 315.716 39.1491C315.072 39.1681 314.492 39.071 313.976 38.858C313.46 38.6402 313.051 38.304 312.748 37.8494C312.449 37.3949 312.302 36.8267 312.307 36.1449V25.4773ZM321.986 32.608V39H319.415V24.4545H321.929V29.9446H322.057C322.313 29.3291 322.708 28.8437 323.243 28.4886C323.783 28.1288 324.469 27.9489 325.303 27.9489C326.06 27.9489 326.721 28.1075 327.284 28.4247C327.848 28.742 328.283 29.206 328.591 29.8168C328.903 30.4276 329.06 31.1733 329.06 32.054V39H326.489V32.4517C326.489 31.7178 326.299 31.1473 325.92 30.7401C325.546 30.3281 325.021 30.1222 324.344 30.1222C323.889 30.1222 323.482 30.2216 323.122 30.4205C322.767 30.6146 322.488 30.8963 322.284 31.2656C322.085 31.6349 321.986 32.0824 321.986 32.608ZM408.545 39H405.732L410.853 24.4545H414.106L419.234 39H416.421L412.536 27.4375H412.423L408.545 39ZM408.637 33.2969H416.308V35.4134H408.637V33.2969ZM423.607 24.4545V39H421.036V24.4545H423.607ZM431.08 39.2131C429.987 39.2131 429.042 38.9858 428.246 38.5312C427.456 38.072 426.847 37.4233 426.421 36.5852C425.995 35.7424 425.782 34.7505 425.782 33.6094C425.782 32.4872 425.995 31.5024 426.421 30.6548C426.852 29.8026 427.453 29.1397 428.225 28.6662C428.997 28.188 429.904 27.9489 430.945 27.9489C431.618 27.9489 432.252 28.0578 432.849 28.2756C433.45 28.4886 433.98 28.8201 434.44 29.2699C434.904 29.7197 435.268 30.2926 435.533 30.9886C435.799 31.6799 435.931 32.5038 435.931 33.4602V34.2486H426.989V32.5156H433.467C433.462 32.0232 433.355 31.5852 433.147 31.2017C432.939 30.8134 432.647 30.508 432.273 30.2855C431.904 30.063 431.473 29.9517 430.981 29.9517C430.455 29.9517 429.994 30.0795 429.596 30.3352C429.198 30.5862 428.888 30.9176 428.665 31.3295C428.448 31.7367 428.336 32.1842 428.332 32.6719V34.1847C428.332 34.8191 428.448 35.3636 428.68 35.8182C428.912 36.268 429.236 36.6136 429.653 36.8551C430.069 37.0919 430.557 37.2102 431.116 37.2102C431.49 37.2102 431.828 37.1581 432.131 37.054C432.434 36.9451 432.697 36.7865 432.92 36.5781C433.142 36.3698 433.31 36.1117 433.424 35.804L435.825 36.0739C435.673 36.7083 435.384 37.2623 434.958 37.7358C434.537 38.2045 433.997 38.5691 433.339 38.8295C432.681 39.0852 431.928 39.2131 431.08 39.2131ZM438.106 39V28.0909H440.599V29.9091H440.713C440.912 29.2794 441.252 28.794 441.735 28.4531C442.223 28.1075 442.779 27.9347 443.404 27.9347C443.547 27.9347 443.705 27.9418 443.88 27.956C444.06 27.9654 444.209 27.982 444.328 28.0057V30.3707C444.219 30.3329 444.046 30.2997 443.809 30.2713C443.577 30.2382 443.352 30.2216 443.135 30.2216C442.666 30.2216 442.244 30.3234 441.87 30.527C441.501 30.7259 441.21 31.0028 440.997 31.358C440.784 31.7131 440.677 32.1226 440.677 32.5866V39H438.106ZM452.069 28.0909V30.0795H445.798V28.0909H452.069ZM447.346 25.4773H449.917V35.7188C449.917 36.0644 449.969 36.3295 450.074 36.5142C450.182 36.6941 450.324 36.8172 450.5 36.8835C450.675 36.9498 450.869 36.983 451.082 36.983C451.243 36.983 451.39 36.9711 451.522 36.9474C451.66 36.9238 451.764 36.9025 451.835 36.8835L452.268 38.8935C452.131 38.9408 451.934 38.9929 451.679 39.0497C451.428 39.1065 451.12 39.1397 450.755 39.1491C450.111 39.1681 449.531 39.071 449.015 38.858C448.499 38.6402 448.09 38.304 447.787 37.8494C447.488 37.3949 447.342 36.8267 447.346 36.1449V25.4773ZM462.685 30.9744L460.342 31.2301C460.275 30.9934 460.159 30.7708 459.994 30.5625C459.833 30.3542 459.615 30.1861 459.34 30.0582C459.066 29.9304 458.729 29.8665 458.332 29.8665C457.797 29.8665 457.347 29.9825 456.982 30.2145C456.622 30.4465 456.445 30.7472 456.45 31.1165C456.445 31.4337 456.561 31.6918 456.798 31.8906C457.039 32.0895 457.437 32.2528 457.991 32.3807L459.852 32.7784C460.884 33.0009 461.651 33.3537 462.153 33.8366C462.659 34.3196 462.915 34.9517 462.92 35.733C462.915 36.4195 462.714 37.0256 462.316 37.5511C461.923 38.072 461.376 38.4792 460.675 38.7727C459.975 39.0663 459.17 39.2131 458.261 39.2131C456.925 39.2131 455.851 38.9337 455.036 38.375C454.222 37.8116 453.737 37.0279 453.58 36.0241L456.087 35.7827C456.201 36.2751 456.442 36.6468 456.812 36.8977C457.181 37.1487 457.662 37.2741 458.254 37.2741C458.864 37.2741 459.354 37.1487 459.724 36.8977C460.098 36.6468 460.285 36.3366 460.285 35.9673C460.285 35.6548 460.164 35.3968 459.923 35.1932C459.686 34.9896 459.317 34.8333 458.815 34.7244L456.954 34.3338C455.907 34.116 455.133 33.7491 454.631 33.233C454.129 32.7121 453.881 32.054 453.886 31.2585C453.881 30.5862 454.063 30.0038 454.433 29.5114C454.807 29.0142 455.325 28.6307 455.988 28.3608C456.656 28.0862 457.425 27.9489 458.296 27.9489C459.575 27.9489 460.581 28.2211 461.315 28.7656C462.053 29.3101 462.51 30.0464 462.685 30.9744ZM466.624 39.1562C466.193 39.1562 465.823 39.0047 465.516 38.7017C465.208 38.3987 465.056 38.0294 465.061 37.5938C465.056 37.1676 465.208 36.803 465.516 36.5C465.823 36.197 466.193 36.0455 466.624 36.0455C467.04 36.0455 467.402 36.197 467.71 36.5C468.023 36.803 468.181 37.1676 468.186 37.5938C468.181 37.8826 468.106 38.1454 467.959 38.3821C467.817 38.6188 467.627 38.8082 467.391 38.9503C467.159 39.0876 466.903 39.1562 466.624 39.1562Z" fill="black"/>
<path d="M336.116 26.6634V24.4545H347.721V26.6634H343.225V39H340.612V26.6634H336.116ZM349.844 39V28.0909H352.415V39H349.844ZM351.137 26.5426C350.73 26.5426 350.379 26.4077 350.086 26.1378C349.792 25.8632 349.646 25.5341 349.646 25.1506C349.646 24.7623 349.792 24.4332 350.086 24.1634C350.379 23.8887 350.73 23.7514 351.137 23.7514C351.549 23.7514 351.899 23.8887 352.188 24.1634C352.482 24.4332 352.629 24.7623 352.629 25.1506C352.629 25.5341 352.482 25.8632 352.188 26.1378C351.899 26.4077 351.549 26.5426 351.137 26.5426ZM355.059 39V28.0909H357.517V29.9446H357.645C357.872 29.3196 358.248 28.8319 358.774 28.4815C359.299 28.1264 359.927 27.9489 360.656 27.9489C361.395 27.9489 362.017 28.1288 362.524 28.4886C363.035 28.8437 363.395 29.3291 363.603 29.9446H363.717C363.958 29.3385 364.366 28.8556 364.939 28.4957C365.516 28.1312 366.2 27.9489 366.991 27.9489C367.995 27.9489 368.814 28.2661 369.449 28.9006C370.083 29.535 370.4 30.4607 370.4 31.6776V39H367.822V32.0753C367.822 31.3982 367.642 30.9034 367.282 30.5909C366.922 30.2737 366.482 30.1151 365.961 30.1151C365.341 30.1151 364.856 30.3092 364.505 30.6974C364.16 31.081 363.987 31.5805 363.987 32.196V39H361.466V31.9688C361.466 31.4053 361.295 30.9555 360.954 30.6193C360.618 30.2831 360.178 30.1151 359.633 30.1151C359.264 30.1151 358.928 30.2098 358.625 30.3991C358.322 30.5838 358.08 30.8466 357.9 31.1875C357.72 31.5237 357.63 31.9167 357.63 32.3665V39H355.059ZM377.838 39.2131C376.744 39.2131 375.8 38.9858 375.004 38.5312C374.214 38.072 373.605 37.4233 373.179 36.5852C372.753 35.7424 372.54 34.7505 372.54 33.6094C372.54 32.4872 372.753 31.5024 373.179 30.6548C373.61 29.8026 374.211 29.1397 374.983 28.6662C375.755 28.188 376.661 27.9489 377.703 27.9489C378.375 27.9489 379.01 28.0578 379.607 28.2756C380.208 28.4886 380.738 28.8201 381.197 29.2699C381.661 29.7197 382.026 30.2926 382.291 30.9886C382.556 31.6799 382.689 32.5038 382.689 33.4602V34.2486H373.747V32.5156H380.224C380.22 32.0232 380.113 31.5852 379.905 31.2017C379.696 30.8134 379.405 30.508 379.031 30.2855C378.662 30.063 378.231 29.9517 377.739 29.9517C377.213 29.9517 376.751 30.0795 376.354 30.3352C375.956 30.5862 375.646 30.9176 375.423 31.3295C375.205 31.7367 375.094 32.1842 375.089 32.6719V34.1847C375.089 34.8191 375.205 35.3636 375.438 35.8182C375.67 36.268 375.994 36.6136 376.411 36.8551C376.827 37.0919 377.315 37.2102 377.874 37.2102C378.248 37.2102 378.586 37.1581 378.889 37.054C379.192 36.9451 379.455 36.7865 379.678 36.5781C379.9 36.3698 380.068 36.1117 380.182 35.804L382.582 36.0739C382.431 36.7083 382.142 37.2623 381.716 37.7358C381.295 38.2045 380.755 38.5691 380.097 38.8295C379.438 39.0852 378.686 39.2131 377.838 39.2131ZM387.435 24.4545V39H384.864V24.4545H387.435ZM391.677 43.0909C391.326 43.0909 391.002 43.0625 390.704 43.0057C390.41 42.9536 390.176 42.892 390.001 42.821L390.597 40.8182C390.971 40.9271 391.305 40.9792 391.599 40.9744C391.892 40.9697 392.15 40.8774 392.373 40.6974C392.6 40.5223 392.792 40.2287 392.948 39.8168L393.168 39.2273L389.212 28.0909H391.94L394.454 36.3295H394.567L397.089 28.0909H399.823L395.455 40.321C395.252 40.8987 394.982 41.3935 394.646 41.8054C394.309 42.2221 393.897 42.5393 393.41 42.7571C392.927 42.9796 392.349 43.0909 391.677 43.0909Z" fill="#7A2DB1"/>
<path d="M159.773 58.2727C159.705 57.697 159.428 57.25 158.943 56.9318C158.458 56.6136 157.864 56.4545 157.159 56.4545C156.644 56.4545 156.193 56.5379 155.807 56.7045C155.424 56.8712 155.125 57.1004 154.909 57.392C154.697 57.6837 154.591 58.0152 154.591 58.3864C154.591 58.697 154.665 58.964 154.812 59.1875C154.964 59.4072 155.157 59.5909 155.392 59.7386C155.627 59.8826 155.873 60.0019 156.131 60.0966C156.388 60.1875 156.625 60.2614 156.841 60.3182L158.023 60.6364C158.326 60.7159 158.663 60.8258 159.034 60.9659C159.409 61.1061 159.767 61.2973 160.108 61.5398C160.453 61.7784 160.737 62.0852 160.96 62.4602C161.184 62.8352 161.295 63.2955 161.295 63.8409C161.295 64.4697 161.131 65.0379 160.801 65.5455C160.475 66.053 159.998 66.4564 159.369 66.7557C158.744 67.0549 157.985 67.2045 157.091 67.2045C156.258 67.2045 155.536 67.0701 154.926 66.8011C154.32 66.5322 153.843 66.1572 153.494 65.6761C153.15 65.1951 152.955 64.6364 152.909 64H154.364C154.402 64.4394 154.549 64.803 154.807 65.0909C155.068 65.375 155.398 65.5871 155.795 65.7273C156.197 65.8636 156.629 65.9318 157.091 65.9318C157.629 65.9318 158.112 65.8447 158.54 65.6705C158.968 65.4924 159.307 65.2462 159.557 64.9318C159.807 64.6136 159.932 64.2424 159.932 63.8182C159.932 63.4318 159.824 63.1174 159.608 62.875C159.392 62.6326 159.108 62.4356 158.756 62.2841C158.403 62.1326 158.023 62 157.614 61.8864L156.182 61.4773C155.273 61.2159 154.553 60.8428 154.023 60.358C153.492 59.8731 153.227 59.2386 153.227 58.4545C153.227 57.803 153.403 57.2348 153.756 56.75C154.112 56.2614 154.589 55.8826 155.188 55.6136C155.79 55.3409 156.462 55.2045 157.205 55.2045C157.955 55.2045 158.621 55.339 159.205 55.608C159.788 55.8731 160.25 56.2367 160.591 56.6989C160.936 57.161 161.117 57.6856 161.136 58.2727H159.773ZM167.226 58.2727V59.4091H162.703V58.2727H167.226ZM164.021 56.1818H165.362V64.5C165.362 64.8788 165.417 65.1629 165.527 65.3523C165.641 65.5379 165.785 65.6629 165.959 65.7273C166.137 65.7879 166.324 65.8182 166.521 65.8182C166.669 65.8182 166.79 65.8106 166.885 65.7955C166.98 65.7765 167.055 65.7614 167.112 65.75L167.385 66.9545C167.294 66.9886 167.167 67.0227 167.004 67.0568C166.841 67.0947 166.635 67.1136 166.385 67.1136C166.006 67.1136 165.635 67.0322 165.271 66.8693C164.911 66.7064 164.612 66.4583 164.374 66.125C164.139 65.7917 164.021 65.3712 164.021 64.8636V56.1818ZM171.811 67.2045C171.258 67.2045 170.756 67.1004 170.305 66.892C169.855 66.6799 169.497 66.375 169.232 65.9773C168.966 65.5758 168.834 65.0909 168.834 64.5227C168.834 64.0227 168.932 63.6174 169.129 63.3068C169.326 62.9924 169.589 62.7462 169.919 62.5682C170.249 62.3902 170.612 62.2576 171.01 62.1705C171.411 62.0795 171.815 62.0076 172.22 61.9545C172.75 61.8864 173.18 61.8352 173.51 61.8011C173.843 61.7633 174.086 61.7008 174.237 61.6136C174.393 61.5265 174.47 61.375 174.47 61.1591V61.1136C174.47 60.553 174.317 60.1174 174.01 59.8068C173.707 59.4962 173.247 59.3409 172.629 59.3409C171.989 59.3409 171.487 59.4811 171.124 59.7614C170.76 60.0417 170.504 60.3409 170.357 60.6591L169.084 60.2045C169.311 59.6742 169.614 59.2614 169.993 58.9659C170.375 58.6667 170.792 58.4583 171.243 58.3409C171.697 58.2197 172.144 58.1591 172.584 58.1591C172.864 58.1591 173.186 58.1932 173.55 58.2614C173.917 58.3258 174.271 58.4602 174.612 58.6648C174.957 58.8693 175.243 59.178 175.47 59.5909C175.697 60.0038 175.811 60.5568 175.811 61.25V67H174.47V65.8182H174.402C174.311 66.0076 174.16 66.2102 173.947 66.4261C173.735 66.642 173.453 66.8258 173.101 66.9773C172.749 67.1288 172.319 67.2045 171.811 67.2045ZM172.016 66C172.546 66 172.993 65.8958 173.357 65.6875C173.724 65.4792 174 65.2102 174.186 64.8807C174.375 64.5511 174.47 64.2045 174.47 63.8409V62.6136C174.413 62.6818 174.288 62.7443 174.095 62.8011C173.906 62.8542 173.686 62.9015 173.436 62.9432C173.19 62.9811 172.949 63.0152 172.714 63.0455C172.483 63.072 172.296 63.0947 172.152 63.1136C171.804 63.1591 171.478 63.233 171.175 63.3352C170.875 63.4337 170.633 63.5833 170.447 63.7841C170.266 63.9811 170.175 64.25 170.175 64.5909C170.175 65.0568 170.347 65.4091 170.692 65.6477C171.04 65.8826 171.482 66 172.016 66ZM178.81 70.2727C178.582 70.2727 178.38 70.2538 178.202 70.2159C178.024 70.1818 177.901 70.1477 177.832 70.1136L178.173 68.9318C178.499 69.0152 178.787 69.0455 179.037 69.0227C179.287 69 179.509 68.8883 179.702 68.6875C179.899 68.4905 180.079 68.1705 180.241 67.7273L180.491 67.0455L177.264 58.2727H178.719L181.128 65.2273H181.219L183.628 58.2727H185.082L181.378 68.2727C181.211 68.7235 181.005 69.0966 180.759 69.392C180.512 69.6913 180.226 69.9129 179.901 70.0568C179.579 70.2008 179.215 70.2727 178.81 70.2727ZM194.898 67.1818C194.11 67.1818 193.419 66.9943 192.824 66.6193C192.233 66.2443 191.771 65.7197 191.438 65.0455C191.108 64.3712 190.943 63.5833 190.943 62.6818C190.943 61.7727 191.108 60.9792 191.438 60.3011C191.771 59.6231 192.233 59.0966 192.824 58.7216C193.419 58.3466 194.11 58.1591 194.898 58.1591C195.686 58.1591 196.375 58.3466 196.966 58.7216C197.561 59.0966 198.023 59.6231 198.352 60.3011C198.686 60.9792 198.852 61.7727 198.852 62.6818C198.852 63.5833 198.686 64.3712 198.352 65.0455C198.023 65.7197 197.561 66.2443 196.966 66.6193C196.375 66.9943 195.686 67.1818 194.898 67.1818ZM194.898 65.9773C195.496 65.9773 195.989 65.8239 196.375 65.517C196.761 65.2102 197.047 64.8068 197.233 64.3068C197.419 63.8068 197.511 63.2652 197.511 62.6818C197.511 62.0985 197.419 61.5549 197.233 61.0511C197.047 60.5473 196.761 60.1402 196.375 59.8295C195.989 59.5189 195.496 59.3636 194.898 59.3636C194.299 59.3636 193.807 59.5189 193.42 59.8295C193.034 60.1402 192.748 60.5473 192.562 61.0511C192.377 61.5549 192.284 62.0985 192.284 62.6818C192.284 63.2652 192.377 63.8068 192.562 64.3068C192.748 64.8068 193.034 65.2102 193.42 65.517C193.807 65.8239 194.299 65.9773 194.898 65.9773ZM202.24 61.75V67H200.899V58.2727H202.195V59.6364H202.308C202.513 59.1932 202.823 58.8371 203.24 58.5682C203.657 58.2955 204.195 58.1591 204.854 58.1591C205.445 58.1591 205.962 58.2803 206.405 58.5227C206.848 58.7614 207.193 59.125 207.439 59.6136C207.685 60.0985 207.808 60.7121 207.808 61.4545V67H206.467V61.5455C206.467 60.8598 206.289 60.3258 205.933 59.9432C205.577 59.5568 205.089 59.3636 204.467 59.3636C204.039 59.3636 203.657 59.4564 203.32 59.642C202.986 59.8277 202.723 60.0985 202.53 60.4545C202.337 60.8106 202.24 61.2424 202.24 61.75ZM218.554 58.2727V59.4091H214.031V58.2727H218.554ZM215.349 56.1818H216.69V64.5C216.69 64.8788 216.745 65.1629 216.855 65.3523C216.969 65.5379 217.113 65.6629 217.287 65.7273C217.465 65.7879 217.652 65.8182 217.849 65.8182C217.997 65.8182 218.118 65.8106 218.213 65.7955C218.308 65.7765 218.384 65.7614 218.44 65.75L218.713 66.9545C218.622 66.9886 218.495 67.0227 218.332 67.0568C218.17 67.0947 217.963 67.1136 217.713 67.1136C217.334 67.1136 216.963 67.0322 216.599 66.8693C216.24 66.7064 215.94 66.4583 215.702 66.125C215.467 65.7917 215.349 65.3712 215.349 64.8636V56.1818ZM224.023 67.1818C223.235 67.1818 222.544 66.9943 221.949 66.6193C221.358 66.2443 220.896 65.7197 220.562 65.0455C220.233 64.3712 220.068 63.5833 220.068 62.6818C220.068 61.7727 220.233 60.9792 220.562 60.3011C220.896 59.6231 221.358 59.0966 221.949 58.7216C222.544 58.3466 223.235 58.1591 224.023 58.1591C224.811 58.1591 225.5 58.3466 226.091 58.7216C226.686 59.0966 227.148 59.6231 227.477 60.3011C227.811 60.9792 227.977 61.7727 227.977 62.6818C227.977 63.5833 227.811 64.3712 227.477 65.0455C227.148 65.7197 226.686 66.2443 226.091 66.6193C225.5 66.9943 224.811 67.1818 224.023 67.1818ZM224.023 65.9773C224.621 65.9773 225.114 65.8239 225.5 65.517C225.886 65.2102 226.172 64.8068 226.358 64.3068C226.544 63.8068 226.636 63.2652 226.636 62.6818C226.636 62.0985 226.544 61.5549 226.358 61.0511C226.172 60.5473 225.886 60.1402 225.5 59.8295C225.114 59.5189 224.621 59.3636 224.023 59.3636C223.424 59.3636 222.932 59.5189 222.545 59.8295C222.159 60.1402 221.873 60.5473 221.688 61.0511C221.502 61.5549 221.409 62.0985 221.409 62.6818C221.409 63.2652 221.502 63.8068 221.688 64.3068C221.873 64.8068 222.159 65.2102 222.545 65.517C222.932 65.8239 223.424 65.9773 224.023 65.9773ZM230.024 70.2727V58.2727H231.32V59.6591H231.479C231.577 59.5076 231.714 59.3144 231.888 59.0795C232.066 58.8409 232.32 58.6288 232.649 58.4432C232.982 58.2538 233.433 58.1591 234.001 58.1591C234.736 58.1591 235.384 58.3428 235.945 58.7102C236.505 59.0777 236.943 59.5985 237.257 60.2727C237.571 60.947 237.729 61.7424 237.729 62.6591C237.729 63.5833 237.571 64.3845 237.257 65.0625C236.943 65.7367 236.507 66.2595 235.95 66.6307C235.393 66.9981 234.751 67.1818 234.024 67.1818C233.464 67.1818 233.015 67.089 232.678 66.9034C232.34 66.714 232.081 66.5 231.899 66.2614C231.717 66.0189 231.577 65.8182 231.479 65.6591H231.365V70.2727H230.024ZM231.342 62.6364C231.342 63.2955 231.439 63.8769 231.632 64.3807C231.825 64.8807 232.107 65.2727 232.479 65.5568C232.85 65.8371 233.304 65.9773 233.842 65.9773C234.403 65.9773 234.871 65.8295 235.246 65.5341C235.625 65.2348 235.909 64.8333 236.098 64.3295C236.291 63.822 236.388 63.2576 236.388 62.6364C236.388 62.0227 236.293 61.4697 236.104 60.9773C235.918 60.4811 235.636 60.089 235.257 59.8011C234.882 59.5095 234.411 59.3636 233.842 59.3636C233.297 59.3636 232.839 59.5019 232.467 59.7784C232.096 60.0511 231.816 60.4337 231.626 60.9261C231.437 61.4148 231.342 61.9848 231.342 62.6364ZM246.251 67L243.592 58.2727H245.001L246.888 64.9545H246.979L248.842 58.2727H250.274L252.115 64.9318H252.206L254.092 58.2727H255.501L252.842 67H251.524L249.615 60.2955H249.479L247.57 67H246.251ZM257.274 67V58.2727H258.615V67H257.274ZM257.956 56.8182C257.695 56.8182 257.469 56.7292 257.28 56.5511C257.094 56.3731 257.001 56.1591 257.001 55.9091C257.001 55.6591 257.094 55.4451 257.28 55.267C257.469 55.089 257.695 55 257.956 55C258.217 55 258.441 55.089 258.626 55.267C258.816 55.4451 258.911 55.6591 258.911 55.9091C258.911 56.1591 258.816 56.3731 258.626 56.5511C258.441 56.7292 258.217 56.8182 257.956 56.8182ZM264.866 58.2727V59.4091H260.344V58.2727H264.866ZM261.662 56.1818H263.003V64.5C263.003 64.8788 263.058 65.1629 263.168 65.3523C263.281 65.5379 263.425 65.6629 263.599 65.7273C263.777 65.7879 263.965 65.8182 264.162 65.8182C264.31 65.8182 264.431 65.8106 264.526 65.7955C264.62 65.7765 264.696 65.7614 264.753 65.75L265.026 66.9545C264.935 66.9886 264.808 67.0227 264.645 67.0568C264.482 67.0947 264.276 67.1136 264.026 67.1136C263.647 67.1136 263.276 67.0322 262.912 66.8693C262.552 66.7064 262.253 66.4583 262.014 66.125C261.779 65.7917 261.662 65.3712 261.662 64.8636V56.1818ZM268.412 61.75V67H267.071V55.3636H268.412V59.6364H268.526C268.73 59.1856 269.037 58.8277 269.446 58.5625C269.859 58.2936 270.408 58.1591 271.094 58.1591C271.688 58.1591 272.209 58.2784 272.656 58.517C273.103 58.7519 273.45 59.1136 273.696 59.6023C273.946 60.0871 274.071 60.7045 274.071 61.4545V67H272.73V61.5455C272.73 60.8523 272.55 60.3163 272.19 59.9375C271.834 59.5549 271.34 59.3636 270.707 59.3636C270.268 59.3636 269.874 59.4564 269.526 59.642C269.181 59.8277 268.908 60.0985 268.707 60.4545C268.51 60.8106 268.412 61.2424 268.412 61.75ZM287.206 60.2273L286.001 60.5682C285.926 60.3674 285.814 60.1723 285.666 59.983C285.522 59.7898 285.325 59.6307 285.075 59.5057C284.825 59.3807 284.505 59.3182 284.115 59.3182C283.581 59.3182 283.136 59.4413 282.78 59.6875C282.428 59.9299 282.251 60.2386 282.251 60.6136C282.251 60.947 282.373 61.2102 282.615 61.4034C282.857 61.5966 283.236 61.7576 283.751 61.8864L285.047 62.2045C285.827 62.3939 286.409 62.6837 286.791 63.0739C287.174 63.4602 287.365 63.9583 287.365 64.5682C287.365 65.0682 287.221 65.5152 286.933 65.9091C286.649 66.303 286.251 66.6136 285.74 66.8409C285.229 67.0682 284.634 67.1818 283.956 67.1818C283.066 67.1818 282.329 66.9886 281.746 66.6023C281.162 66.2159 280.793 65.6515 280.638 64.9091L281.911 64.5909C282.032 65.0606 282.261 65.4129 282.598 65.6477C282.939 65.8826 283.384 66 283.933 66C284.558 66 285.054 65.8674 285.422 65.6023C285.793 65.3333 285.979 65.0114 285.979 64.6364C285.979 64.3333 285.873 64.0795 285.661 63.875C285.448 63.6667 285.123 63.5114 284.683 63.4091L283.229 63.0682C282.429 62.8788 281.842 62.5852 281.467 62.1875C281.096 61.786 280.911 61.2841 280.911 60.6818C280.911 60.1894 281.049 59.7538 281.325 59.375C281.606 58.9962 281.986 58.6989 282.467 58.483C282.952 58.267 283.501 58.1591 284.115 58.1591C284.979 58.1591 285.657 58.3485 286.149 58.7273C286.645 59.1061 286.998 59.6061 287.206 60.2273ZM289.384 67V58.2727H290.679V59.6364H290.793C290.974 59.1705 291.268 58.8087 291.673 58.5511C292.079 58.2898 292.565 58.1591 293.134 58.1591C293.709 58.1591 294.188 58.2898 294.571 58.5511C294.957 58.8087 295.259 59.1705 295.474 59.6364H295.565C295.789 59.1856 296.124 58.8277 296.571 58.5625C297.018 58.2936 297.554 58.1591 298.179 58.1591C298.959 58.1591 299.598 58.4034 300.094 58.892C300.59 59.3769 300.838 60.1326 300.838 61.1591V67H299.497V61.1591C299.497 60.5152 299.321 60.0549 298.969 59.7784C298.616 59.5019 298.202 59.3636 297.724 59.3636C297.111 59.3636 296.635 59.5492 296.298 59.9205C295.961 60.2879 295.793 60.7538 295.793 61.3182V67H294.429V61.0227C294.429 60.5265 294.268 60.1269 293.946 59.8239C293.624 59.517 293.209 59.3636 292.702 59.3636C292.353 59.3636 292.027 59.4564 291.724 59.642C291.425 59.8277 291.183 60.0852 290.997 60.4148C290.815 60.7405 290.724 61.1174 290.724 61.5455V67H289.384ZM305.858 67.2045C305.305 67.2045 304.803 67.1004 304.352 66.892C303.902 66.6799 303.544 66.375 303.278 65.9773C303.013 65.5758 302.881 65.0909 302.881 64.5227C302.881 64.0227 302.979 63.6174 303.176 63.3068C303.373 62.9924 303.636 62.7462 303.966 62.5682C304.295 62.3902 304.659 62.2576 305.057 62.1705C305.458 62.0795 305.862 62.0076 306.267 61.9545C306.797 61.8864 307.227 61.8352 307.557 61.8011C307.89 61.7633 308.133 61.7008 308.284 61.6136C308.439 61.5265 308.517 61.375 308.517 61.1591V61.1136C308.517 60.553 308.364 60.1174 308.057 59.8068C307.754 59.4962 307.294 59.3409 306.676 59.3409C306.036 59.3409 305.534 59.4811 305.17 59.7614C304.807 60.0417 304.551 60.3409 304.403 60.6591L303.131 60.2045C303.358 59.6742 303.661 59.2614 304.04 58.9659C304.422 58.6667 304.839 58.4583 305.29 58.3409C305.744 58.2197 306.191 58.1591 306.631 58.1591C306.911 58.1591 307.233 58.1932 307.597 58.2614C307.964 58.3258 308.318 58.4602 308.659 58.6648C309.004 58.8693 309.29 59.178 309.517 59.5909C309.744 60.0038 309.858 60.5568 309.858 61.25V67H308.517V65.8182H308.449C308.358 66.0076 308.206 66.2102 307.994 66.4261C307.782 66.642 307.5 66.8258 307.148 66.9773C306.795 67.1288 306.366 67.2045 305.858 67.2045ZM306.062 66C306.593 66 307.04 65.8958 307.403 65.6875C307.771 65.4792 308.047 65.2102 308.233 64.8807C308.422 64.5511 308.517 64.2045 308.517 63.8409V62.6136C308.46 62.6818 308.335 62.7443 308.142 62.8011C307.953 62.8542 307.733 62.9015 307.483 62.9432C307.237 62.9811 306.996 63.0152 306.761 63.0455C306.53 63.072 306.343 63.0947 306.199 63.1136C305.85 63.1591 305.525 63.233 305.222 63.3352C304.922 63.4337 304.68 63.5833 304.494 63.7841C304.313 63.9811 304.222 64.25 304.222 64.5909C304.222 65.0568 304.394 65.4091 304.739 65.6477C305.087 65.8826 305.528 66 306.062 66ZM312.305 67V58.2727H313.601V59.5909H313.692C313.851 59.1591 314.139 58.8087 314.555 58.5398C314.972 58.2708 315.442 58.1364 315.964 58.1364C316.063 58.1364 316.186 58.1383 316.334 58.142C316.482 58.1458 316.593 58.1515 316.669 58.1591V59.5227C316.624 59.5114 316.519 59.4943 316.357 59.4716C316.197 59.4451 316.029 59.4318 315.851 59.4318C315.427 59.4318 315.048 59.5208 314.714 59.6989C314.385 59.8731 314.124 60.1155 313.93 60.4261C313.741 60.733 313.646 61.0833 313.646 61.4773V67H312.305ZM322.601 58.2727V59.4091H318.078V58.2727H322.601ZM319.396 56.1818H320.737V64.5C320.737 64.8788 320.792 65.1629 320.902 65.3523C321.016 65.5379 321.16 65.6629 321.334 65.7273C321.512 65.7879 321.699 65.8182 321.896 65.8182C322.044 65.8182 322.165 65.8106 322.26 65.7955C322.355 65.7765 322.43 65.7614 322.487 65.75L322.76 66.9545C322.669 66.9886 322.542 67.0227 322.379 67.0568C322.216 67.0947 322.01 67.1136 321.76 67.1136C321.381 67.1136 321.01 67.0322 320.646 66.8693C320.286 66.7064 319.987 66.4583 319.749 66.125C319.514 65.7917 319.396 65.3712 319.396 64.8636V56.1818ZM330.459 61.75V67H329.118V58.2727H330.413V59.6364H330.527C330.732 59.1932 331.042 58.8371 331.459 58.5682C331.875 58.2955 332.413 58.1591 333.072 58.1591C333.663 58.1591 334.18 58.2803 334.624 58.5227C335.067 58.7614 335.411 59.125 335.658 59.6136C335.904 60.0985 336.027 60.7121 336.027 61.4545V67H334.686V61.5455C334.686 60.8598 334.508 60.3258 334.152 59.9432C333.796 59.5568 333.307 59.3636 332.686 59.3636C332.258 59.3636 331.875 59.4564 331.538 59.642C331.205 59.8277 330.942 60.0985 330.749 60.4545C330.555 60.8106 330.459 61.2424 330.459 61.75ZM342.023 67.1818C341.235 67.1818 340.544 66.9943 339.949 66.6193C339.358 66.2443 338.896 65.7197 338.562 65.0455C338.233 64.3712 338.068 63.5833 338.068 62.6818C338.068 61.7727 338.233 60.9792 338.562 60.3011C338.896 59.6231 339.358 59.0966 339.949 58.7216C340.544 58.3466 341.235 58.1591 342.023 58.1591C342.811 58.1591 343.5 58.3466 344.091 58.7216C344.686 59.0966 345.148 59.6231 345.477 60.3011C345.811 60.9792 345.977 61.7727 345.977 62.6818C345.977 63.5833 345.811 64.3712 345.477 65.0455C345.148 65.7197 344.686 66.2443 344.091 66.6193C343.5 66.9943 342.811 67.1818 342.023 67.1818ZM342.023 65.9773C342.621 65.9773 343.114 65.8239 343.5 65.517C343.886 65.2102 344.172 64.8068 344.358 64.3068C344.544 63.8068 344.636 63.2652 344.636 62.6818C344.636 62.0985 344.544 61.5549 344.358 61.0511C344.172 60.5473 343.886 60.1402 343.5 59.8295C343.114 59.5189 342.621 59.3636 342.023 59.3636C341.424 59.3636 340.932 59.5189 340.545 59.8295C340.159 60.1402 339.873 60.5473 339.688 61.0511C339.502 61.5549 339.409 62.0985 339.409 62.6818C339.409 63.2652 339.502 63.8068 339.688 64.3068C339.873 64.8068 340.159 65.2102 340.545 65.517C340.932 65.8239 341.424 65.9773 342.023 65.9773ZM351.82 58.2727V59.4091H347.297V58.2727H351.82ZM348.615 56.1818H349.956V64.5C349.956 64.8788 350.011 65.1629 350.121 65.3523C350.234 65.5379 350.378 65.6629 350.553 65.7273C350.731 65.7879 350.918 65.8182 351.115 65.8182C351.263 65.8182 351.384 65.8106 351.479 65.7955C351.573 65.7765 351.649 65.7614 351.706 65.75L351.979 66.9545C351.888 66.9886 351.761 67.0227 351.598 67.0568C351.435 67.0947 351.229 67.1136 350.979 67.1136C350.6 67.1136 350.229 67.0322 349.865 66.8693C349.505 66.7064 349.206 66.4583 348.967 66.125C348.732 65.7917 348.615 65.3712 348.615 64.8636V56.1818ZM353.837 67V58.2727H355.178V67H353.837ZM354.518 56.8182C354.257 56.8182 354.032 56.7292 353.842 56.5511C353.657 56.3731 353.564 56.1591 353.564 55.9091C353.564 55.6591 353.657 55.4451 353.842 55.267C354.032 55.089 354.257 55 354.518 55C354.78 55 355.003 55.089 355.189 55.267C355.378 55.4451 355.473 55.6591 355.473 55.9091C355.473 56.1591 355.378 56.3731 355.189 56.5511C355.003 56.7292 354.78 56.8182 354.518 56.8182ZM361.52 58.2727V59.4091H356.815V58.2727H361.52ZM358.224 67V57.0682C358.224 56.5682 358.342 56.1515 358.577 55.8182C358.812 55.4848 359.116 55.2348 359.491 55.0682C359.866 54.9015 360.262 54.8182 360.679 54.8182C361.009 54.8182 361.277 54.8447 361.486 54.8977C361.694 54.9508 361.849 55 361.952 55.0455L361.565 56.2045C361.497 56.1818 361.402 56.1534 361.281 56.1193C361.164 56.0852 361.009 56.0682 360.815 56.0682C360.372 56.0682 360.052 56.1799 359.855 56.4034C359.662 56.6269 359.565 56.9545 359.565 57.3864V67H358.224ZM363.399 67V58.2727H364.74V67H363.399ZM364.081 56.8182C363.82 56.8182 363.594 56.7292 363.405 56.5511C363.219 56.3731 363.126 56.1591 363.126 55.9091C363.126 55.6591 363.219 55.4451 363.405 55.267C363.594 55.089 363.82 55 364.081 55C364.342 55 364.566 55.089 364.751 55.267C364.941 55.4451 365.036 55.6591 365.036 55.9091C365.036 56.1591 364.941 56.3731 364.751 56.5511C364.566 56.7292 364.342 56.8182 364.081 56.8182ZM370.741 67.1818C369.923 67.1818 369.219 66.9886 368.628 66.6023C368.037 66.2159 367.582 65.6837 367.264 65.0057C366.946 64.3277 366.787 63.553 366.787 62.6818C366.787 61.7955 366.95 61.0133 367.276 60.3352C367.605 59.6534 368.063 59.1212 368.651 58.7386C369.241 58.3523 369.931 58.1591 370.719 58.1591C371.332 58.1591 371.885 58.2727 372.378 58.5C372.87 58.7273 373.274 59.0455 373.588 59.4545C373.902 59.8636 374.098 60.3409 374.173 60.8864H372.832C372.73 60.4886 372.503 60.1364 372.151 59.8295C371.802 59.5189 371.332 59.3636 370.741 59.3636C370.219 59.3636 369.76 59.5 369.366 59.7727C368.976 60.0417 368.671 60.4223 368.452 60.9148C368.236 61.4034 368.128 61.9773 368.128 62.6364C368.128 63.3106 368.234 63.8977 368.446 64.3977C368.662 64.8977 368.965 65.286 369.355 65.5625C369.749 65.839 370.211 65.9773 370.741 65.9773C371.09 65.9773 371.406 65.9167 371.69 65.7955C371.974 65.6742 372.215 65.5 372.412 65.2727C372.609 65.0455 372.749 64.7727 372.832 64.4545H374.173C374.098 64.9697 373.91 65.4337 373.611 65.8466C373.315 66.2557 372.923 66.5814 372.435 66.8239C371.95 67.0625 371.385 67.1818 370.741 67.1818ZM378.702 67.2045C378.149 67.2045 377.647 67.1004 377.196 66.892C376.745 66.6799 376.387 66.375 376.122 65.9773C375.857 65.5758 375.724 65.0909 375.724 64.5227C375.724 64.0227 375.823 63.6174 376.02 63.3068C376.217 62.9924 376.48 62.7462 376.81 62.5682C377.139 62.3902 377.503 62.2576 377.901 62.1705C378.302 62.0795 378.705 62.0076 379.111 61.9545C379.641 61.8864 380.071 61.8352 380.401 61.8011C380.734 61.7633 380.976 61.7008 381.128 61.6136C381.283 61.5265 381.361 61.375 381.361 61.1591V61.1136C381.361 60.553 381.207 60.1174 380.901 59.8068C380.598 59.4962 380.137 59.3409 379.52 59.3409C378.88 59.3409 378.378 59.4811 378.014 59.7614C377.651 60.0417 377.395 60.3409 377.247 60.6591L375.974 60.2045C376.202 59.6742 376.505 59.2614 376.884 58.9659C377.266 58.6667 377.683 58.4583 378.134 58.3409C378.588 58.2197 379.035 58.1591 379.474 58.1591C379.755 58.1591 380.077 58.1932 380.44 58.2614C380.808 58.3258 381.162 58.4602 381.503 58.6648C381.848 58.8693 382.134 59.178 382.361 59.5909C382.588 60.0038 382.702 60.5568 382.702 61.25V67H381.361V65.8182H381.293C381.202 66.0076 381.05 66.2102 380.838 66.4261C380.626 66.642 380.344 66.8258 379.991 66.9773C379.639 67.1288 379.209 67.2045 378.702 67.2045ZM378.906 66C379.437 66 379.884 65.8958 380.247 65.6875C380.615 65.4792 380.891 65.2102 381.077 64.8807C381.266 64.5511 381.361 64.2045 381.361 63.8409V62.6136C381.304 62.6818 381.179 62.7443 380.986 62.8011C380.796 62.8542 380.577 62.9015 380.327 62.9432C380.08 62.9811 379.84 63.0152 379.605 63.0455C379.374 63.072 379.187 63.0947 379.043 63.1136C378.694 63.1591 378.368 63.233 378.065 63.3352C377.766 63.4337 377.524 63.5833 377.338 63.7841C377.156 63.9811 377.065 64.25 377.065 64.5909C377.065 65.0568 377.238 65.4091 377.582 65.6477C377.931 65.8826 378.372 66 378.906 66ZM388.945 58.2727V59.4091H384.422V58.2727H388.945ZM385.74 56.1818H387.081V64.5C387.081 64.8788 387.136 65.1629 387.246 65.3523C387.359 65.5379 387.503 65.6629 387.678 65.7273C387.856 65.7879 388.043 65.8182 388.24 65.8182C388.388 65.8182 388.509 65.8106 388.604 65.7955C388.698 65.7765 388.774 65.7614 388.831 65.75L389.104 66.9545C389.013 66.9886 388.886 67.0227 388.723 67.0568C388.56 67.0947 388.354 67.1136 388.104 67.1136C387.725 67.1136 387.354 67.0322 386.99 66.8693C386.63 66.7064 386.331 66.4583 386.092 66.125C385.857 65.7917 385.74 65.3712 385.74 64.8636V56.1818ZM390.962 67V58.2727H392.303V67H390.962ZM391.643 56.8182C391.382 56.8182 391.157 56.7292 390.967 56.5511C390.782 56.3731 390.689 56.1591 390.689 55.9091C390.689 55.6591 390.782 55.4451 390.967 55.267C391.157 55.089 391.382 55 391.643 55C391.905 55 392.128 55.089 392.314 55.267C392.503 55.4451 392.598 55.6591 392.598 55.9091C392.598 56.1591 392.503 56.3731 392.314 56.5511C392.128 56.7292 391.905 56.8182 391.643 56.8182ZM398.304 67.1818C397.516 67.1818 396.825 66.9943 396.23 66.6193C395.639 66.2443 395.177 65.7197 394.844 65.0455C394.514 64.3712 394.349 63.5833 394.349 62.6818C394.349 61.7727 394.514 60.9792 394.844 60.3011C395.177 59.6231 395.639 59.0966 396.23 58.7216C396.825 58.3466 397.516 58.1591 398.304 58.1591C399.092 58.1591 399.781 58.3466 400.372 58.7216C400.967 59.0966 401.429 59.6231 401.759 60.3011C402.092 60.9792 402.259 61.7727 402.259 62.6818C402.259 63.5833 402.092 64.3712 401.759 65.0455C401.429 65.7197 400.967 66.2443 400.372 66.6193C399.781 66.9943 399.092 67.1818 398.304 67.1818ZM398.304 65.9773C398.902 65.9773 399.395 65.8239 399.781 65.517C400.168 65.2102 400.454 64.8068 400.639 64.3068C400.825 63.8068 400.918 63.2652 400.918 62.6818C400.918 62.0985 400.825 61.5549 400.639 61.0511C400.454 60.5473 400.168 60.1402 399.781 59.8295C399.395 59.5189 398.902 59.3636 398.304 59.3636C397.705 59.3636 397.213 59.5189 396.827 59.8295C396.44 60.1402 396.154 60.5473 395.969 61.0511C395.783 61.5549 395.69 62.0985 395.69 62.6818C395.69 63.2652 395.783 63.8068 395.969 64.3068C396.154 64.8068 396.44 65.2102 396.827 65.517C397.213 65.8239 397.705 65.9773 398.304 65.9773ZM405.646 61.75V67H404.305V58.2727H405.601V59.6364H405.714C405.919 59.1932 406.23 58.8371 406.646 58.5682C407.063 58.2955 407.601 58.1591 408.26 58.1591C408.851 58.1591 409.368 58.2803 409.811 58.5227C410.254 58.7614 410.599 59.125 410.845 59.6136C411.091 60.0985 411.214 60.7121 411.214 61.4545V67H409.874V61.5455C409.874 60.8598 409.696 60.3258 409.339 59.9432C408.983 59.5568 408.495 59.3636 407.874 59.3636C407.446 59.3636 407.063 59.4564 406.726 59.642C406.393 59.8277 406.129 60.0985 405.936 60.4545C405.743 60.8106 405.646 61.2424 405.646 61.75ZM419.847 60.2273L418.642 60.5682C418.566 60.3674 418.455 60.1723 418.307 59.983C418.163 59.7898 417.966 59.6307 417.716 59.5057C417.466 59.3807 417.146 59.3182 416.756 59.3182C416.222 59.3182 415.777 59.4413 415.42 59.6875C415.068 59.9299 414.892 60.2386 414.892 60.6136C414.892 60.947 415.013 61.2102 415.256 61.4034C415.498 61.5966 415.877 61.7576 416.392 61.8864L417.688 62.2045C418.468 62.3939 419.049 62.6837 419.432 63.0739C419.814 63.4602 420.006 63.9583 420.006 64.5682C420.006 65.0682 419.862 65.5152 419.574 65.9091C419.29 66.303 418.892 66.6136 418.381 66.8409C417.869 67.0682 417.275 67.1818 416.597 67.1818C415.706 67.1818 414.97 66.9886 414.386 66.6023C413.803 66.2159 413.434 65.6515 413.278 64.9091L414.551 64.5909C414.672 65.0606 414.902 65.4129 415.239 65.6477C415.58 65.8826 416.025 66 416.574 66C417.199 66 417.695 65.8674 418.062 65.6023C418.434 65.3333 418.619 65.0114 418.619 64.6364C418.619 64.3333 418.513 64.0795 418.301 63.875C418.089 63.6667 417.763 63.5114 417.324 63.4091L415.869 63.0682C415.07 62.8788 414.483 62.5852 414.108 62.1875C413.737 61.786 413.551 61.2841 413.551 60.6818C413.551 60.1894 413.689 59.7538 413.966 59.375C414.246 58.9962 414.627 58.6989 415.108 58.483C415.593 58.267 416.142 58.1591 416.756 58.1591C417.619 58.1591 418.297 58.3485 418.79 58.7273C419.286 59.1061 419.638 59.6061 419.847 60.2273ZM430.411 58.2727V59.4091H425.706V58.2727H430.411ZM427.115 67V57.0682C427.115 56.5682 427.232 56.1515 427.467 55.8182C427.702 55.4848 428.007 55.2348 428.382 55.0682C428.757 54.9015 429.153 54.8182 429.57 54.8182C429.899 54.8182 430.168 54.8447 430.376 54.8977C430.585 54.9508 430.74 55 430.842 55.0455L430.456 56.2045C430.388 56.1818 430.293 56.1534 430.172 56.1193C430.054 56.0852 429.899 56.0682 429.706 56.0682C429.263 56.0682 428.943 56.1799 428.746 56.4034C428.553 56.6269 428.456 56.9545 428.456 57.3864V67H427.115ZM435.476 67.1818C434.688 67.1818 433.997 66.9943 433.402 66.6193C432.811 66.2443 432.349 65.7197 432.016 65.0455C431.686 64.3712 431.521 63.5833 431.521 62.6818C431.521 61.7727 431.686 60.9792 432.016 60.3011C432.349 59.6231 432.811 59.0966 433.402 58.7216C433.997 58.3466 434.688 58.1591 435.476 58.1591C436.264 58.1591 436.953 58.3466 437.544 58.7216C438.139 59.0966 438.601 59.6231 438.93 60.3011C439.264 60.9792 439.43 61.7727 439.43 62.6818C439.43 63.5833 439.264 64.3712 438.93 65.0455C438.601 65.7197 438.139 66.2443 437.544 66.6193C436.953 66.9943 436.264 67.1818 435.476 67.1818ZM435.476 65.9773C436.074 65.9773 436.567 65.8239 436.953 65.517C437.339 65.2102 437.625 64.8068 437.811 64.3068C437.997 63.8068 438.089 63.2652 438.089 62.6818C438.089 62.0985 437.997 61.5549 437.811 61.0511C437.625 60.5473 437.339 60.1402 436.953 59.8295C436.567 59.5189 436.074 59.3636 435.476 59.3636C434.877 59.3636 434.385 59.5189 433.999 59.8295C433.612 60.1402 433.326 60.5473 433.141 61.0511C432.955 61.5549 432.862 62.0985 432.862 62.6818C432.862 63.2652 432.955 63.8068 433.141 64.3068C433.326 64.8068 433.612 65.2102 433.999 65.517C434.385 65.8239 434.877 65.9773 435.476 65.9773ZM441.477 67V58.2727H442.773V59.5909H442.864C443.023 59.1591 443.311 58.8087 443.727 58.5398C444.144 58.2708 444.614 58.1364 445.136 58.1364C445.235 58.1364 445.358 58.1383 445.506 58.142C445.653 58.1458 445.765 58.1515 445.841 58.1591V59.5227C445.795 59.5114 445.691 59.4943 445.528 59.4716C445.369 59.4451 445.201 59.4318 445.023 59.4318C444.598 59.4318 444.22 59.5208 443.886 59.6989C443.557 59.8731 443.295 60.1155 443.102 60.4261C442.913 60.733 442.818 61.0833 442.818 61.4773V67H441.477ZM155.795 86.2045C155.242 86.2045 154.741 86.1004 154.29 85.892C153.839 85.6799 153.481 85.375 153.216 84.9773C152.951 84.5758 152.818 84.0909 152.818 83.5227C152.818 83.0227 152.917 82.6174 153.114 82.3068C153.311 81.9924 153.574 81.7462 153.903 81.5682C154.233 81.3902 154.597 81.2576 154.994 81.1705C155.396 81.0795 155.799 81.0076 156.205 80.9545C156.735 80.8864 157.165 80.8352 157.494 80.8011C157.828 80.7633 158.07 80.7008 158.222 80.6136C158.377 80.5265 158.455 80.375 158.455 80.1591V80.1136C158.455 79.553 158.301 79.1174 157.994 78.8068C157.691 78.4962 157.231 78.3409 156.614 78.3409C155.973 78.3409 155.472 78.4811 155.108 78.7614C154.744 79.0417 154.489 79.3409 154.341 79.6591L153.068 79.2045C153.295 78.6742 153.598 78.2614 153.977 77.9659C154.36 77.6667 154.777 77.4583 155.227 77.3409C155.682 77.2197 156.129 77.1591 156.568 77.1591C156.848 77.1591 157.17 77.1932 157.534 77.2614C157.902 77.3258 158.256 77.4602 158.597 77.6648C158.941 77.8693 159.227 78.178 159.455 78.5909C159.682 79.0038 159.795 79.5568 159.795 80.25V86H158.455V84.8182H158.386C158.295 85.0076 158.144 85.2102 157.932 85.4261C157.72 85.642 157.438 85.8258 157.085 85.9773C156.733 86.1288 156.303 86.2045 155.795 86.2045ZM156 85C156.53 85 156.977 84.8958 157.341 84.6875C157.708 84.4792 157.985 84.2102 158.17 83.8807C158.36 83.5511 158.455 83.2045 158.455 82.8409V81.6136C158.398 81.6818 158.273 81.7443 158.08 81.8011C157.89 81.8542 157.67 81.9015 157.42 81.9432C157.174 81.9811 156.934 82.0152 156.699 82.0455C156.468 82.072 156.28 82.0947 156.136 82.1136C155.788 82.1591 155.462 82.233 155.159 82.3352C154.86 82.4337 154.617 82.5833 154.432 82.7841C154.25 82.9811 154.159 83.25 154.159 83.5909C154.159 84.0568 154.331 84.4091 154.676 84.6477C155.025 84.8826 155.466 85 156 85ZM162.243 89.2727V77.2727H163.538V78.6591H163.697C163.796 78.5076 163.932 78.3144 164.107 78.0795C164.285 77.8409 164.538 77.6288 164.868 77.4432C165.201 77.2538 165.652 77.1591 166.22 77.1591C166.955 77.1591 167.603 77.3428 168.163 77.7102C168.724 78.0777 169.161 78.5985 169.476 79.2727C169.79 79.947 169.947 80.7424 169.947 81.6591C169.947 82.5833 169.79 83.3845 169.476 84.0625C169.161 84.7367 168.726 85.2595 168.169 85.6307C167.612 85.9981 166.97 86.1818 166.243 86.1818C165.682 86.1818 165.233 86.089 164.896 85.9034C164.559 85.714 164.3 85.5 164.118 85.2614C163.936 85.0189 163.796 84.8182 163.697 84.6591H163.584V89.2727H162.243ZM163.561 81.6364C163.561 82.2955 163.658 82.8769 163.851 83.3807C164.044 83.8807 164.326 84.2727 164.697 84.5568C165.069 84.8371 165.523 84.9773 166.061 84.9773C166.622 84.9773 167.089 84.8295 167.464 84.5341C167.843 84.2348 168.127 83.8333 168.317 83.3295C168.51 82.822 168.607 82.2576 168.607 81.6364C168.607 81.0227 168.512 80.4697 168.322 79.9773C168.137 79.4811 167.855 79.089 167.476 78.8011C167.101 78.5095 166.629 78.3636 166.061 78.3636C165.516 78.3636 165.057 78.5019 164.686 78.7784C164.315 79.0511 164.035 79.4337 163.845 79.9261C163.656 80.4148 163.561 80.9848 163.561 81.6364ZM171.993 89.2727V77.2727H173.288V78.6591H173.447C173.546 78.5076 173.682 78.3144 173.857 78.0795C174.035 77.8409 174.288 77.6288 174.618 77.4432C174.951 77.2538 175.402 77.1591 175.97 77.1591C176.705 77.1591 177.353 77.3428 177.913 77.7102C178.474 78.0777 178.911 78.5985 179.226 79.2727C179.54 79.947 179.697 80.7424 179.697 81.6591C179.697 82.5833 179.54 83.3845 179.226 84.0625C178.911 84.7367 178.476 85.2595 177.919 85.6307C177.362 85.9981 176.72 86.1818 175.993 86.1818C175.432 86.1818 174.983 86.089 174.646 85.9034C174.309 85.714 174.05 85.5 173.868 85.2614C173.686 85.0189 173.546 84.8182 173.447 84.6591H173.334V89.2727H171.993ZM173.311 81.6364C173.311 82.2955 173.408 82.8769 173.601 83.3807C173.794 83.8807 174.076 84.2727 174.447 84.5568C174.819 84.8371 175.273 84.9773 175.811 84.9773C176.372 84.9773 176.839 84.8295 177.214 84.5341C177.593 84.2348 177.877 83.8333 178.067 83.3295C178.26 82.822 178.357 82.2576 178.357 81.6364C178.357 81.0227 178.262 80.4697 178.072 79.9773C177.887 79.4811 177.605 79.089 177.226 78.8011C176.851 78.5095 176.379 78.3636 175.811 78.3636C175.266 78.3636 174.807 78.5019 174.436 78.7784C174.065 79.0511 173.785 79.4337 173.595 79.9261C173.406 80.4148 173.311 80.9848 173.311 81.6364ZM185.288 86.1818C184.5 86.1818 183.809 85.9943 183.214 85.6193C182.624 85.2443 182.161 84.7197 181.828 84.0455C181.499 83.3712 181.334 82.5833 181.334 81.6818C181.334 80.7727 181.499 79.9792 181.828 79.3011C182.161 78.6231 182.624 78.0966 183.214 77.7216C183.809 77.3466 184.5 77.1591 185.288 77.1591C186.076 77.1591 186.766 77.3466 187.357 77.7216C187.951 78.0966 188.413 78.6231 188.743 79.3011C189.076 79.9792 189.243 80.7727 189.243 81.6818C189.243 82.5833 189.076 83.3712 188.743 84.0455C188.413 84.7197 187.951 85.2443 187.357 85.6193C186.766 85.9943 186.076 86.1818 185.288 86.1818ZM185.288 84.9773C185.887 84.9773 186.379 84.8239 186.766 84.517C187.152 84.2102 187.438 83.8068 187.624 83.3068C187.809 82.8068 187.902 82.2652 187.902 81.6818C187.902 81.0985 187.809 80.5549 187.624 80.0511C187.438 79.5473 187.152 79.1402 186.766 78.8295C186.379 78.5189 185.887 78.3636 185.288 78.3636C184.69 78.3636 184.197 78.5189 183.811 78.8295C183.425 79.1402 183.139 79.5473 182.953 80.0511C182.768 80.5549 182.675 81.0985 182.675 81.6818C182.675 82.2652 182.768 82.8068 182.953 83.3068C183.139 83.8068 183.425 84.2102 183.811 84.517C184.197 84.8239 184.69 84.9773 185.288 84.9773ZM191.29 86V77.2727H192.631V86H191.29ZM191.972 75.8182C191.71 75.8182 191.485 75.7292 191.295 75.5511C191.11 75.3731 191.017 75.1591 191.017 74.9091C191.017 74.6591 191.11 74.4451 191.295 74.267C191.485 74.089 191.71 74 191.972 74C192.233 74 192.456 74.089 192.642 74.267C192.831 74.4451 192.926 74.6591 192.926 74.9091C192.926 75.1591 192.831 75.3731 192.642 75.5511C192.456 75.7292 192.233 75.8182 191.972 75.8182ZM196.428 80.75V86H195.087V77.2727H196.382V78.6364H196.496C196.7 78.1932 197.011 77.8371 197.428 77.5682C197.844 77.2955 198.382 77.1591 199.041 77.1591C199.632 77.1591 200.149 77.2803 200.592 77.5227C201.036 77.7614 201.38 78.125 201.626 78.6136C201.873 79.0985 201.996 79.7121 201.996 80.4545V86H200.655V80.5455C200.655 79.8598 200.477 79.3258 200.121 78.9432C199.765 78.5568 199.276 78.3636 198.655 78.3636C198.227 78.3636 197.844 78.4564 197.507 78.642C197.174 78.8277 196.911 79.0985 196.717 79.4545C196.524 79.8106 196.428 80.2424 196.428 80.75ZM208.241 77.2727V78.4091H203.719V77.2727H208.241ZM205.037 75.1818H206.378V83.5C206.378 83.8788 206.433 84.1629 206.543 84.3523C206.656 84.5379 206.8 84.6629 206.974 84.7273C207.152 84.7879 207.34 84.8182 207.537 84.8182C207.685 84.8182 207.806 84.8106 207.901 84.7955C207.995 84.7765 208.071 84.7614 208.128 84.75L208.401 85.9545C208.31 85.9886 208.183 86.0227 208.02 86.0568C207.857 86.0947 207.651 86.1136 207.401 86.1136C207.022 86.1136 206.651 86.0322 206.287 85.8693C205.927 85.7064 205.628 85.4583 205.389 85.125C205.154 84.7917 205.037 84.3712 205.037 83.8636V75.1818ZM210.259 86V77.2727H211.554V78.6364H211.668C211.849 78.1705 212.143 77.8087 212.548 77.5511C212.954 77.2898 213.44 77.1591 214.009 77.1591C214.584 77.1591 215.063 77.2898 215.446 77.5511C215.832 77.8087 216.134 78.1705 216.349 78.6364H216.44C216.664 78.1856 216.999 77.8277 217.446 77.5625C217.893 77.2936 218.429 77.1591 219.054 77.1591C219.834 77.1591 220.473 77.4034 220.969 77.892C221.465 78.3769 221.713 79.1326 221.713 80.1591V86H220.372V80.1591C220.372 79.5152 220.196 79.0549 219.844 78.7784C219.491 78.5019 219.077 78.3636 218.599 78.3636C217.986 78.3636 217.51 78.5492 217.173 78.9205C216.836 79.2879 216.668 79.7538 216.668 80.3182V86H215.304V80.0227C215.304 79.5265 215.143 79.1269 214.821 78.8239C214.499 78.517 214.084 78.3636 213.577 78.3636C213.228 78.3636 212.902 78.4564 212.599 78.642C212.3 78.8277 212.058 79.0852 211.872 79.4148C211.69 79.7405 211.599 80.1174 211.599 80.5455V86H210.259ZM227.824 86.1818C226.983 86.1818 226.258 85.9962 225.648 85.625C225.042 85.25 224.574 84.7273 224.244 84.0568C223.919 83.3826 223.756 82.5985 223.756 81.7045C223.756 80.8106 223.919 80.0227 224.244 79.3409C224.574 78.6553 225.032 78.1212 225.619 77.7386C226.21 77.3523 226.9 77.1591 227.688 77.1591C228.142 77.1591 228.591 77.2348 229.034 77.3864C229.477 77.5379 229.881 77.7841 230.244 78.125C230.608 78.4621 230.898 78.9091 231.114 79.4659C231.33 80.0227 231.438 80.7083 231.438 81.5227V82.0909H224.71V80.9318H230.074C230.074 80.4394 229.975 80 229.778 79.6136C229.585 79.2273 229.309 78.9223 228.949 78.6989C228.593 78.4754 228.172 78.3636 227.688 78.3636C227.153 78.3636 226.691 78.4962 226.301 78.7614C225.915 79.0227 225.617 79.3636 225.409 79.7841C225.201 80.2045 225.097 80.6553 225.097 81.1364V81.9091C225.097 82.5682 225.21 83.1269 225.438 83.5852C225.669 84.0398 225.989 84.3864 226.398 84.625C226.807 84.8598 227.282 84.9773 227.824 84.9773C228.176 84.9773 228.494 84.928 228.778 84.8295C229.066 84.7273 229.314 84.5758 229.523 84.375C229.731 84.1705 229.892 83.9167 230.006 83.6136L231.301 83.9773C231.165 84.4167 230.936 84.803 230.614 85.1364C230.292 85.4659 229.894 85.7235 229.42 85.9091C228.947 86.0909 228.415 86.1818 227.824 86.1818ZM234.818 80.75V86H233.477V77.2727H234.773V78.6364H234.886C235.091 78.1932 235.402 77.8371 235.818 77.5682C236.235 77.2955 236.773 77.1591 237.432 77.1591C238.023 77.1591 238.54 77.2803 238.983 77.5227C239.426 77.7614 239.771 78.125 240.017 78.6136C240.263 79.0985 240.386 79.7121 240.386 80.4545V86H239.045V80.5455C239.045 79.8598 238.867 79.3258 238.511 78.9432C238.155 78.5568 237.667 78.3636 237.045 78.3636C236.617 78.3636 236.235 78.4564 235.898 78.642C235.564 78.8277 235.301 79.0985 235.108 79.4545C234.915 79.8106 234.818 80.2424 234.818 80.75ZM246.632 77.2727V78.4091H242.109V77.2727H246.632ZM243.428 75.1818H244.768V83.5C244.768 83.8788 244.823 84.1629 244.933 84.3523C245.047 84.5379 245.191 84.6629 245.365 84.7273C245.543 84.7879 245.731 84.8182 245.928 84.8182C246.075 84.8182 246.196 84.8106 246.291 84.7955C246.386 84.7765 246.462 84.7614 246.518 84.75L246.791 85.9545C246.7 85.9886 246.573 86.0227 246.411 86.0568C246.248 86.0947 246.041 86.1136 245.791 86.1136C245.412 86.1136 245.041 86.0322 244.678 85.8693C244.318 85.7064 244.018 85.4583 243.78 85.125C243.545 84.7917 243.428 84.3712 243.428 83.8636V75.1818ZM254.675 79.2273L253.47 79.5682C253.394 79.3674 253.283 79.1723 253.135 78.983C252.991 78.7898 252.794 78.6307 252.544 78.5057C252.294 78.3807 251.974 78.3182 251.584 78.3182C251.05 78.3182 250.605 78.4413 250.249 78.6875C249.896 78.9299 249.72 79.2386 249.72 79.6136C249.72 79.947 249.841 80.2102 250.084 80.4034C250.326 80.5966 250.705 80.7576 251.22 80.8864L252.516 81.2045C253.296 81.3939 253.877 81.6837 254.26 82.0739C254.643 82.4602 254.834 82.9583 254.834 83.5682C254.834 84.0682 254.69 84.5152 254.402 84.9091C254.118 85.303 253.72 85.6136 253.209 85.8409C252.697 86.0682 252.103 86.1818 251.425 86.1818C250.535 86.1818 249.798 85.9886 249.214 85.6023C248.631 85.2159 248.262 84.6515 248.107 83.9091L249.379 83.5909C249.5 84.0606 249.73 84.4129 250.067 84.6477C250.408 84.8826 250.853 85 251.402 85C252.027 85 252.523 84.8674 252.891 84.6023C253.262 84.3333 253.447 84.0114 253.447 83.6364C253.447 83.3333 253.341 83.0795 253.129 82.875C252.917 82.6667 252.591 82.5114 252.152 82.4091L250.697 82.0682C249.898 81.8788 249.311 81.5852 248.936 81.1875C248.565 80.786 248.379 80.2841 248.379 79.6818C248.379 79.1894 248.518 78.7538 248.794 78.375C249.074 77.9962 249.455 77.6989 249.936 77.483C250.421 77.267 250.97 77.1591 251.584 77.1591C252.447 77.1591 253.125 77.3485 253.618 77.7273C254.114 78.1061 254.466 78.6061 254.675 79.2273ZM263.92 86.2045C263.367 86.2045 262.866 86.1004 262.415 85.892C261.964 85.6799 261.606 85.375 261.341 84.9773C261.076 84.5758 260.943 84.0909 260.943 83.5227C260.943 83.0227 261.042 82.6174 261.239 82.3068C261.436 81.9924 261.699 81.7462 262.028 81.5682C262.358 81.3902 262.722 81.2576 263.119 81.1705C263.521 81.0795 263.924 81.0076 264.33 80.9545C264.86 80.8864 265.29 80.8352 265.619 80.8011C265.953 80.7633 266.195 80.7008 266.347 80.6136C266.502 80.5265 266.58 80.375 266.58 80.1591V80.1136C266.58 79.553 266.426 79.1174 266.119 78.8068C265.816 78.4962 265.356 78.3409 264.739 78.3409C264.098 78.3409 263.597 78.4811 263.233 78.7614C262.869 79.0417 262.614 79.3409 262.466 79.6591L261.193 79.2045C261.42 78.6742 261.723 78.2614 262.102 77.9659C262.485 77.6667 262.902 77.4583 263.352 77.3409C263.807 77.2197 264.254 77.1591 264.693 77.1591C264.973 77.1591 265.295 77.1932 265.659 77.2614C266.027 77.3258 266.381 77.4602 266.722 77.6648C267.066 77.8693 267.352 78.178 267.58 78.5909C267.807 79.0038 267.92 79.5568 267.92 80.25V86H266.58V84.8182H266.511C266.42 85.0076 266.269 85.2102 266.057 85.4261C265.845 85.642 265.563 85.8258 265.21 85.9773C264.858 86.1288 264.428 86.2045 263.92 86.2045ZM264.125 85C264.655 85 265.102 84.8958 265.466 84.6875C265.833 84.4792 266.11 84.2102 266.295 83.8807C266.485 83.5511 266.58 83.2045 266.58 82.8409V81.6136C266.523 81.6818 266.398 81.7443 266.205 81.8011C266.015 81.8542 265.795 81.9015 265.545 81.9432C265.299 81.9811 265.059 82.0152 264.824 82.0455C264.593 82.072 264.405 82.0947 264.261 82.1136C263.913 82.1591 263.587 82.233 263.284 82.3352C262.985 82.4337 262.742 82.5833 262.557 82.7841C262.375 82.9811 262.284 83.25 262.284 83.5909C262.284 84.0568 262.456 84.4091 262.801 84.6477C263.15 84.8826 263.591 85 264.125 85ZM271.709 80.75V86H270.368V77.2727H271.663V78.6364H271.777C271.982 78.1932 272.292 77.8371 272.709 77.5682C273.125 77.2955 273.663 77.1591 274.322 77.1591C274.913 77.1591 275.43 77.2803 275.874 77.5227C276.317 77.7614 276.661 78.125 276.908 78.6136C277.154 79.0985 277.277 79.7121 277.277 80.4545V86H275.936V80.5455C275.936 79.8598 275.758 79.3258 275.402 78.9432C275.046 78.5568 274.557 78.3636 273.936 78.3636C273.508 78.3636 273.125 78.4564 272.788 78.642C272.455 78.8277 272.192 79.0985 271.999 79.4545C271.805 79.8106 271.709 80.2424 271.709 80.75ZM283.023 86.1818C282.295 86.1818 281.653 85.9981 281.097 85.6307C280.54 85.2595 280.104 84.7367 279.79 84.0625C279.475 83.3845 279.318 82.5833 279.318 81.6591C279.318 80.7424 279.475 79.947 279.79 79.2727C280.104 78.5985 280.542 78.0777 281.102 77.7102C281.663 77.3428 282.311 77.1591 283.045 77.1591C283.614 77.1591 284.063 77.2538 284.392 77.4432C284.725 77.6288 284.979 77.8409 285.153 78.0795C285.331 78.3144 285.47 78.5076 285.568 78.6591H285.682V74.3636H287.023V86H285.727V84.6591H285.568C285.47 84.8182 285.33 85.0189 285.148 85.2614C284.966 85.5 284.706 85.714 284.369 85.9034C284.032 86.089 283.583 86.1818 283.023 86.1818ZM283.205 84.9773C283.742 84.9773 284.197 84.8371 284.568 84.5568C284.939 84.2727 285.222 83.8807 285.415 83.3807C285.608 82.8769 285.705 82.2955 285.705 81.6364C285.705 80.9848 285.61 80.4148 285.42 79.9261C285.231 79.4337 284.951 79.0511 284.58 78.7784C284.208 78.5019 283.75 78.3636 283.205 78.3636C282.636 78.3636 282.163 78.5095 281.784 78.8011C281.409 79.089 281.127 79.4811 280.938 79.9773C280.752 80.4697 280.659 81.0227 280.659 81.6364C280.659 82.2576 280.754 82.822 280.943 83.3295C281.136 83.8333 281.42 84.2348 281.795 84.5341C282.174 84.8295 282.644 84.9773 283.205 84.9773ZM299.665 82.4318V77.2727H301.006V86H299.665V84.5227H299.574C299.369 84.9659 299.051 85.3428 298.619 85.6534C298.188 85.9602 297.642 86.1136 296.983 86.1136C296.438 86.1136 295.953 85.9943 295.528 85.7557C295.104 85.5133 294.771 85.1496 294.528 84.6648C294.286 84.1761 294.165 83.5606 294.165 82.8182V77.2727H295.506V82.7273C295.506 83.3636 295.684 83.8712 296.04 84.25C296.4 84.6288 296.858 84.8182 297.415 84.8182C297.748 84.8182 298.087 84.733 298.432 84.5625C298.78 84.392 299.072 84.1307 299.307 83.7784C299.545 83.4261 299.665 82.9773 299.665 82.4318ZM303.462 89.2727V77.2727H304.757V78.6591H304.916C305.015 78.5076 305.151 78.3144 305.325 78.0795C305.503 77.8409 305.757 77.6288 306.087 77.4432C306.42 77.2538 306.871 77.1591 307.439 77.1591C308.174 77.1591 308.821 77.3428 309.382 77.7102C309.943 78.0777 310.38 78.5985 310.695 79.2727C311.009 79.947 311.166 80.7424 311.166 81.6591C311.166 82.5833 311.009 83.3845 310.695 84.0625C310.38 84.7367 309.945 85.2595 309.388 85.6307C308.831 85.9981 308.189 86.1818 307.462 86.1818C306.901 86.1818 306.452 86.089 306.115 85.9034C305.778 85.714 305.518 85.5 305.337 85.2614C305.155 85.0189 305.015 84.8182 304.916 84.6591H304.803V89.2727H303.462ZM304.78 81.6364C304.78 82.2955 304.876 82.8769 305.07 83.3807C305.263 83.8807 305.545 84.2727 305.916 84.5568C306.287 84.8371 306.742 84.9773 307.28 84.9773C307.84 84.9773 308.308 84.8295 308.683 84.5341C309.062 84.2348 309.346 83.8333 309.536 83.3295C309.729 82.822 309.825 82.2576 309.825 81.6364C309.825 81.0227 309.731 80.4697 309.541 79.9773C309.356 79.4811 309.073 79.089 308.695 78.8011C308.32 78.5095 307.848 78.3636 307.28 78.3636C306.734 78.3636 306.276 78.5019 305.905 78.7784C305.534 79.0511 305.253 79.4337 305.064 79.9261C304.875 80.4148 304.78 80.9848 304.78 81.6364ZM316.507 86.1818C315.78 86.1818 315.138 85.9981 314.581 85.6307C314.024 85.2595 313.589 84.7367 313.274 84.0625C312.96 83.3845 312.803 82.5833 312.803 81.6591C312.803 80.7424 312.96 79.947 313.274 79.2727C313.589 78.5985 314.026 78.0777 314.587 77.7102C315.147 77.3428 315.795 77.1591 316.53 77.1591C317.098 77.1591 317.547 77.2538 317.876 77.4432C318.21 77.6288 318.464 77.8409 318.638 78.0795C318.816 78.3144 318.954 78.5076 319.053 78.6591H319.166V74.3636H320.507V86H319.212V84.6591H319.053C318.954 84.8182 318.814 85.0189 318.632 85.2614C318.45 85.5 318.191 85.714 317.854 85.9034C317.517 86.089 317.068 86.1818 316.507 86.1818ZM316.689 84.9773C317.227 84.9773 317.681 84.8371 318.053 84.5568C318.424 84.2727 318.706 83.8807 318.899 83.3807C319.092 82.8769 319.189 82.2955 319.189 81.6364C319.189 80.9848 319.094 80.4148 318.905 79.9261C318.715 79.4337 318.435 79.0511 318.064 78.7784C317.693 78.5019 317.234 78.3636 316.689 78.3636C316.121 78.3636 315.647 78.5095 315.268 78.8011C314.893 79.089 314.611 79.4811 314.422 79.9773C314.236 80.4697 314.143 81.0227 314.143 81.6364C314.143 82.2576 314.238 82.822 314.428 83.3295C314.621 83.8333 314.905 84.2348 315.28 84.5341C315.659 84.8295 316.128 84.9773 316.689 84.9773ZM325.717 86.2045C325.164 86.2045 324.662 86.1004 324.212 85.892C323.761 85.6799 323.403 85.375 323.138 84.9773C322.873 84.5758 322.74 84.0909 322.74 83.5227C322.74 83.0227 322.839 82.6174 323.036 82.3068C323.232 81.9924 323.496 81.7462 323.825 81.5682C324.155 81.3902 324.518 81.2576 324.916 81.1705C325.318 81.0795 325.721 81.0076 326.126 80.9545C326.657 80.8864 327.087 80.8352 327.416 80.8011C327.75 80.7633 327.992 80.7008 328.143 80.6136C328.299 80.5265 328.376 80.375 328.376 80.1591V80.1136C328.376 79.553 328.223 79.1174 327.916 78.8068C327.613 78.4962 327.153 78.3409 326.536 78.3409C325.895 78.3409 325.393 78.4811 325.03 78.7614C324.666 79.0417 324.411 79.3409 324.263 79.6591L322.99 79.2045C323.217 78.6742 323.52 78.2614 323.899 77.9659C324.282 77.6667 324.698 77.4583 325.149 77.3409C325.604 77.2197 326.051 77.1591 326.49 77.1591C326.77 77.1591 327.092 77.1932 327.456 77.2614C327.823 77.3258 328.178 77.4602 328.518 77.6648C328.863 77.8693 329.149 78.178 329.376 78.5909C329.604 79.0038 329.717 79.5568 329.717 80.25V86H328.376V84.8182H328.308C328.217 85.0076 328.066 85.2102 327.854 85.4261C327.642 85.642 327.359 85.8258 327.007 85.9773C326.655 86.1288 326.225 86.2045 325.717 86.2045ZM325.922 85C326.452 85 326.899 84.8958 327.263 84.6875C327.63 84.4792 327.907 84.2102 328.092 83.8807C328.282 83.5511 328.376 83.2045 328.376 82.8409V81.6136C328.32 81.6818 328.195 81.7443 328.001 81.8011C327.812 81.8542 327.592 81.9015 327.342 81.9432C327.096 81.9811 326.856 82.0152 326.621 82.0455C326.39 82.072 326.202 82.0947 326.058 82.1136C325.71 82.1591 325.384 82.233 325.081 82.3352C324.782 82.4337 324.539 82.5833 324.354 82.7841C324.172 82.9811 324.081 83.25 324.081 83.5909C324.081 84.0568 324.253 84.4091 324.598 84.6477C324.946 84.8826 325.388 85 325.922 85ZM335.96 77.2727V78.4091H331.438V77.2727H335.96ZM332.756 75.1818H334.097V83.5C334.097 83.8788 334.152 84.1629 334.261 84.3523C334.375 84.5379 334.519 84.6629 334.693 84.7273C334.871 84.7879 335.059 84.8182 335.256 84.8182C335.403 84.8182 335.525 84.8106 335.619 84.7955C335.714 84.7765 335.79 84.7614 335.847 84.75L336.119 85.9545C336.028 85.9886 335.902 86.0227 335.739 86.0568C335.576 86.0947 335.369 86.1136 335.119 86.1136C334.741 86.1136 334.369 86.0322 334.006 85.8693C333.646 85.7064 333.347 85.4583 333.108 85.125C332.873 84.7917 332.756 84.3712 332.756 83.8636V75.1818ZM341.543 86.1818C340.702 86.1818 339.976 85.9962 339.366 85.625C338.76 85.25 338.293 84.7273 337.963 84.0568C337.637 83.3826 337.474 82.5985 337.474 81.7045C337.474 80.8106 337.637 80.0227 337.963 79.3409C338.293 78.6553 338.751 78.1212 339.338 77.7386C339.929 77.3523 340.618 77.1591 341.406 77.1591C341.861 77.1591 342.31 77.2348 342.753 77.3864C343.196 77.5379 343.599 77.7841 343.963 78.125C344.327 78.4621 344.616 78.9091 344.832 79.4659C345.048 80.0227 345.156 80.7083 345.156 81.5227V82.0909H338.429V80.9318H343.793C343.793 80.4394 343.694 80 343.497 79.6136C343.304 79.2273 343.027 78.9223 342.668 78.6989C342.312 78.4754 341.891 78.3636 341.406 78.3636C340.872 78.3636 340.41 78.4962 340.02 78.7614C339.634 79.0227 339.336 79.3636 339.128 79.7841C338.92 80.2045 338.815 80.6553 338.815 81.1364V81.9091C338.815 82.5682 338.929 83.1269 339.156 83.5852C339.387 84.0398 339.707 84.3864 340.116 84.625C340.526 84.8598 341.001 84.9773 341.543 84.9773C341.895 84.9773 342.213 84.928 342.497 84.8295C342.785 84.7273 343.033 84.5758 343.241 84.375C343.45 84.1705 343.611 83.9167 343.724 83.6136L345.02 83.9773C344.884 84.4167 344.654 84.803 344.332 85.1364C344.01 85.4659 343.613 85.7235 343.139 85.9091C342.666 86.0909 342.134 86.1818 341.543 86.1818ZM353.378 79.2273L352.173 79.5682C352.098 79.3674 351.986 79.1723 351.838 78.983C351.694 78.7898 351.497 78.6307 351.247 78.5057C350.997 78.3807 350.677 78.3182 350.287 78.3182C349.753 78.3182 349.308 78.4413 348.952 78.6875C348.599 78.9299 348.423 79.2386 348.423 79.6136C348.423 79.947 348.545 80.2102 348.787 80.4034C349.029 80.5966 349.408 80.7576 349.923 80.8864L351.219 81.2045C351.999 81.3939 352.58 81.6837 352.963 82.0739C353.346 82.4602 353.537 82.9583 353.537 83.5682C353.537 84.0682 353.393 84.5152 353.105 84.9091C352.821 85.303 352.423 85.6136 351.912 85.8409C351.401 86.0682 350.806 86.1818 350.128 86.1818C349.238 86.1818 348.501 85.9886 347.918 85.6023C347.334 85.2159 346.965 84.6515 346.81 83.9091L348.082 83.5909C348.204 84.0606 348.433 84.4129 348.77 84.6477C349.111 84.8826 349.556 85 350.105 85C350.73 85 351.226 84.8674 351.594 84.6023C351.965 84.3333 352.151 84.0114 352.151 83.6364C352.151 83.3333 352.045 83.0795 351.832 82.875C351.62 82.6667 351.295 82.5114 350.855 82.4091L349.401 82.0682C348.601 81.8788 348.014 81.5852 347.639 81.1875C347.268 80.786 347.082 80.2841 347.082 79.6818C347.082 79.1894 347.221 78.7538 347.497 78.375C347.777 77.9962 348.158 77.6989 348.639 77.483C349.124 77.267 349.673 77.1591 350.287 77.1591C351.151 77.1591 351.829 77.3485 352.321 77.7273C352.817 78.1061 353.17 78.6061 353.378 79.2273ZM356.533 86.0909C356.252 86.0909 356.012 85.9905 355.811 85.7898C355.61 85.589 355.51 85.3485 355.51 85.0682C355.51 84.7879 355.61 84.5473 355.811 84.3466C356.012 84.1458 356.252 84.0455 356.533 84.0455C356.813 84.0455 357.054 84.1458 357.254 84.3466C357.455 84.5473 357.555 84.7879 357.555 85.0682C357.555 85.2538 357.508 85.4242 357.413 85.5795C357.322 85.7348 357.199 85.8598 357.044 85.9545C356.893 86.0455 356.722 86.0909 356.533 86.0909Z" fill="black"/>
<path d="M28.899 18.2082C30.8421 18.2082 32.4172 16.6331 32.4172 14.6901C32.4172 12.747 30.8421 11.1719 28.899 11.1719C26.956 11.1719 25.3809 12.747 25.3809 14.6901C25.3809 16.6331 26.956 18.2082 28.899 18.2082Z" fill="#FF4D69"/>
<path d="M140.307 28.7629C142.25 28.7629 143.825 27.1878 143.825 25.2447C143.825 23.3017 142.25 21.7266 140.307 21.7266C138.364 21.7266 136.789 23.3017 136.789 25.2447C136.789 27.1878 138.364 28.7629 140.307 28.7629Z" fill="#00C99F"/>
<path d="M132.098 137.825C134.041 137.825 135.616 136.25 135.616 134.307C135.616 132.364 134.041 130.789 132.098 130.789C130.155 130.789 128.58 132.364 128.58 134.307C128.58 136.25 130.155 137.825 132.098 137.825Z" fill="#FFA100"/>
<path d="M20.6901 128.447C22.6331 128.447 24.2082 126.871 24.2082 124.928C24.2082 122.985 22.6331 121.41 20.6901 121.41C18.747 121.41 17.1719 122.985 17.1719 124.928C17.1719 126.871 18.747 128.447 20.6901 128.447Z" fill="#00C99F"/>
<path d="M75.8082 133.136C108.192 133.136 134.445 106.884 134.445 74.4996C134.445 42.1157 108.192 15.8633 75.8082 15.8633C43.4243 15.8633 17.1719 42.1157 17.1719 74.4996C17.1719 106.884 43.4243 133.136 75.8082 133.136Z" fill="#E7EFFF"/>
<path d="M115.68 32.2812V116.718C115.68 117.962 115.186 119.155 114.306 120.035C113.426 120.914 112.233 121.409 110.989 121.409H40.6252C33.8371 116.315 28.2354 109.809 24.207 102.34V32.2812H115.68Z" fill="#C5B7FB"/>
<path d="M110.989 36.9727V116.718H35.1373C32.8692 114.547 30.7826 112.194 28.8984 109.682V36.9727H110.989Z" fill="white"/>
<path d="M102.78 74.4995H37.1072C36.4851 74.4995 35.8885 74.2524 35.4487 73.8125C35.0088 73.3727 34.7617 72.7761 34.7617 72.154C34.7617 71.532 35.0088 70.9354 35.4487 70.4956C35.8885 70.0557 36.4851 69.8086 37.1072 69.8086H102.78C103.402 69.8086 103.999 70.0557 104.438 70.4956C104.878 70.9354 105.125 71.532 105.125 72.154C105.125 72.7761 104.878 73.3727 104.438 73.8125C103.999 74.2524 103.402 74.4995 102.78 74.4995ZM102.78 83.8813H37.1072C36.4851 83.8813 35.8885 83.6342 35.4487 83.1944C35.0088 82.7545 34.7617 82.1579 34.7617 81.5359C34.7617 80.9138 35.0088 80.3172 35.4487 79.8774C35.8885 79.4375 36.4851 79.1904 37.1072 79.1904H102.78C103.402 79.1904 103.999 79.4375 104.438 79.8774C104.878 80.3172 105.125 80.9138 105.125 81.5359C105.125 82.1579 104.878 82.7545 104.438 83.1944C103.999 83.6342 103.402 83.8813 102.78 83.8813ZM102.78 93.2631H37.1072C36.4851 93.2631 35.8885 93.016 35.4487 92.5762C35.0088 92.1363 34.7617 91.5397 34.7617 90.9177C34.7617 90.2956 35.0088 89.6991 35.4487 89.2592C35.8885 88.8193 36.4851 88.5722 37.1072 88.5722H102.78C103.402 88.5722 103.999 88.8193 104.438 89.2592C104.878 89.6991 105.125 90.2956 105.125 90.9177C105.125 91.5397 104.878 92.1363 104.438 92.5762C103.999 93.016 103.402 93.2631 102.78 93.2631ZM102.78 102.645H37.1072C36.4851 102.645 35.8885 102.398 35.4487 101.958C35.0088 101.518 34.7617 100.922 34.7617 100.3C34.7617 99.6774 35.0088 99.0809 35.4487 98.641C35.8885 98.2012 36.4851 97.954 37.1072 97.954H102.78C103.402 97.954 103.999 98.2012 104.438 98.641C104.878 99.0809 105.125 99.6774 105.125 100.3C105.125 100.922 104.878 101.518 104.438 101.958C103.999 102.398 103.402 102.645 102.78 102.645ZM50.0072 112.027H37.1072C36.4851 112.027 35.8885 111.78 35.4487 111.34C35.0088 110.9 34.7617 110.303 34.7617 109.681C34.7617 109.059 35.0088 108.463 35.4487 108.023C35.8885 107.583 36.4851 107.336 37.1072 107.336H50.0072C50.6292 107.336 51.2258 107.583 51.6657 108.023C52.1055 108.463 52.3526 109.059 52.3526 109.681C52.3526 110.303 52.1055 110.9 51.6657 111.34C51.2258 111.78 50.6292 112.027 50.0072 112.027Z" fill="#C5B7FB"/>
<path d="M78.1528 117.891V133.136C74.4243 133.299 70.6887 133.095 67.0002 132.526L64.0801 117.891H78.1528Z" fill="#874EE9"/>
<path d="M78.1543 116.719H85.1907V120.237C85.1907 121.17 84.82 122.065 84.1602 122.725C83.5004 123.384 82.6056 123.755 81.6725 123.755H78.1543V116.719Z" fill="#C5B7FB"/>
<path d="M61.7345 112.028C66.2682 112.028 69.9436 108.352 69.9436 103.818C69.9436 99.2847 66.2682 95.6094 61.7345 95.6094C57.2007 95.6094 53.5254 99.2847 53.5254 103.818C53.5254 108.352 57.2007 112.028 61.7345 112.028Z" fill="#874EE9"/>
<path d="M126.234 112.028C130.768 112.028 134.444 108.352 134.444 103.818C134.444 99.2847 130.768 95.6094 126.234 95.6094C121.701 95.6094 118.025 99.2847 118.025 103.818C118.025 108.352 121.701 112.028 126.234 112.028Z" fill="#874EE9"/>
<path d="M123.889 135.48C122.956 135.48 122.061 135.109 121.402 134.449C120.742 133.789 120.371 132.895 120.371 131.961V75.6705C120.371 74.7374 120.742 73.8426 121.402 73.1828C122.061 72.523 122.956 72.1523 123.889 72.1523C124.822 72.1523 125.717 72.523 126.377 73.1828C127.037 73.8426 127.407 74.7374 127.407 75.6705V131.961C127.407 132.895 127.037 133.789 126.377 134.449C125.717 135.109 124.822 135.48 123.889 135.48Z" fill="#874EE9"/>
<path d="M120.372 78.0156C120.372 132.489 120.254 129.522 120.372 129.616C110.704 122.375 99.4458 117.55 87.5352 115.543V92.0884C99.4458 90.0817 110.704 85.2567 120.372 78.0156Z" fill="#C5B7FB"/>
<path d="M84.0162 88.5703H65.2526C63.3095 88.5703 61.7344 90.1455 61.7344 92.0885V115.543C61.7344 117.486 63.3095 119.061 65.2526 119.061H84.0162C85.9592 119.061 87.5344 117.486 87.5344 115.543V92.0885C87.5344 90.1455 85.9592 88.5703 84.0162 88.5703Z" fill="#874EE9"/>
<path d="M69.9451 83.8828H74.636C75.258 83.8828 75.8546 84.1299 76.2945 84.5698C76.7343 85.0096 76.9814 85.6062 76.9814 86.2283V88.5737H67.5996V86.2283C67.5996 85.6062 67.8467 85.0096 68.2866 84.5698C68.7264 84.1299 69.323 83.8828 69.9451 83.8828Z" fill="#874EE9"/>
<path d="M78.1536 123.754V133.136C75.8078 133.243 73.4575 133.2 71.1172 133.007V124.927C71.1172 124.616 71.2407 124.317 71.4607 124.097C71.6806 123.877 71.9789 123.754 72.2899 123.754H78.1536Z" fill="#874EE9"/>
<path d="M76.9803 95.6072H67.5985C67.2875 95.6072 66.9892 95.4836 66.7693 95.2637C66.5493 95.0438 66.4258 94.7455 66.4258 94.4344C66.4258 94.1234 66.5493 93.8251 66.7693 93.6052C66.9892 93.3853 67.2875 93.2617 67.5985 93.2617H76.9803C77.2914 93.2617 77.5896 93.3853 77.8096 93.6052C78.0295 93.8251 78.1531 94.1234 78.1531 94.4344C78.1531 94.7455 78.0295 95.0438 77.8096 95.2637C77.5896 95.4836 77.2914 95.6072 76.9803 95.6072ZM76.9803 101.471H67.5985C67.2875 101.471 66.9892 101.347 66.7693 101.127C66.5493 100.907 66.4258 100.609 66.4258 100.298C66.4258 99.9871 66.5493 99.6888 66.7693 99.4688C66.9892 99.2489 67.2875 99.1254 67.5985 99.1254H76.9803C77.2914 99.1254 77.5896 99.2489 77.8096 99.4688C78.0295 99.6888 78.1531 99.9871 78.1531 100.298C78.1531 100.609 78.0295 100.907 77.8096 101.127C77.5896 101.347 77.2914 101.471 76.9803 101.471Z" fill="white"/>
<path d="M50.0078 20.5547H110.99C112.234 20.5547 113.427 21.0489 114.307 21.9286C115.186 22.8083 115.681 24.0015 115.681 25.2456V32.282H50.0078V20.5547Z" fill="#874EE9"/>
<path d="M57.0434 32.282H24.207V25.2456C24.207 24.0015 24.7013 22.8084 25.581 21.9286C26.4607 21.0489 27.6538 20.5547 28.8979 20.5547H50.007C51.0175 20.5525 52.0017 20.8766 52.8131 21.4788C53.6245 22.081 54.2198 22.9292 54.5103 23.897L57.0434 32.282Z" fill="#874EE9"/>
<path d="M48.8357 28.7612C50.131 28.7612 51.1811 27.7111 51.1811 26.4158C51.1811 25.1204 50.131 24.0703 48.8357 24.0703C47.5403 24.0703 46.4902 25.1204 46.4902 26.4158C46.4902 27.7111 47.5403 28.7612 48.8357 28.7612Z" fill="white"/>
<path d="M108.644 28.7612C109.94 28.7612 110.99 27.7111 110.99 26.4158C110.99 25.1204 109.94 24.0703 108.644 24.0703C107.349 24.0703 106.299 25.1204 106.299 26.4158C106.299 27.7111 107.349 28.7612 108.644 28.7612Z" fill="white"/>
<path d="M100.435 28.7612C101.731 28.7612 102.781 27.7111 102.781 26.4158C102.781 25.1204 101.731 24.0703 100.435 24.0703C99.1399 24.0703 98.0898 25.1204 98.0898 26.4158C98.0898 27.7111 99.1399 28.7612 100.435 28.7612Z" fill="white"/>
<path d="M92.2263 28.7612C93.5217 28.7612 94.5718 27.7111 94.5718 26.4158C94.5718 25.1204 93.5217 24.0703 92.2263 24.0703C90.931 24.0703 89.8809 25.1204 89.8809 26.4158C89.8809 27.7111 90.931 28.7612 92.2263 28.7612Z" fill="white"/>
<path d="M103.953 41.6641H35.9353C34.6399 41.6641 33.5898 42.7142 33.5898 44.0095V62.7732C33.5898 64.0685 34.6399 65.1186 35.9353 65.1186H103.953C105.249 65.1186 106.299 64.0685 106.299 62.7732V44.0095C106.299 42.7142 105.249 41.6641 103.953 41.6641Z" fill="#874EE9"/>
</svg>
