<svg width="95" height="44" viewBox="0 0 95 44" fill="none" xmlns="http://www.w3.org/2000/svg">
<path d="M14.5384 29L10.3764 14.4545H13.7358L16.1435 24.5611H16.2642L18.9205 14.4545H21.7969L24.446 24.5824H24.5739L26.9815 14.4545H30.3409L26.179 29H23.1818L20.4119 19.4901H20.2983L17.5355 29H14.5384ZM33.0291 29H29.7337L34.755 14.4545H38.718L43.7322 29H40.4368L36.7933 17.7784H36.6797L33.0291 29ZM32.8232 23.2827H40.6072V25.6832H32.8232V23.2827ZM46.2944 14.4545L49.81 25.5057H49.945L53.4677 14.4545H56.8768L51.8626 29H47.8995L42.8782 14.4545H46.2944ZM61.2553 14.4545L64.771 25.5057H64.9059L68.4286 14.4545H71.8377L66.8235 29H62.8604L57.8391 14.4545H61.2553ZM73.5884 29V14.4545H83.3896V16.9901H76.6637V20.456H82.8853V22.9915H76.6637V26.4645H83.418V29H73.5884Z" fill="black"/>
</svg>
