<svg width="483" height="174" viewBox="0 0 483 174" fill="none" xmlns="http://www.w3.org/2000/svg">
<rect width="481" height="113" rx="9.99458" fill="#FAF6FF"/>
<path d="M29.3395 28.4531C29.2732 27.8329 28.9938 27.3499 28.5014 27.0043C28.0137 26.6586 27.3793 26.4858 26.598 26.4858C26.0488 26.4858 25.5777 26.5687 25.1847 26.7344C24.7917 26.9001 24.491 27.125 24.2827 27.4091C24.0743 27.6932 23.9678 28.0175 23.9631 28.3821C23.9631 28.6851 24.0317 28.9479 24.169 29.1705C24.3111 29.393 24.5028 29.5824 24.7443 29.7386C24.9858 29.8902 25.2533 30.018 25.5469 30.1222C25.8404 30.2263 26.1364 30.3139 26.4347 30.3849L27.7983 30.7259C28.3475 30.8537 28.8755 31.0265 29.3821 31.2443C29.8935 31.4621 30.3504 31.7367 30.7528 32.0682C31.16 32.3996 31.482 32.7997 31.7188 33.2685C31.9555 33.7372 32.0739 34.2865 32.0739 34.9162C32.0739 35.7685 31.8561 36.5189 31.4205 37.1676C30.9848 37.8116 30.3551 38.3158 29.5312 38.6804C28.7121 39.0402 27.7202 39.2202 26.5554 39.2202C25.4238 39.2202 24.4413 39.045 23.608 38.6946C22.7794 38.3442 22.1307 37.8329 21.6619 37.1605C21.1979 36.4882 20.947 35.669 20.9091 34.7031H23.5014C23.5393 35.2098 23.6955 35.6312 23.9702 35.9673C24.2448 36.3035 24.6023 36.5545 25.0426 36.7202C25.4877 36.8859 25.9848 36.9688 26.5341 36.9688C27.107 36.9688 27.6089 36.8835 28.0398 36.7131C28.4754 36.5379 28.8163 36.2964 29.0625 35.9886C29.3087 35.6761 29.4342 35.3116 29.4389 34.8949C29.4342 34.5161 29.3229 34.2036 29.1051 33.9574C28.8873 33.7064 28.5819 33.4981 28.1889 33.3324C27.8007 33.1619 27.3461 33.0104 26.8253 32.8778L25.1705 32.4517C23.9725 32.1439 23.0256 31.6776 22.3295 31.0526C21.6383 30.4228 21.2926 29.5871 21.2926 28.5455C21.2926 27.6884 21.5246 26.938 21.9886 26.294C22.4574 25.6501 23.0942 25.1506 23.8991 24.7955C24.7041 24.4356 25.6155 24.2557 26.6335 24.2557C27.6657 24.2557 28.5701 24.4356 29.3466 24.7955C30.1278 25.1506 30.741 25.6454 31.1861 26.2798C31.6312 26.9096 31.8608 27.634 31.875 28.4531H29.3395ZM39.7567 28.0909V30.0795H33.4854V28.0909H39.7567ZM35.0337 25.4773H37.6048V35.7188C37.6048 36.0644 37.6568 36.3295 37.761 36.5142C37.8699 36.6941 38.012 36.8172 38.1871 36.8835C38.3623 36.9498 38.5565 36.983 38.7695 36.983C38.9305 36.983 39.0773 36.9711 39.2099 36.9474C39.3472 36.9238 39.4513 36.9025 39.5224 36.8835L39.9556 38.8935C39.8183 38.9408 39.6218 38.9929 39.3661 39.0497C39.1152 39.1065 38.8074 39.1397 38.4428 39.1491C37.7989 39.1681 37.2189 39.071 36.7028 38.858C36.1867 38.6402 35.7771 38.304 35.4741 37.8494C35.1758 37.3949 35.029 36.8267 35.0337 36.1449V25.4773ZM41.907 39V28.0909H44.3999V29.9091H44.5135C44.7124 29.2794 45.0533 28.794 45.5362 28.4531C46.0239 28.1075 46.5803 27.9347 47.2053 27.9347C47.3473 27.9347 47.5059 27.9418 47.6811 27.956C47.861 27.9654 48.0102 27.982 48.1286 28.0057V30.3707C48.0196 30.3329 47.8468 30.2997 47.6101 30.2713C47.3781 30.2382 47.1532 30.2216 46.9354 30.2216C46.4666 30.2216 46.0452 30.3234 45.6712 30.527C45.3018 30.7259 45.0107 31.0028 44.7976 31.358C44.5845 31.7131 44.478 32.1226 44.478 32.5866V39H41.907ZM54.217 39.2131C53.1232 39.2131 52.1786 38.9858 51.3832 38.5312C50.5924 38.072 49.984 37.4233 49.5579 36.5852C49.1317 35.7424 48.9187 34.7505 48.9187 33.6094C48.9187 32.4872 49.1317 31.5024 49.5579 30.6548C49.9888 29.8026 50.5901 29.1397 51.3619 28.6662C52.1336 28.188 53.0404 27.9489 54.082 27.9489C54.7544 27.9489 55.3888 28.0578 55.9854 28.2756C56.5868 28.4886 57.1171 28.8201 57.5763 29.2699C58.0404 29.7197 58.4049 30.2926 58.6701 30.9886C58.9353 31.6799 59.0678 32.5038 59.0678 33.4602V34.2486H50.1261V32.5156H56.6033C56.5986 32.0232 56.4921 31.5852 56.2837 31.2017C56.0754 30.8134 55.7842 30.508 55.4102 30.2855C55.0408 30.063 54.61 29.9517 54.1175 29.9517C53.592 29.9517 53.1303 30.0795 52.7326 30.3352C52.3349 30.5862 52.0247 30.9176 51.8022 31.3295C51.5844 31.7367 51.4731 32.1842 51.4684 32.6719V34.1847C51.4684 34.8191 51.5844 35.3636 51.8164 35.8182C52.0484 36.268 52.3728 36.6136 52.7894 36.8551C53.2061 37.0919 53.6938 37.2102 54.2525 37.2102C54.6265 37.2102 54.9651 37.1581 55.2681 37.054C55.5711 36.9451 55.8339 36.7865 56.0565 36.5781C56.279 36.3698 56.4471 36.1117 56.5607 35.804L58.9613 36.0739C58.8098 36.7083 58.521 37.2623 58.0948 37.7358C57.6734 38.2045 57.1336 38.5691 56.4755 38.8295C55.8174 39.0852 55.0645 39.2131 54.217 39.2131ZM64.3821 39.2202C63.6908 39.2202 63.0682 39.0971 62.5142 38.8509C61.965 38.5999 61.5294 38.2306 61.2074 37.7429C60.8902 37.2552 60.7315 36.6539 60.7315 35.9389C60.7315 35.3234 60.8452 34.8144 61.0724 34.4119C61.2997 34.0095 61.6098 33.6875 62.0028 33.446C62.3958 33.2045 62.8385 33.0223 63.331 32.8991C63.8281 32.7713 64.3419 32.679 64.8722 32.6222C65.5114 32.5559 66.0298 32.4967 66.4276 32.4446C66.8253 32.3878 67.1141 32.3026 67.294 32.1889C67.4787 32.0705 67.571 31.8883 67.571 31.642V31.5994C67.571 31.0644 67.4124 30.6501 67.0952 30.3565C66.7779 30.063 66.321 29.9162 65.7244 29.9162C65.0947 29.9162 64.5952 30.0535 64.2259 30.3281C63.8613 30.6027 63.6151 30.9271 63.4872 31.3011L61.0866 30.9602C61.276 30.2973 61.5885 29.7434 62.0241 29.2983C62.4598 28.8485 62.9924 28.5123 63.6222 28.2898C64.2519 28.0625 64.9479 27.9489 65.7102 27.9489C66.2358 27.9489 66.759 28.0104 67.2798 28.1335C67.8007 28.2566 68.2765 28.4602 68.7074 28.7443C69.1383 29.0237 69.4839 29.4048 69.7443 29.8878C70.0095 30.3707 70.142 30.9744 70.142 31.6989V39H67.6705V37.5014H67.5852C67.429 37.8045 67.2088 38.0885 66.9247 38.3537C66.6454 38.6141 66.2926 38.8248 65.8665 38.9858C65.4451 39.142 64.9503 39.2202 64.3821 39.2202ZM65.0497 37.331C65.5658 37.331 66.0133 37.2292 66.392 37.0256C66.7708 36.8172 67.062 36.5426 67.2656 36.2017C67.474 35.8608 67.5781 35.4891 67.5781 35.0866V33.8011C67.4976 33.8674 67.3603 33.929 67.1662 33.9858C66.9768 34.0426 66.7637 34.0923 66.527 34.1349C66.2902 34.1776 66.0559 34.2154 65.8239 34.2486C65.5919 34.2817 65.3906 34.3101 65.2202 34.3338C64.8366 34.3859 64.4934 34.4711 64.1903 34.5895C63.8873 34.7079 63.6482 34.8736 63.473 35.0866C63.2978 35.295 63.2102 35.5649 63.2102 35.8963C63.2102 36.3698 63.383 36.7273 63.7287 36.9688C64.0743 37.2102 64.5147 37.331 65.0497 37.331ZM72.7273 39V28.0909H75.1847V29.9446H75.3125C75.5398 29.3196 75.9162 28.8319 76.4418 28.4815C76.9673 28.1264 77.5947 27.9489 78.3239 27.9489C79.0625 27.9489 79.6851 28.1288 80.1918 28.4886C80.7031 28.8437 81.063 29.3291 81.2713 29.9446H81.3849C81.6264 29.3385 82.0336 28.8556 82.6065 28.4957C83.1842 28.1312 83.8684 27.9489 84.6591 27.9489C85.6629 27.9489 86.482 28.2661 87.1165 28.9006C87.7509 29.535 88.0682 30.4607 88.0682 31.6776V39H85.4901V32.0753C85.4901 31.3982 85.3101 30.9034 84.9503 30.5909C84.5904 30.2737 84.1501 30.1151 83.6293 30.1151C83.009 30.1151 82.5237 30.3092 82.1733 30.6974C81.8277 31.081 81.6548 31.5805 81.6548 32.196V39H79.1335V31.9688C79.1335 31.4053 78.9631 30.9555 78.6222 30.6193C78.286 30.2831 77.8456 30.1151 77.3011 30.1151C76.9318 30.1151 76.5956 30.2098 76.2926 30.3991C75.9896 30.5838 75.7481 30.8466 75.5682 31.1875C75.3883 31.5237 75.2983 31.9167 75.2983 32.3665V39H72.7273ZM93.2475 24.4545V39H90.6765V24.4545H93.2475ZM95.8913 39V28.0909H98.4624V39H95.8913ZM97.1839 26.5426C96.7768 26.5426 96.4264 26.4077 96.1328 26.1378C95.8393 25.8632 95.6925 25.5341 95.6925 25.1506C95.6925 24.7623 95.8393 24.4332 96.1328 24.1634C96.4264 23.8887 96.7768 23.7514 97.1839 23.7514C97.5959 23.7514 97.9463 23.8887 98.2351 24.1634C98.5286 24.4332 98.6754 24.7623 98.6754 25.1506C98.6754 25.5341 98.5286 25.8632 98.2351 26.1378C97.9463 26.4077 97.5959 26.5426 97.1839 26.5426ZM103.677 32.608V39H101.106V28.0909H103.564V29.9446H103.691C103.942 29.3338 104.342 28.8485 104.892 28.4886C105.446 28.1288 106.13 27.9489 106.944 27.9489C107.697 27.9489 108.353 28.1098 108.912 28.4318C109.475 28.7538 109.911 29.2202 110.218 29.831C110.531 30.4418 110.685 31.1828 110.68 32.054V39H108.109V32.4517C108.109 31.7225 107.92 31.152 107.541 30.7401C107.167 30.3281 106.648 30.1222 105.985 30.1222C105.536 30.1222 105.136 30.2216 104.785 30.4205C104.44 30.6146 104.167 30.8963 103.968 31.2656C103.774 31.6349 103.677 32.0824 103.677 32.608ZM118.123 39.2131C117.029 39.2131 116.085 38.9858 115.289 38.5312C114.499 38.072 113.89 37.4233 113.464 36.5852C113.038 35.7424 112.825 34.7505 112.825 33.6094C112.825 32.4872 113.038 31.5024 113.464 30.6548C113.895 29.8026 114.496 29.1397 115.268 28.6662C116.04 28.188 116.947 27.9489 117.988 27.9489C118.661 27.9489 119.295 28.0578 119.892 28.2756C120.493 28.4886 121.023 28.8201 121.483 29.2699C121.947 29.7197 122.311 30.2926 122.576 30.9886C122.842 31.6799 122.974 32.5038 122.974 33.4602V34.2486H114.032V32.5156H120.51C120.505 32.0232 120.398 31.5852 120.19 31.2017C119.982 30.8134 119.69 30.508 119.316 30.2855C118.947 30.063 118.516 29.9517 118.024 29.9517C117.498 29.9517 117.037 30.0795 116.639 30.3352C116.241 30.5862 115.931 30.9176 115.708 31.3295C115.491 31.7367 115.379 32.1842 115.375 32.6719V34.1847C115.375 34.8191 115.491 35.3636 115.723 35.8182C115.955 36.268 116.279 36.6136 116.696 36.8551C117.112 37.0919 117.6 37.2102 118.159 37.2102C118.533 37.2102 118.871 37.1581 119.174 37.054C119.477 36.9451 119.74 36.7865 119.963 36.5781C120.185 36.3698 120.353 36.1117 120.467 35.804L122.868 36.0739C122.716 36.7083 122.427 37.2623 122.001 37.7358C121.58 38.2045 121.04 38.5691 120.382 38.8295C119.724 39.0852 118.971 39.2131 118.123 39.2131ZM291.428 39H288.615L293.736 24.4545H296.989L302.116 39H299.304L295.419 27.4375H295.305L291.428 39ZM291.52 33.2969H299.19V35.4134H291.52V33.2969ZM303.919 43.0909V28.0909H306.447V29.8949H306.596C306.729 29.6297 306.916 29.348 307.157 29.0497C307.399 28.7467 307.725 28.4886 308.137 28.2756C308.549 28.0578 309.075 27.9489 309.714 27.9489C310.557 27.9489 311.317 28.1643 311.994 28.5952C312.676 29.0213 313.216 29.6534 313.613 30.4915C314.016 31.3248 314.217 32.3475 314.217 33.5597C314.217 34.7576 314.02 35.7756 313.627 36.6136C313.234 37.4517 312.699 38.0909 312.022 38.5312C311.345 38.9716 310.578 39.1918 309.721 39.1918C309.096 39.1918 308.578 39.0876 308.166 38.8793C307.754 38.6709 307.422 38.42 307.172 38.1264C306.925 37.8281 306.734 37.5464 306.596 37.2812H306.49V43.0909H303.919ZM306.44 33.5455C306.44 34.2509 306.539 34.8688 306.738 35.3991C306.942 35.9295 307.233 36.3437 307.612 36.642C307.995 36.9356 308.459 37.0824 309.004 37.0824C309.572 37.0824 310.048 36.9309 310.431 36.6278C310.815 36.3201 311.104 35.901 311.298 35.3707C311.497 34.8357 311.596 34.2273 311.596 33.5455C311.596 32.8684 311.499 32.267 311.305 31.7415C311.111 31.2159 310.822 30.804 310.439 30.5057C310.055 30.2074 309.577 30.0582 309.004 30.0582C308.455 30.0582 307.988 30.2027 307.605 30.4915C307.221 30.7803 306.93 31.1851 306.731 31.706C306.537 32.2268 306.44 32.84 306.44 33.5455ZM316.419 43.0909V28.0909H318.947V29.8949H319.096C319.229 29.6297 319.416 29.348 319.657 29.0497C319.899 28.7467 320.225 28.4886 320.637 28.2756C321.049 28.0578 321.575 27.9489 322.214 27.9489C323.057 27.9489 323.817 28.1643 324.494 28.5952C325.176 29.0213 325.716 29.6534 326.113 30.4915C326.516 31.3248 326.717 32.3475 326.717 33.5597C326.717 34.7576 326.52 35.7756 326.127 36.6136C325.734 37.4517 325.199 38.0909 324.522 38.5312C323.845 38.9716 323.078 39.1918 322.221 39.1918C321.596 39.1918 321.078 39.0876 320.666 38.8793C320.254 38.6709 319.922 38.42 319.672 38.1264C319.425 37.8281 319.234 37.5464 319.096 37.2812H318.99V43.0909H316.419ZM318.94 33.5455C318.94 34.2509 319.039 34.8688 319.238 35.3991C319.442 35.9295 319.733 36.3437 320.112 36.642C320.495 36.9356 320.959 37.0824 321.504 37.0824C322.072 37.0824 322.548 36.9309 322.931 36.6278C323.315 36.3201 323.604 35.901 323.798 35.3707C323.997 34.8357 324.096 34.2273 324.096 33.5455C324.096 32.8684 323.999 32.267 323.805 31.7415C323.611 31.2159 323.322 30.804 322.939 30.5057C322.555 30.2074 322.077 30.0582 321.504 30.0582C320.955 30.0582 320.488 30.2027 320.105 30.4915C319.721 30.7803 319.43 31.1851 319.231 31.706C319.037 32.2268 318.94 32.84 318.94 33.5455ZM333.677 39.2131C332.612 39.2131 331.689 38.9787 330.907 38.5099C330.126 38.0412 329.52 37.3854 329.089 36.5426C328.663 35.6998 328.45 34.715 328.45 33.5881C328.45 32.4612 328.663 31.474 329.089 30.6264C329.52 29.7789 330.126 29.1207 330.907 28.652C331.689 28.1832 332.612 27.9489 333.677 27.9489C334.743 27.9489 335.666 28.1832 336.447 28.652C337.228 29.1207 337.832 29.7789 338.258 30.6264C338.689 31.474 338.904 32.4612 338.904 33.5881C338.904 34.715 338.689 35.6998 338.258 36.5426C337.832 37.3854 337.228 38.0412 336.447 38.5099C335.666 38.9787 334.743 39.2131 333.677 39.2131ZM333.691 37.1534C334.269 37.1534 334.752 36.9948 335.14 36.6776C335.529 36.3556 335.817 35.9247 336.007 35.3849C336.201 34.8452 336.298 34.2438 336.298 33.581C336.298 32.9134 336.201 32.3097 336.007 31.7699C335.817 31.2254 335.529 30.7921 335.14 30.4702C334.752 30.1482 334.269 29.9872 333.691 29.9872C333.1 29.9872 332.607 30.1482 332.214 30.4702C331.826 30.7921 331.535 31.2254 331.341 31.7699C331.151 32.3097 331.056 32.9134 331.056 33.581C331.056 34.2438 331.151 34.8452 331.341 35.3849C331.535 35.9247 331.826 36.3556 332.214 36.6776C332.607 36.9948 333.1 37.1534 333.691 37.1534ZM341.087 39V28.0909H343.658V39H341.087ZM342.379 26.5426C341.972 26.5426 341.622 26.4077 341.328 26.1378C341.035 25.8632 340.888 25.5341 340.888 25.1506C340.888 24.7623 341.035 24.4332 341.328 24.1634C341.622 23.8887 341.972 23.7514 342.379 23.7514C342.791 23.7514 343.142 23.8887 343.43 24.1634C343.724 24.4332 343.871 24.7623 343.871 25.1506C343.871 25.5341 343.724 25.8632 343.43 26.1378C343.142 26.4077 342.791 26.5426 342.379 26.5426ZM348.873 32.608V39H346.301V28.0909H348.759V29.9446H348.887C349.138 29.3338 349.538 28.8485 350.087 28.4886C350.641 28.1288 351.325 27.9489 352.14 27.9489C352.892 27.9489 353.548 28.1098 354.107 28.4318C354.67 28.7538 355.106 29.2202 355.414 29.831C355.726 30.4418 355.88 31.1828 355.875 32.054V39H353.304V32.4517C353.304 31.7225 353.115 31.152 352.736 30.7401C352.362 30.3281 351.844 30.1222 351.181 30.1222C350.731 30.1222 350.331 30.2216 349.98 30.4205C349.635 30.6146 349.363 30.8963 349.164 31.2656C348.97 31.6349 348.873 32.0824 348.873 32.608ZM363.936 28.0909V30.0795H357.665V28.0909H363.936ZM359.213 25.4773H361.784V35.7188C361.784 36.0644 361.837 36.3295 361.941 36.5142C362.05 36.6941 362.192 36.8172 362.367 36.8835C362.542 36.9498 362.736 36.983 362.949 36.983C363.11 36.983 363.257 36.9711 363.39 36.9474C363.527 36.9238 363.631 36.9025 363.702 36.8835L364.135 38.8935C363.998 38.9408 363.801 38.9929 363.546 39.0497C363.295 39.1065 362.987 39.1397 362.623 39.1491C361.979 39.1681 361.399 39.071 360.882 38.858C360.366 38.6402 359.957 38.304 359.654 37.8494C359.355 37.3949 359.209 36.8267 359.213 36.1449V25.4773ZM366.087 39V28.0909H368.544V29.9446H368.672C368.899 29.3196 369.276 28.8319 369.801 28.4815C370.327 28.1264 370.954 27.9489 371.683 27.9489C372.422 27.9489 373.045 28.1288 373.551 28.4886C374.063 28.8437 374.422 29.3291 374.631 29.9446H374.744C374.986 29.3385 375.393 28.8556 375.966 28.4957C376.544 28.1312 377.228 27.9489 378.018 27.9489C379.022 27.9489 379.841 28.2661 380.476 28.9006C381.11 29.535 381.428 30.4607 381.428 31.6776V39H378.849V32.0753C378.849 31.3982 378.67 30.9034 378.31 30.5909C377.95 30.2737 377.509 30.1151 376.989 30.1151C376.368 30.1151 375.883 30.3092 375.533 30.6974C375.187 31.081 375.014 31.5805 375.014 32.196V39H372.493V31.9688C372.493 31.4053 372.322 30.9555 371.982 30.6193C371.645 30.2831 371.205 30.1151 370.661 30.1151C370.291 30.1151 369.955 30.2098 369.652 30.3991C369.349 30.5838 369.107 30.8466 368.928 31.1875C368.748 31.5237 368.658 31.9167 368.658 32.3665V39H366.087ZM388.865 39.2131C387.772 39.2131 386.827 38.9858 386.032 38.5312C385.241 38.072 384.632 37.4233 384.206 36.5852C383.78 35.7424 383.567 34.7505 383.567 33.6094C383.567 32.4872 383.78 31.5024 384.206 30.6548C384.637 29.8026 385.239 29.1397 386.01 28.6662C386.782 28.188 387.689 27.9489 388.73 27.9489C389.403 27.9489 390.037 28.0578 390.634 28.2756C391.235 28.4886 391.766 28.8201 392.225 29.2699C392.689 29.7197 393.053 30.2926 393.319 30.9886C393.584 31.6799 393.716 32.5038 393.716 33.4602V34.2486H384.775V32.5156H391.252C391.247 32.0232 391.141 31.5852 390.932 31.2017C390.724 30.8134 390.433 30.508 390.059 30.2855C389.689 30.063 389.258 29.9517 388.766 29.9517C388.24 29.9517 387.779 30.0795 387.381 30.3352C386.983 30.5862 386.673 30.9176 386.451 31.3295C386.233 31.7367 386.122 32.1842 386.117 32.6719V34.1847C386.117 34.8191 386.233 35.3636 386.465 35.8182C386.697 36.268 387.021 36.6136 387.438 36.8551C387.855 37.0919 388.342 37.2102 388.901 37.2102C389.275 37.2102 389.614 37.1581 389.917 37.054C390.22 36.9451 390.482 36.7865 390.705 36.5781C390.927 36.3698 391.096 36.1117 391.209 35.804L393.61 36.0739C393.458 36.7083 393.169 37.2623 392.743 37.7358C392.322 38.2045 391.782 38.5691 391.124 38.8295C390.466 39.0852 389.713 39.2131 388.865 39.2131ZM398.462 32.608V39H395.891V28.0909H398.349V29.9446H398.477C398.728 29.3338 399.128 28.8485 399.677 28.4886C400.231 28.1288 400.915 27.9489 401.729 27.9489C402.482 27.9489 403.138 28.1098 403.697 28.4318C404.26 28.7538 404.696 29.2202 405.004 29.831C405.316 30.4418 405.47 31.1828 405.465 32.054V39H402.894V32.4517C402.894 31.7225 402.705 31.152 402.326 30.7401C401.952 30.3281 401.433 30.1222 400.771 30.1222C400.321 30.1222 399.921 30.2216 399.57 30.4205C399.225 30.6146 398.952 30.8963 398.754 31.2656C398.559 31.6349 398.462 32.0824 398.462 32.608ZM413.526 28.0909V30.0795H407.255V28.0909H413.526ZM408.803 25.4773H411.374V35.7188C411.374 36.0644 411.426 36.3295 411.531 36.5142C411.639 36.6941 411.781 36.8172 411.957 36.8835C412.132 36.9498 412.326 36.983 412.539 36.983C412.7 36.983 412.847 36.9711 412.979 36.9474C413.117 36.9238 413.221 36.9025 413.292 36.8835L413.725 38.8935C413.588 38.9408 413.391 38.9929 413.136 39.0497C412.885 39.1065 412.577 39.1397 412.212 39.1491C411.568 39.1681 410.988 39.071 410.472 38.858C409.956 38.6402 409.547 38.304 409.244 37.8494C408.945 37.3949 408.799 36.8267 408.803 36.1449V25.4773ZM424.142 30.9744L421.799 31.2301C421.732 30.9934 421.616 30.7708 421.451 30.5625C421.29 30.3542 421.072 30.1861 420.797 30.0582C420.523 29.9304 420.186 29.8665 419.789 29.8665C419.254 29.8665 418.804 29.9825 418.439 30.2145C418.079 30.4465 417.902 30.7472 417.907 31.1165C417.902 31.4337 418.018 31.6918 418.255 31.8906C418.496 32.0895 418.894 32.2528 419.448 32.3807L421.309 32.7784C422.341 33.0009 423.108 33.3537 423.61 33.8366C424.116 34.3196 424.372 34.9517 424.377 35.733C424.372 36.4195 424.171 37.0256 423.773 37.5511C423.38 38.072 422.833 38.4792 422.132 38.7727C421.432 39.0663 420.627 39.2131 419.718 39.2131C418.382 39.2131 417.308 38.9337 416.493 38.375C415.679 37.8116 415.194 37.0279 415.037 36.0241L417.544 35.7827C417.658 36.2751 417.9 36.6468 418.269 36.8977C418.638 37.1487 419.119 37.2741 419.711 37.2741C420.321 37.2741 420.811 37.1487 421.181 36.8977C421.555 36.6468 421.742 36.3366 421.742 35.9673C421.742 35.6548 421.621 35.3968 421.38 35.1932C421.143 34.9896 420.774 34.8333 420.272 34.7244L418.411 34.3338C417.364 34.116 416.59 33.7491 416.088 33.233C415.587 32.7121 415.338 32.054 415.343 31.2585C415.338 30.5862 415.52 30.0038 415.89 29.5114C416.264 29.0142 416.782 28.6307 417.445 28.3608C418.113 28.0862 418.882 27.9489 419.753 27.9489C421.032 27.9489 422.038 28.2211 422.772 28.7656C423.51 29.3101 423.967 30.0464 424.142 30.9744Z" fill="#7A2DB1"/>
<path d="M130.224 39V24.4545H135.792C136.843 24.4545 137.717 24.6203 138.413 24.9517C139.113 25.2784 139.637 25.7259 139.982 26.294C140.333 26.8622 140.508 27.5062 140.508 28.2259C140.508 28.8177 140.394 29.3243 140.167 29.7457C139.94 30.1624 139.634 30.5009 139.251 30.7614C138.867 31.0218 138.439 31.2088 137.965 31.3224V31.4645C138.481 31.4929 138.976 31.6515 139.45 31.9403C139.928 32.2244 140.318 32.6269 140.621 33.1477C140.924 33.6686 141.076 34.2983 141.076 35.0369C141.076 35.7898 140.894 36.4669 140.529 37.0682C140.165 37.6648 139.615 38.1359 138.881 38.4815C138.147 38.8272 137.224 39 136.112 39H130.224ZM132.859 36.7983H135.692C136.649 36.7983 137.338 36.616 137.759 36.2514C138.185 35.8821 138.398 35.4086 138.398 34.831C138.398 34.4001 138.292 34.0118 138.079 33.6662C137.866 33.3158 137.563 33.0412 137.17 32.8423C136.777 32.6387 136.308 32.5369 135.763 32.5369H132.859V36.7983ZM132.859 30.6406H135.465C135.92 30.6406 136.329 30.5578 136.694 30.392C137.058 30.2216 137.345 29.9825 137.553 29.6747C137.766 29.3622 137.873 28.9929 137.873 28.5668C137.873 28.0033 137.674 27.5393 137.276 27.1747C136.883 26.8101 136.299 26.6278 135.522 26.6278H132.859V30.6406ZM148.013 39.2131C146.948 39.2131 146.025 38.9787 145.243 38.5099C144.462 38.0412 143.856 37.3854 143.425 36.5426C142.999 35.6998 142.786 34.715 142.786 33.5881C142.786 32.4612 142.999 31.474 143.425 30.6264C143.856 29.7789 144.462 29.1207 145.243 28.652C146.025 28.1832 146.948 27.9489 148.013 27.9489C149.078 27.9489 150.002 28.1832 150.783 28.652C151.564 29.1207 152.168 29.7789 152.594 30.6264C153.025 31.474 153.24 32.4612 153.24 33.5881C153.24 34.715 153.025 35.6998 152.594 36.5426C152.168 37.3854 151.564 38.0412 150.783 38.5099C150.002 38.9787 149.078 39.2131 148.013 39.2131ZM148.027 37.1534C148.605 37.1534 149.088 36.9948 149.476 36.6776C149.864 36.3556 150.153 35.9247 150.343 35.3849C150.537 34.8452 150.634 34.2438 150.634 33.581C150.634 32.9134 150.537 32.3097 150.343 31.7699C150.153 31.2254 149.864 30.7921 149.476 30.4702C149.088 30.1482 148.605 29.9872 148.027 29.9872C147.435 29.9872 146.943 30.1482 146.55 30.4702C146.162 30.7921 145.871 31.2254 145.676 31.7699C145.487 32.3097 145.392 32.9134 145.392 33.581C145.392 34.2438 145.487 34.8452 145.676 35.3849C145.871 35.9247 146.162 36.3556 146.55 36.6776C146.943 36.9948 147.435 37.1534 148.027 37.1534ZM160.181 39.2131C159.116 39.2131 158.192 38.9787 157.411 38.5099C156.63 38.0412 156.024 37.3854 155.593 36.5426C155.167 35.6998 154.954 34.715 154.954 33.5881C154.954 32.4612 155.167 31.474 155.593 30.6264C156.024 29.7789 156.63 29.1207 157.411 28.652C158.192 28.1832 159.116 27.9489 160.181 27.9489C161.246 27.9489 162.17 28.1832 162.951 28.652C163.732 29.1207 164.336 29.7789 164.762 30.6264C165.193 31.474 165.408 32.4612 165.408 33.5881C165.408 34.715 165.193 35.6998 164.762 36.5426C164.336 37.3854 163.732 38.0412 162.951 38.5099C162.17 38.9787 161.246 39.2131 160.181 39.2131ZM160.195 37.1534C160.773 37.1534 161.256 36.9948 161.644 36.6776C162.032 36.3556 162.321 35.9247 162.511 35.3849C162.705 34.8452 162.802 34.2438 162.802 33.581C162.802 32.9134 162.705 32.3097 162.511 31.7699C162.321 31.2254 162.032 30.7921 161.644 30.4702C161.256 30.1482 160.773 29.9872 160.195 29.9872C159.603 29.9872 159.111 30.1482 158.718 30.4702C158.33 30.7921 158.039 31.2254 157.844 31.7699C157.655 32.3097 157.56 32.9134 157.56 33.581C157.56 34.2438 157.655 34.8452 157.844 35.3849C158.039 35.9247 158.33 36.3556 158.718 36.6776C159.111 36.9948 159.603 37.1534 160.195 37.1534ZM169.934 35.5767L169.927 32.473H170.339L174.26 28.0909H177.264L172.441 33.4602H171.909L169.934 35.5767ZM167.591 39V24.4545H170.162V39H167.591ZM174.437 39L170.886 34.0355L172.619 32.2244L177.512 39H174.437ZM178.977 39V28.0909H181.548V39H178.977ZM180.27 26.5426C179.863 26.5426 179.512 26.4077 179.219 26.1378C178.925 25.8632 178.778 25.5341 178.778 25.1506C178.778 24.7623 178.925 24.4332 179.219 24.1634C179.512 23.8887 179.863 23.7514 180.27 23.7514C180.682 23.7514 181.032 23.8887 181.321 24.1634C181.615 24.4332 181.761 24.7623 181.761 25.1506C181.761 25.5341 181.615 25.8632 181.321 26.1378C181.032 26.4077 180.682 26.5426 180.27 26.5426ZM186.763 32.608V39H184.192V28.0909H186.65V29.9446H186.777C187.028 29.3338 187.428 28.8485 187.978 28.4886C188.532 28.1288 189.216 27.9489 190.03 27.9489C190.783 27.9489 191.439 28.1098 191.998 28.4318C192.561 28.7538 192.997 29.2202 193.304 29.831C193.617 30.4418 193.771 31.1828 193.766 32.054V39H191.195V32.4517C191.195 31.7225 191.006 31.152 190.627 30.7401C190.253 30.3281 189.734 30.1222 189.071 30.1222C188.622 30.1222 188.221 30.2216 187.871 30.4205C187.525 30.6146 187.253 30.8963 187.054 31.2656C186.86 31.6349 186.763 32.0824 186.763 32.608ZM201.124 43.3182C200.201 43.3182 199.408 43.1927 198.745 42.9418C198.082 42.6955 197.549 42.3641 197.147 41.9474C196.744 41.5308 196.465 41.0691 196.309 40.5625L198.624 40.0014C198.728 40.2145 198.88 40.4252 199.078 40.6335C199.277 40.8466 199.545 41.0218 199.881 41.1591C200.222 41.3011 200.65 41.3722 201.167 41.3722C201.896 41.3722 202.499 41.1946 202.978 40.8395C203.456 40.4891 203.695 39.9115 203.695 39.1065V37.0398H203.567C203.435 37.3049 203.24 37.5772 202.985 37.8565C202.734 38.1359 202.4 38.3703 201.983 38.5597C201.571 38.7491 201.053 38.8438 200.428 38.8438C199.59 38.8438 198.83 38.6473 198.148 38.2543C197.471 37.8565 196.931 37.2647 196.529 36.4787C196.131 35.688 195.932 34.6984 195.932 33.5099C195.932 32.312 196.131 31.3011 196.529 30.4773C196.931 29.6487 197.473 29.0213 198.155 28.5952C198.837 28.1643 199.597 27.9489 200.435 27.9489C201.074 27.9489 201.6 28.0578 202.012 28.2756C202.428 28.4886 202.76 28.7467 203.006 29.0497C203.252 29.348 203.439 29.6297 203.567 29.8949H203.709V28.0909H206.245V39.1776C206.245 40.1103 206.022 40.8821 205.577 41.4929C205.132 42.1037 204.524 42.5606 203.752 42.8636C202.98 43.1667 202.104 43.3182 201.124 43.3182ZM201.145 36.8267C201.69 36.8267 202.154 36.6941 202.537 36.429C202.921 36.1638 203.212 35.7827 203.411 35.2855C203.61 34.7884 203.709 34.1918 203.709 33.4957C203.709 32.8092 203.61 32.2079 203.411 31.6918C203.217 31.1757 202.928 30.7756 202.544 30.4915C202.166 30.2027 201.699 30.0582 201.145 30.0582C200.572 30.0582 200.094 30.2074 199.711 30.5057C199.327 30.804 199.038 31.2135 198.844 31.7344C198.65 32.2505 198.553 32.8376 198.553 33.4957C198.553 34.1634 198.65 34.7481 198.844 35.25C199.043 35.7472 199.334 36.1354 199.718 36.4148C200.106 36.6894 200.582 36.8267 201.145 36.8267ZM217.502 30.9744L215.158 31.2301C215.092 30.9934 214.976 30.7708 214.81 30.5625C214.649 30.3542 214.431 30.1861 214.157 30.0582C213.882 29.9304 213.546 29.8665 213.148 29.8665C212.613 29.8665 212.163 29.9825 211.799 30.2145C211.439 30.4465 211.261 30.7472 211.266 31.1165C211.261 31.4337 211.377 31.6918 211.614 31.8906C211.855 32.0895 212.253 32.2528 212.807 32.3807L214.668 32.7784C215.7 33.0009 216.467 33.3537 216.969 33.8366C217.476 34.3196 217.731 34.9517 217.736 35.733C217.731 36.4195 217.53 37.0256 217.132 37.5511C216.739 38.072 216.193 38.4792 215.492 38.7727C214.791 39.0663 213.986 39.2131 213.077 39.2131C211.742 39.2131 210.667 38.9337 209.853 38.375C209.038 37.8116 208.553 37.0279 208.397 36.0241L210.904 35.7827C211.017 36.2751 211.259 36.6468 211.628 36.8977C211.998 37.1487 212.478 37.2741 213.07 37.2741C213.681 37.2741 214.171 37.1487 214.54 36.8977C214.914 36.6468 215.101 36.3366 215.101 35.9673C215.101 35.6548 214.98 35.3968 214.739 35.1932C214.502 34.9896 214.133 34.8333 213.631 34.7244L211.77 34.3338C210.724 34.116 209.95 33.7491 209.448 33.233C208.946 32.7121 208.697 32.054 208.702 31.2585C208.697 30.5862 208.88 30.0038 209.249 29.5114C209.623 29.0142 210.141 28.6307 210.804 28.3608C211.472 28.0862 212.241 27.9489 213.113 27.9489C214.391 27.9489 215.397 28.2211 216.131 28.7656C216.87 29.3101 217.327 30.0464 217.502 30.9744ZM222.875 37.0114L222.782 37.7926C222.716 38.3892 222.598 38.9953 222.427 39.6108C222.261 40.2311 222.086 40.8016 221.902 41.3224C221.717 41.8433 221.568 42.2528 221.454 42.5511H219.721C219.788 42.2623 219.877 41.8693 219.991 41.3722C220.109 40.875 220.223 40.3163 220.332 39.696C220.441 39.0758 220.514 38.446 220.552 37.8068L220.602 37.0114H222.875ZM229.741 26.6634V24.4545H241.346V26.6634H236.85V39H234.237V26.6634H229.741ZM242.337 39V28.0909H244.83V29.9091H244.943C245.142 29.2794 245.483 28.794 245.966 28.4531C246.454 28.1075 247.01 27.9347 247.635 27.9347C247.777 27.9347 247.936 27.9418 248.111 27.956C248.291 27.9654 248.44 27.982 248.558 28.0057V30.3707C248.449 30.3329 248.277 30.2997 248.04 30.2713C247.808 30.2382 247.583 30.2216 247.365 30.2216C246.896 30.2216 246.475 30.3234 246.101 30.527C245.732 30.7259 245.44 31.0028 245.227 31.358C245.014 31.7131 244.908 32.1226 244.908 32.5866V39H242.337ZM253.21 39.2202C252.519 39.2202 251.896 39.0971 251.342 38.8509C250.793 38.5999 250.357 38.2306 250.036 37.7429C249.718 37.2552 249.56 36.6539 249.56 35.9389C249.56 35.3234 249.673 34.8144 249.901 34.4119C250.128 34.0095 250.438 33.6875 250.831 33.446C251.224 33.2045 251.667 33.0223 252.159 32.8991C252.656 32.7713 253.17 32.679 253.7 32.6222C254.339 32.5559 254.858 32.4967 255.256 32.4446C255.653 32.3878 255.942 32.3026 256.122 32.1889C256.307 32.0705 256.399 31.8883 256.399 31.642V31.5994C256.399 31.0644 256.241 30.6501 255.923 30.3565C255.606 30.063 255.149 29.9162 254.553 29.9162C253.923 29.9162 253.423 30.0535 253.054 30.3281C252.689 30.6027 252.443 30.9271 252.315 31.3011L249.915 30.9602C250.104 30.2973 250.417 29.7434 250.852 29.2983C251.288 28.8485 251.821 28.5123 252.45 28.2898C253.08 28.0625 253.776 27.9489 254.538 27.9489C255.064 27.9489 255.587 28.0104 256.108 28.1335C256.629 28.2566 257.105 28.4602 257.536 28.7443C257.966 29.0237 258.312 29.4048 258.572 29.8878C258.838 30.3707 258.97 30.9744 258.97 31.6989V39H256.499V37.5014H256.413C256.257 37.8045 256.037 38.0885 255.753 38.3537C255.473 38.6141 255.121 38.8248 254.695 38.9858C254.273 39.142 253.778 39.2202 253.21 39.2202ZM253.878 37.331C254.394 37.331 254.841 37.2292 255.22 37.0256C255.599 36.8172 255.89 36.5426 256.094 36.2017C256.302 35.8608 256.406 35.4891 256.406 35.0866V33.8011C256.326 33.8674 256.188 33.929 255.994 33.9858C255.805 34.0426 255.592 34.0923 255.355 34.1349C255.118 34.1776 254.884 34.2154 254.652 34.2486C254.42 34.2817 254.219 34.3101 254.048 34.3338C253.665 34.3859 253.321 34.4711 253.018 34.5895C252.715 34.7079 252.476 34.8736 252.301 35.0866C252.126 35.295 252.038 35.5649 252.038 35.8963C252.038 36.3698 252.211 36.7273 252.557 36.9688C252.902 37.2102 253.343 37.331 253.878 37.331ZM266.314 39.2131C265.225 39.2131 264.29 38.974 263.509 38.4957C262.732 38.0175 262.133 37.357 261.712 36.5142C261.295 35.6667 261.087 34.6913 261.087 33.5881C261.087 32.4801 261.3 31.5024 261.726 30.6548C262.152 29.8026 262.753 29.1397 263.53 28.6662C264.311 28.188 265.234 27.9489 266.3 27.9489C267.185 27.9489 267.969 28.1122 268.651 28.4389C269.337 28.7609 269.884 29.2178 270.291 29.8097C270.698 30.3968 270.93 31.0833 270.987 31.8693H268.53C268.43 31.3437 268.194 30.9058 267.82 30.5554C267.45 30.2003 266.955 30.0227 266.335 30.0227C265.81 30.0227 265.348 30.1648 264.95 30.4489C264.553 30.7282 264.242 31.1307 264.02 31.6562C263.802 32.1818 263.693 32.8116 263.693 33.5455C263.693 34.2888 263.802 34.928 264.02 35.4631C264.238 35.9934 264.543 36.4029 264.936 36.6918C265.334 36.9759 265.8 37.1179 266.335 37.1179C266.714 37.1179 267.053 37.0469 267.351 36.9048C267.654 36.758 267.907 36.5473 268.111 36.2727C268.314 35.9981 268.454 35.6643 268.53 35.2713H270.987C270.926 36.0431 270.698 36.7273 270.305 37.3239C269.912 37.9157 269.377 38.3797 268.7 38.7159C268.023 39.0473 267.228 39.2131 266.314 39.2131ZM275.442 35.5767L275.435 32.473H275.847L279.767 28.0909H282.772L277.949 33.4602H277.417L275.442 35.5767ZM273.098 39V24.4545H275.669V39H273.098ZM279.945 39L276.394 34.0355L278.127 32.2244L283.02 39H279.945ZM428.081 39.1562C427.65 39.1562 427.28 39.0047 426.973 38.7017C426.665 38.3987 426.513 38.0294 426.518 37.5938C426.513 37.1676 426.665 36.803 426.973 36.5C427.28 36.197 427.65 36.0455 428.081 36.0455C428.497 36.0455 428.859 36.197 429.167 36.5C429.48 36.803 429.638 37.1676 429.643 37.5938C429.638 37.8826 429.563 38.1454 429.416 38.3821C429.274 38.6188 429.084 38.8082 428.848 38.9503C428.616 39.0876 428.36 39.1562 428.081 39.1562Z" fill="black"/>
<path d="M21.4091 67V55.3636H28.4318V56.6136H22.8182V60.5455H28.0682V61.7955H22.8182V65.75H28.5227V67H21.4091ZM34.6761 58.2727V59.4091H29.9716V58.2727H34.6761ZM31.3807 67V57.0682C31.3807 56.5682 31.4981 56.1515 31.733 55.8182C31.9678 55.4848 32.2727 55.2348 32.6477 55.0682C33.0227 54.9015 33.4186 54.8182 33.8352 54.8182C34.1648 54.8182 34.4337 54.8447 34.642 54.8977C34.8504 54.9508 35.0057 55 35.108 55.0455L34.7216 56.2045C34.6534 56.1818 34.5587 56.1534 34.4375 56.1193C34.3201 56.0852 34.1648 56.0682 33.9716 56.0682C33.5284 56.0682 33.2083 56.1799 33.0114 56.4034C32.8182 56.6269 32.7216 56.9545 32.7216 57.3864V67H31.3807ZM40.4418 58.2727V59.4091H35.7372V58.2727H40.4418ZM37.1463 67V57.0682C37.1463 56.5682 37.2637 56.1515 37.4986 55.8182C37.7334 55.4848 38.0384 55.2348 38.4134 55.0682C38.7884 54.9015 39.1842 54.8182 39.6009 54.8182C39.9304 54.8182 40.1993 54.8447 40.4077 54.8977C40.616 54.9508 40.7713 55 40.8736 55.0455L40.4872 56.2045C40.419 56.1818 40.3243 56.1534 40.2031 56.1193C40.0857 56.0852 39.9304 56.0682 39.7372 56.0682C39.294 56.0682 38.974 56.1799 38.777 56.4034C38.5838 56.6269 38.4872 56.9545 38.4872 57.3864V67H37.1463ZM45.5071 67.1818C44.7192 67.1818 44.0279 66.9943 43.4332 66.6193C42.8423 66.2443 42.3802 65.7197 42.0469 65.0455C41.7173 64.3712 41.5526 63.5833 41.5526 62.6818C41.5526 61.7727 41.7173 60.9792 42.0469 60.3011C42.3802 59.6231 42.8423 59.0966 43.4332 58.7216C44.0279 58.3466 44.7192 58.1591 45.5071 58.1591C46.295 58.1591 46.9844 58.3466 47.5753 58.7216C48.17 59.0966 48.6321 59.6231 48.9616 60.3011C49.295 60.9792 49.4616 61.7727 49.4616 62.6818C49.4616 63.5833 49.295 64.3712 48.9616 65.0455C48.6321 65.7197 48.17 66.2443 47.5753 66.6193C46.9844 66.9943 46.295 67.1818 45.5071 67.1818ZM45.5071 65.9773C46.1056 65.9773 46.598 65.8239 46.9844 65.517C47.3707 65.2102 47.6567 64.8068 47.8423 64.3068C48.0279 63.8068 48.1207 63.2652 48.1207 62.6818C48.1207 62.0985 48.0279 61.5549 47.8423 61.0511C47.6567 60.5473 47.3707 60.1402 46.9844 59.8295C46.598 59.5189 46.1056 59.3636 45.5071 59.3636C44.9086 59.3636 44.4162 59.5189 44.0298 59.8295C43.6435 60.1402 43.3575 60.5473 43.1719 61.0511C42.9863 61.5549 42.8935 62.0985 42.8935 62.6818C42.8935 63.2652 42.9863 63.8068 43.1719 64.3068C43.3575 64.8068 43.6435 65.2102 44.0298 65.517C44.4162 65.8239 44.9086 65.9773 45.5071 65.9773ZM51.5085 67V58.2727H52.804V59.5909H52.8949C53.054 59.1591 53.3419 58.8087 53.7585 58.5398C54.1752 58.2708 54.6449 58.1364 55.1676 58.1364C55.2661 58.1364 55.3892 58.1383 55.5369 58.142C55.6847 58.1458 55.7964 58.1515 55.8722 58.1591V59.5227C55.8267 59.5114 55.7225 59.4943 55.5597 59.4716C55.4006 59.4451 55.232 59.4318 55.054 59.4318C54.6297 59.4318 54.2509 59.5208 53.9176 59.6989C53.5881 59.8731 53.3267 60.1155 53.1335 60.4261C52.9441 60.733 52.8494 61.0833 52.8494 61.4773V67H51.5085ZM61.804 58.2727V59.4091H57.2812V58.2727H61.804ZM58.5994 56.1818H59.9403V64.5C59.9403 64.8788 59.9953 65.1629 60.1051 65.3523C60.2188 65.5379 60.3627 65.6629 60.5369 65.7273C60.715 65.7879 60.9025 65.8182 61.0994 65.8182C61.2472 65.8182 61.3684 65.8106 61.4631 65.7955C61.5578 65.7765 61.6335 65.7614 61.6903 65.75L61.9631 66.9545C61.8722 66.9886 61.7453 67.0227 61.5824 67.0568C61.4195 67.0947 61.2131 67.1136 60.9631 67.1136C60.5843 67.1136 60.2131 67.0322 59.8494 66.8693C59.4896 66.7064 59.1903 66.4583 58.9517 66.125C58.7169 65.7917 58.5994 65.3712 58.5994 64.8636V56.1818ZM65.3494 55.3636V67H64.0085V55.3636H65.3494ZM71.4645 67.1818C70.6236 67.1818 69.8982 66.9962 69.2884 66.625C68.6823 66.25 68.2145 65.7273 67.8849 65.0568C67.5592 64.3826 67.3963 63.5985 67.3963 62.7045C67.3963 61.8106 67.5592 61.0227 67.8849 60.3409C68.2145 59.6553 68.6728 59.1212 69.2599 58.7386C69.8509 58.3523 70.5402 58.1591 71.3281 58.1591C71.7827 58.1591 72.2315 58.2348 72.6747 58.3864C73.1179 58.5379 73.5213 58.7841 73.8849 59.125C74.2486 59.4621 74.5384 59.9091 74.7543 60.4659C74.9702 61.0227 75.0781 61.7083 75.0781 62.5227V63.0909H68.3509V61.9318H73.7145C73.7145 61.4394 73.616 61 73.419 60.6136C73.2259 60.2273 72.9493 59.9223 72.5895 59.6989C72.2334 59.4754 71.813 59.3636 71.3281 59.3636C70.794 59.3636 70.3319 59.4962 69.9418 59.7614C69.5554 60.0227 69.258 60.3636 69.0497 60.7841C68.8414 61.2045 68.7372 61.6553 68.7372 62.1364V62.9091C68.7372 63.5682 68.8509 64.1269 69.0781 64.5852C69.3092 65.0398 69.6293 65.3864 70.0384 65.625C70.4474 65.8598 70.9228 65.9773 71.4645 65.9773C71.8168 65.9773 72.1349 65.928 72.419 65.8295C72.7069 65.7273 72.955 65.5758 73.1634 65.375C73.3717 65.1705 73.5327 64.9167 73.6463 64.6136L74.9418 64.9773C74.8054 65.4167 74.5762 65.803 74.2543 66.1364C73.9323 66.4659 73.5346 66.7235 73.0611 66.9091C72.5876 67.0909 72.0554 67.1818 71.4645 67.1818ZM83.2997 60.2273L82.0952 60.5682C82.0194 60.3674 81.9077 60.1723 81.7599 59.983C81.616 59.7898 81.419 59.6307 81.169 59.5057C80.919 59.3807 80.599 59.3182 80.2088 59.3182C79.6747 59.3182 79.2296 59.4413 78.8736 59.6875C78.5213 59.9299 78.3452 60.2386 78.3452 60.6136C78.3452 60.947 78.4664 61.2102 78.7088 61.4034C78.9512 61.5966 79.33 61.7576 79.8452 61.8864L81.1406 62.2045C81.9209 62.3939 82.5024 62.6837 82.8849 63.0739C83.2675 63.4602 83.4588 63.9583 83.4588 64.5682C83.4588 65.0682 83.3149 65.5152 83.027 65.9091C82.7429 66.303 82.3452 66.6136 81.8338 66.8409C81.3224 67.0682 80.7277 67.1818 80.0497 67.1818C79.1596 67.1818 78.4228 66.9886 77.8395 66.6023C77.2562 66.2159 76.8868 65.6515 76.7315 64.9091L78.0043 64.5909C78.1255 65.0606 78.3546 65.4129 78.6918 65.6477C79.0327 65.8826 79.4777 66 80.027 66C80.652 66 81.1482 65.8674 81.5156 65.6023C81.8868 65.3333 82.0724 65.0114 82.0724 64.6364C82.0724 64.3333 81.9664 64.0795 81.7543 63.875C81.5421 63.6667 81.2164 63.5114 80.777 63.4091L79.3224 63.0682C78.5232 62.8788 77.9361 62.5852 77.5611 62.1875C77.1899 61.786 77.0043 61.2841 77.0043 60.6818C77.0043 60.1894 77.1425 59.7538 77.419 59.375C77.6993 58.9962 78.08 58.6989 78.5611 58.483C79.0459 58.267 79.5952 58.1591 80.2088 58.1591C81.0724 58.1591 81.7505 58.3485 82.2429 58.7273C82.7391 59.1061 83.0914 59.6061 83.2997 60.2273ZM91.6591 60.2273L90.4545 60.5682C90.3788 60.3674 90.267 60.1723 90.1193 59.983C89.9754 59.7898 89.7784 59.6307 89.5284 59.5057C89.2784 59.3807 88.9583 59.3182 88.5682 59.3182C88.0341 59.3182 87.589 59.4413 87.233 59.6875C86.8807 59.9299 86.7045 60.2386 86.7045 60.6136C86.7045 60.947 86.8258 61.2102 87.0682 61.4034C87.3106 61.5966 87.6894 61.7576 88.2045 61.8864L89.5 62.2045C90.2803 62.3939 90.8617 62.6837 91.2443 63.0739C91.6269 63.4602 91.8182 63.9583 91.8182 64.5682C91.8182 65.0682 91.6742 65.5152 91.3864 65.9091C91.1023 66.303 90.7045 66.6136 90.1932 66.8409C89.6818 67.0682 89.0871 67.1818 88.4091 67.1818C87.5189 67.1818 86.7822 66.9886 86.1989 66.6023C85.6155 66.2159 85.2462 65.6515 85.0909 64.9091L86.3636 64.5909C86.4848 65.0606 86.714 65.4129 87.0511 65.6477C87.392 65.8826 87.8371 66 88.3864 66C89.0114 66 89.5076 65.8674 89.875 65.6023C90.2462 65.3333 90.4318 65.0114 90.4318 64.6364C90.4318 64.3333 90.3258 64.0795 90.1136 63.875C89.9015 63.6667 89.5758 63.5114 89.1364 63.4091L87.6818 63.0682C86.8826 62.8788 86.2955 62.5852 85.9205 62.1875C85.5492 61.786 85.3636 61.2841 85.3636 60.6818C85.3636 60.1894 85.5019 59.7538 85.7784 59.375C86.0587 58.9962 86.4394 58.6989 86.9205 58.483C87.4053 58.267 87.9545 58.1591 88.5682 58.1591C89.4318 58.1591 90.1098 58.3485 90.6023 58.7273C91.0985 59.1061 91.4508 59.6061 91.6591 60.2273ZM95.1776 55.3636V67H93.8366V55.3636H95.1776ZM98.4972 70.2727C98.2699 70.2727 98.0672 70.2538 97.8892 70.2159C97.7112 70.1818 97.5881 70.1477 97.5199 70.1136L97.8608 68.9318C98.1866 69.0152 98.4744 69.0455 98.7244 69.0227C98.9744 69 99.196 68.8883 99.3892 68.6875C99.5862 68.4905 99.7661 68.1705 99.929 67.7273L100.179 67.0455L96.9517 58.2727H98.4062L100.815 65.2273H100.906L103.315 58.2727H104.77L101.065 68.2727C100.899 68.7235 100.692 69.0966 100.446 69.392C100.2 69.6913 99.9138 69.9129 99.5881 70.0568C99.2661 70.2008 98.9025 70.2727 98.4972 70.2727ZM111.04 67V58.2727H112.335V59.6364H112.449C112.631 59.1705 112.924 58.8087 113.33 58.5511C113.735 58.2898 114.222 58.1591 114.79 58.1591C115.366 58.1591 115.845 58.2898 116.227 58.5511C116.614 58.8087 116.915 59.1705 117.131 59.6364H117.222C117.445 59.1856 117.78 58.8277 118.227 58.5625C118.674 58.2936 119.21 58.1591 119.835 58.1591C120.616 58.1591 121.254 58.4034 121.75 58.892C122.246 59.3769 122.494 60.1326 122.494 61.1591V67H121.153V61.1591C121.153 60.5152 120.977 60.0549 120.625 59.7784C120.273 59.5019 119.858 59.3636 119.381 59.3636C118.767 59.3636 118.292 59.5492 117.955 59.9205C117.617 60.2879 117.449 60.7538 117.449 61.3182V67H116.085V61.0227C116.085 60.5265 115.924 60.1269 115.602 59.8239C115.28 59.517 114.866 59.3636 114.358 59.3636C114.009 59.3636 113.684 59.4564 113.381 59.642C113.081 59.8277 112.839 60.0852 112.653 60.4148C112.472 60.7405 112.381 61.1174 112.381 61.5455V67H111.04ZM127.514 67.2045C126.961 67.2045 126.459 67.1004 126.009 66.892C125.558 66.6799 125.2 66.375 124.935 65.9773C124.67 65.5758 124.537 65.0909 124.537 64.5227C124.537 64.0227 124.635 63.6174 124.832 63.3068C125.029 62.9924 125.293 62.7462 125.622 62.5682C125.952 62.3902 126.315 62.2576 126.713 62.1705C127.115 62.0795 127.518 62.0076 127.923 61.9545C128.454 61.8864 128.884 61.8352 129.213 61.8011C129.546 61.7633 129.789 61.7008 129.94 61.6136C130.096 61.5265 130.173 61.375 130.173 61.1591V61.1136C130.173 60.553 130.02 60.1174 129.713 59.8068C129.41 59.4962 128.95 59.3409 128.332 59.3409C127.692 59.3409 127.19 59.4811 126.827 59.7614C126.463 60.0417 126.207 60.3409 126.06 60.6591L124.787 60.2045C125.014 59.6742 125.317 59.2614 125.696 58.9659C126.079 58.6667 126.495 58.4583 126.946 58.3409C127.401 58.2197 127.848 58.1591 128.287 58.1591C128.567 58.1591 128.889 58.1932 129.253 58.2614C129.62 58.3258 129.974 58.4602 130.315 58.6648C130.66 58.8693 130.946 59.178 131.173 59.5909C131.401 60.0038 131.514 60.5568 131.514 61.25V67H130.173V65.8182H130.105C130.014 66.0076 129.863 66.2102 129.651 66.4261C129.438 66.642 129.156 66.8258 128.804 66.9773C128.452 67.1288 128.022 67.2045 127.514 67.2045ZM127.719 66C128.249 66 128.696 65.8958 129.06 65.6875C129.427 65.4792 129.704 65.2102 129.889 64.8807C130.079 64.5511 130.173 64.2045 130.173 63.8409V62.6136C130.116 62.6818 129.991 62.7443 129.798 62.8011C129.609 62.8542 129.389 62.9015 129.139 62.9432C128.893 62.9811 128.652 63.0152 128.418 63.0455C128.187 63.072 127.999 63.0947 127.855 63.1136C127.507 63.1591 127.181 63.233 126.878 63.3352C126.579 63.4337 126.336 63.5833 126.151 63.7841C125.969 63.9811 125.878 64.25 125.878 64.5909C125.878 65.0568 126.05 65.4091 126.395 65.6477C126.743 65.8826 127.185 66 127.719 66ZM135.303 61.75V67H133.962V58.2727H135.257V59.6364H135.371C135.575 59.1932 135.886 58.8371 136.303 58.5682C136.719 58.2955 137.257 58.1591 137.916 58.1591C138.507 58.1591 139.024 58.2803 139.467 58.5227C139.911 58.7614 140.255 59.125 140.501 59.6136C140.748 60.0985 140.871 60.7121 140.871 61.4545V67H139.53V61.5455C139.53 60.8598 139.352 60.3258 138.996 59.9432C138.64 59.5568 138.151 59.3636 137.53 59.3636C137.102 59.3636 136.719 59.4564 136.382 59.642C136.049 59.8277 135.786 60.0985 135.592 60.4545C135.399 60.8106 135.303 61.2424 135.303 61.75ZM145.889 67.2045C145.336 67.2045 144.834 67.1004 144.384 66.892C143.933 66.6799 143.575 66.375 143.31 65.9773C143.045 65.5758 142.912 65.0909 142.912 64.5227C142.912 64.0227 143.01 63.6174 143.207 63.3068C143.404 62.9924 143.668 62.7462 143.997 62.5682C144.327 62.3902 144.69 62.2576 145.088 62.1705C145.49 62.0795 145.893 62.0076 146.298 61.9545C146.829 61.8864 147.259 61.8352 147.588 61.8011C147.921 61.7633 148.164 61.7008 148.315 61.6136C148.471 61.5265 148.548 61.375 148.548 61.1591V61.1136C148.548 60.553 148.395 60.1174 148.088 59.8068C147.785 59.4962 147.325 59.3409 146.707 59.3409C146.067 59.3409 145.565 59.4811 145.202 59.7614C144.838 60.0417 144.582 60.3409 144.435 60.6591L143.162 60.2045C143.389 59.6742 143.692 59.2614 144.071 58.9659C144.454 58.6667 144.87 58.4583 145.321 58.3409C145.776 58.2197 146.223 58.1591 146.662 58.1591C146.942 58.1591 147.264 58.1932 147.628 58.2614C147.995 58.3258 148.349 58.4602 148.69 58.6648C149.035 58.8693 149.321 59.178 149.548 59.5909C149.776 60.0038 149.889 60.5568 149.889 61.25V67H148.548V65.8182H148.48C148.389 66.0076 148.238 66.2102 148.026 66.4261C147.813 66.642 147.531 66.8258 147.179 66.9773C146.827 67.1288 146.397 67.2045 145.889 67.2045ZM146.094 66C146.624 66 147.071 65.8958 147.435 65.6875C147.802 65.4792 148.079 65.2102 148.264 64.8807C148.454 64.5511 148.548 64.2045 148.548 63.8409V62.6136C148.491 62.6818 148.366 62.7443 148.173 62.8011C147.984 62.8542 147.764 62.9015 147.514 62.9432C147.268 62.9811 147.027 63.0152 146.793 63.0455C146.562 63.072 146.374 63.0947 146.23 63.1136C145.882 63.1591 145.556 63.233 145.253 63.3352C144.954 63.4337 144.711 63.5833 144.526 63.7841C144.344 63.9811 144.253 64.25 144.253 64.5909C144.253 65.0568 144.425 65.4091 144.77 65.6477C145.118 65.8826 145.56 66 146.094 66ZM155.859 70.4545C155.212 70.4545 154.655 70.3712 154.189 70.2045C153.723 70.0417 153.335 69.8258 153.024 69.5568C152.717 69.2917 152.473 69.0076 152.291 68.7045L153.359 67.9545C153.481 68.1136 153.634 68.2955 153.82 68.5C154.005 68.7083 154.259 68.8883 154.581 69.0398C154.907 69.1951 155.333 69.2727 155.859 69.2727C156.564 69.2727 157.145 69.1023 157.604 68.7614C158.062 68.4205 158.291 67.8864 158.291 67.1591V65.3864H158.178C158.079 65.5455 157.939 65.7424 157.757 65.9773C157.579 66.2083 157.321 66.4148 156.984 66.5966C156.651 66.7746 156.2 66.8636 155.632 66.8636C154.928 66.8636 154.295 66.697 153.734 66.3636C153.178 66.0303 152.736 65.5455 152.411 64.9091C152.089 64.2727 151.928 63.5 151.928 62.5909C151.928 61.697 152.085 60.9186 152.399 60.2557C152.714 59.589 153.151 59.0739 153.712 58.7102C154.272 58.3428 154.92 58.1591 155.655 58.1591C156.223 58.1591 156.674 58.2538 157.007 58.4432C157.344 58.6288 157.602 58.8409 157.78 59.0795C157.962 59.3144 158.102 59.5076 158.2 59.6591H158.337V58.2727H159.632V67.25C159.632 68 159.462 68.6098 159.121 69.0795C158.784 69.553 158.329 69.8996 157.757 70.1193C157.189 70.3428 156.556 70.4545 155.859 70.4545ZM155.814 65.6591C156.352 65.6591 156.806 65.536 157.178 65.2898C157.549 65.0436 157.831 64.6894 158.024 64.2273C158.217 63.7652 158.314 63.2121 158.314 62.5682C158.314 61.9394 158.219 61.3845 158.03 60.9034C157.84 60.4223 157.56 60.0455 157.189 59.7727C156.818 59.5 156.359 59.3636 155.814 59.3636C155.246 59.3636 154.772 59.5076 154.393 59.7955C154.018 60.0833 153.736 60.4697 153.547 60.9545C153.361 61.4394 153.268 61.9773 153.268 62.5682C153.268 63.1742 153.363 63.7102 153.553 64.1761C153.746 64.6383 154.03 65.0019 154.405 65.267C154.784 65.5284 155.253 65.6591 155.814 65.6591ZM165.746 67.1818C164.905 67.1818 164.179 66.9962 163.57 66.625C162.964 66.25 162.496 65.7273 162.166 65.0568C161.84 64.3826 161.678 63.5985 161.678 62.7045C161.678 61.8106 161.84 61.0227 162.166 60.3409C162.496 59.6553 162.954 59.1212 163.541 58.7386C164.132 58.3523 164.821 58.1591 165.609 58.1591C166.064 58.1591 166.513 58.2348 166.956 58.3864C167.399 58.5379 167.803 58.7841 168.166 59.125C168.53 59.4621 168.82 59.9091 169.036 60.4659C169.251 61.0227 169.359 61.7083 169.359 62.5227V63.0909H162.632V61.9318H167.996C167.996 61.4394 167.897 61 167.7 60.6136C167.507 60.2273 167.231 59.9223 166.871 59.6989C166.515 59.4754 166.094 59.3636 165.609 59.3636C165.075 59.3636 164.613 59.4962 164.223 59.7614C163.837 60.0227 163.539 60.3636 163.331 60.7841C163.123 61.2045 163.018 61.6553 163.018 62.1364V62.9091C163.018 63.5682 163.132 64.1269 163.359 64.5852C163.59 65.0398 163.911 65.3864 164.32 65.625C164.729 65.8598 165.204 65.9773 165.746 65.9773C166.098 65.9773 166.416 65.928 166.7 65.8295C166.988 65.7273 167.236 65.5758 167.445 65.375C167.653 65.1705 167.814 64.9167 167.928 64.6136L169.223 64.9773C169.087 65.4167 168.857 65.803 168.536 66.1364C168.214 66.4659 167.816 66.7235 167.342 66.9091C166.869 67.0909 166.337 67.1818 165.746 67.1818ZM178.467 67.2045C177.914 67.2045 177.412 67.1004 176.962 66.892C176.511 66.6799 176.153 66.375 175.888 65.9773C175.623 65.5758 175.49 65.0909 175.49 64.5227C175.49 64.0227 175.589 63.6174 175.786 63.3068C175.982 62.9924 176.246 62.7462 176.575 62.5682C176.905 62.3902 177.268 62.2576 177.666 62.1705C178.068 62.0795 178.471 62.0076 178.876 61.9545C179.407 61.8864 179.837 61.8352 180.166 61.8011C180.5 61.7633 180.742 61.7008 180.893 61.6136C181.049 61.5265 181.126 61.375 181.126 61.1591V61.1136C181.126 60.553 180.973 60.1174 180.666 59.8068C180.363 59.4962 179.903 59.3409 179.286 59.3409C178.645 59.3409 178.143 59.4811 177.78 59.7614C177.416 60.0417 177.161 60.3409 177.013 60.6591L175.74 60.2045C175.967 59.6742 176.27 59.2614 176.649 58.9659C177.032 58.6667 177.448 58.4583 177.899 58.3409C178.354 58.2197 178.801 58.1591 179.24 58.1591C179.52 58.1591 179.842 58.1932 180.206 58.2614C180.573 58.3258 180.928 58.4602 181.268 58.6648C181.613 58.8693 181.899 59.178 182.126 59.5909C182.354 60.0038 182.467 60.5568 182.467 61.25V67H181.126V65.8182H181.058C180.967 66.0076 180.816 66.2102 180.604 66.4261C180.392 66.642 180.109 66.8258 179.757 66.9773C179.405 67.1288 178.975 67.2045 178.467 67.2045ZM178.672 66C179.202 66 179.649 65.8958 180.013 65.6875C180.38 65.4792 180.657 65.2102 180.842 64.8807C181.032 64.5511 181.126 64.2045 181.126 63.8409V62.6136C181.07 62.6818 180.945 62.7443 180.751 62.8011C180.562 62.8542 180.342 62.9015 180.092 62.9432C179.846 62.9811 179.606 63.0152 179.371 63.0455C179.14 63.072 178.952 63.0947 178.808 63.1136C178.46 63.1591 178.134 63.233 177.831 63.3352C177.532 63.4337 177.289 63.5833 177.104 63.7841C176.922 63.9811 176.831 64.25 176.831 64.5909C176.831 65.0568 177.003 65.4091 177.348 65.6477C177.696 65.8826 178.138 66 178.672 66ZM186.256 61.75V67H184.915V58.2727H186.21V59.6364H186.324C186.528 59.1932 186.839 58.8371 187.256 58.5682C187.672 58.2955 188.21 58.1591 188.869 58.1591C189.46 58.1591 189.977 58.2803 190.42 58.5227C190.864 58.7614 191.208 59.125 191.455 59.6136C191.701 60.0985 191.824 60.7121 191.824 61.4545V67H190.483V61.5455C190.483 60.8598 190.305 60.3258 189.949 59.9432C189.593 59.5568 189.104 59.3636 188.483 59.3636C188.055 59.3636 187.672 59.4564 187.335 59.642C187.002 59.8277 186.739 60.0985 186.545 60.4545C186.352 60.8106 186.256 61.2424 186.256 61.75ZM197.57 67.1818C196.842 67.1818 196.2 66.9981 195.643 66.6307C195.087 66.2595 194.651 65.7367 194.337 65.0625C194.022 64.3845 193.865 63.5833 193.865 62.6591C193.865 61.7424 194.022 60.947 194.337 60.2727C194.651 59.5985 195.089 59.0777 195.649 58.7102C196.21 58.3428 196.857 58.1591 197.592 58.1591C198.161 58.1591 198.609 58.2538 198.939 58.4432C199.272 58.6288 199.526 58.8409 199.7 59.0795C199.878 59.3144 200.017 59.5076 200.115 59.6591H200.229V55.3636H201.57V67H200.274V65.6591H200.115C200.017 65.8182 199.876 66.0189 199.695 66.2614C199.513 66.5 199.253 66.714 198.916 66.9034C198.579 67.089 198.13 67.1818 197.57 67.1818ZM197.751 65.9773C198.289 65.9773 198.744 65.8371 199.115 65.5568C199.486 65.2727 199.768 64.8807 199.962 64.3807C200.155 63.8769 200.251 63.2955 200.251 62.6364C200.251 61.9848 200.157 61.4148 199.967 60.9261C199.778 60.4337 199.498 60.0511 199.126 59.7784C198.755 59.5019 198.297 59.3636 197.751 59.3636C197.183 59.3636 196.71 59.5095 196.331 59.8011C195.956 60.089 195.674 60.4811 195.484 60.9773C195.299 61.4697 195.206 62.0227 195.206 62.6364C195.206 63.2576 195.301 63.822 195.49 64.3295C195.683 64.8333 195.967 65.2348 196.342 65.5341C196.721 65.8295 197.191 65.9773 197.751 65.9773ZM212.507 58.2727V59.4091H207.984V58.2727H212.507ZM209.303 56.1818H210.643V64.5C210.643 64.8788 210.698 65.1629 210.808 65.3523C210.922 65.5379 211.066 65.6629 211.24 65.7273C211.418 65.7879 211.606 65.8182 211.803 65.8182C211.95 65.8182 212.071 65.8106 212.166 65.7955C212.261 65.7765 212.337 65.7614 212.393 65.75L212.666 66.9545C212.575 66.9886 212.448 67.0227 212.286 67.0568C212.123 67.0947 211.916 67.1136 211.666 67.1136C211.287 67.1136 210.916 67.0322 210.553 66.8693C210.193 66.7064 209.893 66.4583 209.655 66.125C209.42 65.7917 209.303 65.3712 209.303 64.8636V56.1818ZM214.524 67V58.2727H215.82V59.5909H215.911C216.07 59.1591 216.357 58.8087 216.774 58.5398C217.191 58.2708 217.661 58.1364 218.183 58.1364C218.282 58.1364 218.405 58.1383 218.553 58.142C218.7 58.1458 218.812 58.1515 218.888 58.1591V59.5227C218.842 59.5114 218.738 59.4943 218.575 59.4716C218.416 59.4451 218.248 59.4318 218.07 59.4318C217.645 59.4318 217.267 59.5208 216.933 59.6989C216.604 59.8731 216.342 60.1155 216.149 60.4261C215.96 60.733 215.865 61.0833 215.865 61.4773V67H214.524ZM223.045 67.2045C222.492 67.2045 221.991 67.1004 221.54 66.892C221.089 66.6799 220.731 66.375 220.466 65.9773C220.201 65.5758 220.068 65.0909 220.068 64.5227C220.068 64.0227 220.167 63.6174 220.364 63.3068C220.561 62.9924 220.824 62.7462 221.153 62.5682C221.483 62.3902 221.847 62.2576 222.244 62.1705C222.646 62.0795 223.049 62.0076 223.455 61.9545C223.985 61.8864 224.415 61.8352 224.744 61.8011C225.078 61.7633 225.32 61.7008 225.472 61.6136C225.627 61.5265 225.705 61.375 225.705 61.1591V61.1136C225.705 60.553 225.551 60.1174 225.244 59.8068C224.941 59.4962 224.481 59.3409 223.864 59.3409C223.223 59.3409 222.722 59.4811 222.358 59.7614C221.994 60.0417 221.739 60.3409 221.591 60.6591L220.318 60.2045C220.545 59.6742 220.848 59.2614 221.227 58.9659C221.61 58.6667 222.027 58.4583 222.477 58.3409C222.932 58.2197 223.379 58.1591 223.818 58.1591C224.098 58.1591 224.42 58.1932 224.784 58.2614C225.152 58.3258 225.506 58.4602 225.847 58.6648C226.191 58.8693 226.477 59.178 226.705 59.5909C226.932 60.0038 227.045 60.5568 227.045 61.25V67H225.705V65.8182H225.636C225.545 66.0076 225.394 66.2102 225.182 66.4261C224.97 66.642 224.688 66.8258 224.335 66.9773C223.983 67.1288 223.553 67.2045 223.045 67.2045ZM223.25 66C223.78 66 224.227 65.8958 224.591 65.6875C224.958 65.4792 225.235 65.2102 225.42 64.8807C225.61 64.5511 225.705 64.2045 225.705 63.8409V62.6136C225.648 62.6818 225.523 62.7443 225.33 62.8011C225.14 62.8542 224.92 62.9015 224.67 62.9432C224.424 62.9811 224.184 63.0152 223.949 63.0455C223.718 63.072 223.53 63.0947 223.386 63.1136C223.038 63.1591 222.712 63.233 222.409 63.3352C222.11 63.4337 221.867 63.5833 221.682 63.7841C221.5 63.9811 221.409 64.25 221.409 64.5909C221.409 65.0568 221.581 65.4091 221.926 65.6477C222.275 65.8826 222.716 66 223.25 66ZM233.038 67.1818C232.22 67.1818 231.516 66.9886 230.925 66.6023C230.334 66.2159 229.879 65.6837 229.561 65.0057C229.243 64.3277 229.084 63.553 229.084 62.6818C229.084 61.7955 229.247 61.0133 229.572 60.3352C229.902 59.6534 230.36 59.1212 230.947 58.7386C231.538 58.3523 232.228 58.1591 233.016 58.1591C233.629 58.1591 234.182 58.2727 234.675 58.5C235.167 58.7273 235.571 59.0455 235.885 59.4545C236.199 59.8636 236.394 60.3409 236.47 60.8864H235.129C235.027 60.4886 234.8 60.1364 234.447 59.8295C234.099 59.5189 233.629 59.3636 233.038 59.3636C232.516 59.3636 232.057 59.5 231.663 59.7727C231.273 60.0417 230.968 60.4223 230.749 60.9148C230.533 61.4034 230.425 61.9773 230.425 62.6364C230.425 63.3106 230.531 63.8977 230.743 64.3977C230.959 64.8977 231.262 65.286 231.652 65.5625C232.046 65.839 232.508 65.9773 233.038 65.9773C233.387 65.9773 233.703 65.9167 233.987 65.7955C234.271 65.6742 234.512 65.5 234.709 65.2727C234.906 65.0455 235.046 64.7727 235.129 64.4545H236.47C236.394 64.9697 236.207 65.4337 235.908 65.8466C235.612 66.2557 235.22 66.5814 234.732 66.8239C234.247 67.0625 233.682 67.1818 233.038 67.1818ZM239.68 63.8182L239.658 62.1591H239.93L243.749 58.2727H245.408L241.339 62.3864H241.226L239.68 63.8182ZM238.43 67V55.3636H239.771V67H238.43ZM243.976 67L240.567 62.6818L241.521 61.75L245.68 67H243.976ZM23.7955 86.2045C23.2424 86.2045 22.7405 86.1004 22.2898 85.892C21.839 85.6799 21.4811 85.375 21.2159 84.9773C20.9508 84.5758 20.8182 84.0909 20.8182 83.5227C20.8182 83.0227 20.9167 82.6174 21.1136 82.3068C21.3106 81.9924 21.5739 81.7462 21.9034 81.5682C22.233 81.3902 22.5966 81.2576 22.9943 81.1705C23.3958 81.0795 23.7992 81.0076 24.2045 80.9545C24.7348 80.8864 25.1648 80.8352 25.4943 80.8011C25.8277 80.7633 26.0701 80.7008 26.2216 80.6136C26.3769 80.5265 26.4545 80.375 26.4545 80.1591V80.1136C26.4545 79.553 26.3011 79.1174 25.9943 78.8068C25.6913 78.4962 25.2311 78.3409 24.6136 78.3409C23.9735 78.3409 23.4716 78.4811 23.108 78.7614C22.7443 79.0417 22.4886 79.3409 22.3409 79.6591L21.0682 79.2045C21.2955 78.6742 21.5985 78.2614 21.9773 77.9659C22.3598 77.6667 22.7765 77.4583 23.2273 77.3409C23.6818 77.2197 24.1288 77.1591 24.5682 77.1591C24.8485 77.1591 25.1705 77.1932 25.5341 77.2614C25.9015 77.3258 26.2557 77.4602 26.5966 77.6648C26.9413 77.8693 27.2273 78.178 27.4545 78.5909C27.6818 79.0038 27.7955 79.5568 27.7955 80.25V86H26.4545V84.8182H26.3864C26.2955 85.0076 26.1439 85.2102 25.9318 85.4261C25.7197 85.642 25.4375 85.8258 25.0852 85.9773C24.733 86.1288 24.303 86.2045 23.7955 86.2045ZM24 85C24.5303 85 24.9773 84.8958 25.3409 84.6875C25.7083 84.4792 25.9848 84.2102 26.1705 83.8807C26.3598 83.5511 26.4545 83.2045 26.4545 82.8409V81.6136C26.3977 81.6818 26.2727 81.7443 26.0795 81.8011C25.8902 81.8542 25.6705 81.9015 25.4205 81.9432C25.1742 81.9811 24.9337 82.0152 24.6989 82.0455C24.4678 82.072 24.2803 82.0947 24.1364 82.1136C23.7879 82.1591 23.4621 82.233 23.1591 82.3352C22.8598 82.4337 22.6174 82.5833 22.4318 82.7841C22.25 82.9811 22.1591 83.25 22.1591 83.5909C22.1591 84.0568 22.3314 84.4091 22.6761 84.6477C23.0246 84.8826 23.4659 85 24 85ZM30.2429 89.2727V77.2727H31.5384V78.6591H31.6974C31.7959 78.5076 31.9323 78.3144 32.1065 78.0795C32.2846 77.8409 32.5384 77.6288 32.8679 77.4432C33.2012 77.2538 33.652 77.1591 34.2202 77.1591C34.955 77.1591 35.6027 77.3428 36.1634 77.7102C36.724 78.0777 37.1615 78.5985 37.4759 79.2727C37.7902 79.947 37.9474 80.7424 37.9474 81.6591C37.9474 82.5833 37.7902 83.3845 37.4759 84.0625C37.1615 84.7367 36.7259 85.2595 36.169 85.6307C35.6122 85.9981 34.9702 86.1818 34.2429 86.1818C33.6823 86.1818 33.2334 86.089 32.8963 85.9034C32.5592 85.714 32.2997 85.5 32.1179 85.2614C31.9361 85.0189 31.7959 84.8182 31.6974 84.6591H31.5838V89.2727H30.2429ZM31.5611 81.6364C31.5611 82.2955 31.6577 82.8769 31.8509 83.3807C32.044 83.8807 32.3262 84.2727 32.6974 84.5568C33.0687 84.8371 33.5232 84.9773 34.0611 84.9773C34.6217 84.9773 35.0895 84.8295 35.4645 84.5341C35.8433 84.2348 36.1274 83.8333 36.3168 83.3295C36.5099 82.822 36.6065 82.2576 36.6065 81.6364C36.6065 81.0227 36.5118 80.4697 36.3224 79.9773C36.1368 79.4811 35.8546 79.089 35.4759 78.8011C35.1009 78.5095 34.6293 78.3636 34.0611 78.3636C33.5156 78.3636 33.0573 78.5019 32.6861 78.7784C32.3149 79.0511 32.0346 79.4337 31.8452 79.9261C31.6558 80.4148 31.5611 80.9848 31.5611 81.6364ZM39.9929 89.2727V77.2727H41.2884V78.6591H41.4474C41.5459 78.5076 41.6823 78.3144 41.8565 78.0795C42.0346 77.8409 42.2884 77.6288 42.6179 77.4432C42.9512 77.2538 43.402 77.1591 43.9702 77.1591C44.705 77.1591 45.3527 77.3428 45.9134 77.7102C46.474 78.0777 46.9115 78.5985 47.2259 79.2727C47.5402 79.947 47.6974 80.7424 47.6974 81.6591C47.6974 82.5833 47.5402 83.3845 47.2259 84.0625C46.9115 84.7367 46.4759 85.2595 45.919 85.6307C45.3622 85.9981 44.7202 86.1818 43.9929 86.1818C43.4323 86.1818 42.9834 86.089 42.6463 85.9034C42.3092 85.714 42.0497 85.5 41.8679 85.2614C41.6861 85.0189 41.5459 84.8182 41.4474 84.6591H41.3338V89.2727H39.9929ZM41.3111 81.6364C41.3111 82.2955 41.4077 82.8769 41.6009 83.3807C41.794 83.8807 42.0762 84.2727 42.4474 84.5568C42.8187 84.8371 43.2732 84.9773 43.8111 84.9773C44.3717 84.9773 44.8395 84.8295 45.2145 84.5341C45.5933 84.2348 45.8774 83.8333 46.0668 83.3295C46.2599 82.822 46.3565 82.2576 46.3565 81.6364C46.3565 81.0227 46.2618 80.4697 46.0724 79.9773C45.8868 79.4811 45.6046 79.089 45.2259 78.8011C44.8509 78.5095 44.3793 78.3636 43.8111 78.3636C43.2656 78.3636 42.8073 78.5019 42.4361 78.7784C42.0649 79.0511 41.7846 79.4337 41.5952 79.9261C41.4058 80.4148 41.3111 80.9848 41.3111 81.6364ZM53.2884 86.1818C52.5005 86.1818 51.8092 85.9943 51.2145 85.6193C50.6236 85.2443 50.1615 84.7197 49.8281 84.0455C49.4986 83.3712 49.3338 82.5833 49.3338 81.6818C49.3338 80.7727 49.4986 79.9792 49.8281 79.3011C50.1615 78.6231 50.6236 78.0966 51.2145 77.7216C51.8092 77.3466 52.5005 77.1591 53.2884 77.1591C54.0762 77.1591 54.7656 77.3466 55.3565 77.7216C55.9512 78.0966 56.4134 78.6231 56.7429 79.3011C57.0762 79.9792 57.2429 80.7727 57.2429 81.6818C57.2429 82.5833 57.0762 83.3712 56.7429 84.0455C56.4134 84.7197 55.9512 85.2443 55.3565 85.6193C54.7656 85.9943 54.0762 86.1818 53.2884 86.1818ZM53.2884 84.9773C53.8868 84.9773 54.3793 84.8239 54.7656 84.517C55.152 84.2102 55.438 83.8068 55.6236 83.3068C55.8092 82.8068 55.902 82.2652 55.902 81.6818C55.902 81.0985 55.8092 80.5549 55.6236 80.0511C55.438 79.5473 55.152 79.1402 54.7656 78.8295C54.3793 78.5189 53.8868 78.3636 53.2884 78.3636C52.6899 78.3636 52.1974 78.5189 51.8111 78.8295C51.4247 79.1402 51.1387 79.5473 50.9531 80.0511C50.7675 80.5549 50.6747 81.0985 50.6747 81.6818C50.6747 82.2652 50.7675 82.8068 50.9531 83.3068C51.1387 83.8068 51.4247 84.2102 51.8111 84.517C52.1974 84.8239 52.6899 84.9773 53.2884 84.9773ZM59.2898 86V77.2727H60.6307V86H59.2898ZM59.9716 75.8182C59.7102 75.8182 59.4848 75.7292 59.2955 75.5511C59.1098 75.3731 59.017 75.1591 59.017 74.9091C59.017 74.6591 59.1098 74.4451 59.2955 74.267C59.4848 74.089 59.7102 74 59.9716 74C60.233 74 60.4564 74.089 60.642 74.267C60.8314 74.4451 60.9261 74.6591 60.9261 74.9091C60.9261 75.1591 60.8314 75.3731 60.642 75.5511C60.4564 75.7292 60.233 75.8182 59.9716 75.8182ZM64.4276 80.75V86H63.0866V77.2727H64.3821V78.6364H64.4957C64.7003 78.1932 65.0109 77.8371 65.4276 77.5682C65.8442 77.2955 66.3821 77.1591 67.0412 77.1591C67.6321 77.1591 68.1491 77.2803 68.5923 77.5227C69.0355 77.7614 69.3802 78.125 69.6264 78.6136C69.8726 79.0985 69.9957 79.7121 69.9957 80.4545V86H68.6548V80.5455C68.6548 79.8598 68.4768 79.3258 68.1207 78.9432C67.7647 78.5568 67.276 78.3636 66.6548 78.3636C66.2268 78.3636 65.8442 78.4564 65.5071 78.642C65.1738 78.8277 64.9105 79.0985 64.7173 79.4545C64.5241 79.8106 64.4276 80.2424 64.4276 80.75ZM76.2415 77.2727V78.4091H71.7188V77.2727H76.2415ZM73.0369 75.1818H74.3778V83.5C74.3778 83.8788 74.4328 84.1629 74.5426 84.3523C74.6563 84.5379 74.8002 84.6629 74.9744 84.7273C75.1525 84.7879 75.34 84.8182 75.5369 84.8182C75.6847 84.8182 75.8059 84.8106 75.9006 84.7955C75.9953 84.7765 76.071 84.7614 76.1278 84.75L76.4006 85.9545C76.3097 85.9886 76.1828 86.0227 76.0199 86.0568C75.857 86.0947 75.6506 86.1136 75.4006 86.1136C75.0218 86.1136 74.6506 86.0322 74.2869 85.8693C73.9271 85.7064 73.6278 85.4583 73.3892 85.125C73.1544 84.7917 73.0369 84.3712 73.0369 83.8636V75.1818ZM78.2585 86V77.2727H79.554V78.6364H79.6676C79.8494 78.1705 80.143 77.8087 80.5483 77.5511C80.9536 77.2898 81.4403 77.1591 82.0085 77.1591C82.5843 77.1591 83.0634 77.2898 83.446 77.5511C83.8324 77.8087 84.1335 78.1705 84.3494 78.6364H84.4403C84.6638 78.1856 84.9991 77.8277 85.446 77.5625C85.893 77.2936 86.429 77.1591 87.054 77.1591C87.8343 77.1591 88.4725 77.4034 88.9688 77.892C89.465 78.3769 89.7131 79.1326 89.7131 80.1591V86H88.3722V80.1591C88.3722 79.5152 88.196 79.0549 87.8438 78.7784C87.4915 78.5019 87.0767 78.3636 86.5994 78.3636C85.9858 78.3636 85.5104 78.5492 85.1733 78.9205C84.8362 79.2879 84.6676 79.7538 84.6676 80.3182V86H83.304V80.0227C83.304 79.5265 83.143 79.1269 82.821 78.8239C82.4991 78.517 82.0843 78.3636 81.5767 78.3636C81.2282 78.3636 80.9025 78.4564 80.5994 78.642C80.3002 78.8277 80.0578 79.0852 79.8722 79.4148C79.6903 79.7405 79.5994 80.1174 79.5994 80.5455V86H78.2585ZM95.8239 86.1818C94.983 86.1818 94.2576 85.9962 93.6477 85.625C93.0417 85.25 92.5739 84.7273 92.2443 84.0568C91.9186 83.3826 91.7557 82.5985 91.7557 81.7045C91.7557 80.8106 91.9186 80.0227 92.2443 79.3409C92.5739 78.6553 93.0322 78.1212 93.6193 77.7386C94.2102 77.3523 94.8996 77.1591 95.6875 77.1591C96.142 77.1591 96.5909 77.2348 97.0341 77.3864C97.4773 77.5379 97.8807 77.7841 98.2443 78.125C98.608 78.4621 98.8977 78.9091 99.1136 79.4659C99.3295 80.0227 99.4375 80.7083 99.4375 81.5227V82.0909H92.7102V80.9318H98.0739C98.0739 80.4394 97.9754 80 97.7784 79.6136C97.5852 79.2273 97.3087 78.9223 96.9489 78.6989C96.5928 78.4754 96.1723 78.3636 95.6875 78.3636C95.1534 78.3636 94.6913 78.4962 94.3011 78.7614C93.9148 79.0227 93.6174 79.3636 93.4091 79.7841C93.2008 80.2045 93.0966 80.6553 93.0966 81.1364V81.9091C93.0966 82.5682 93.2102 83.1269 93.4375 83.5852C93.6686 84.0398 93.9886 84.3864 94.3977 84.625C94.8068 84.8598 95.2822 84.9773 95.8239 84.9773C96.1761 84.9773 96.4943 84.928 96.7784 84.8295C97.0663 84.7273 97.3144 84.5758 97.5227 84.375C97.7311 84.1705 97.892 83.9167 98.0057 83.6136L99.3011 83.9773C99.1648 84.4167 98.9356 84.803 98.6136 85.1364C98.2917 85.4659 97.8939 85.7235 97.4205 85.9091C96.947 86.0909 96.4148 86.1818 95.8239 86.1818ZM102.818 80.75V86H101.477V77.2727H102.773V78.6364H102.886C103.091 78.1932 103.402 77.8371 103.818 77.5682C104.235 77.2955 104.773 77.1591 105.432 77.1591C106.023 77.1591 106.54 77.2803 106.983 77.5227C107.426 77.7614 107.771 78.125 108.017 78.6136C108.263 79.0985 108.386 79.7121 108.386 80.4545V86H107.045V80.5455C107.045 79.8598 106.867 79.3258 106.511 78.9432C106.155 78.5568 105.667 78.3636 105.045 78.3636C104.617 78.3636 104.235 78.4564 103.898 78.642C103.564 78.8277 103.301 79.0985 103.108 79.4545C102.915 79.8106 102.818 80.2424 102.818 80.75ZM114.632 77.2727V78.4091H110.109V77.2727H114.632ZM111.428 75.1818H112.768V83.5C112.768 83.8788 112.823 84.1629 112.933 84.3523C113.047 84.5379 113.191 84.6629 113.365 84.7273C113.543 84.7879 113.731 84.8182 113.928 84.8182C114.075 84.8182 114.196 84.8106 114.291 84.7955C114.386 84.7765 114.462 84.7614 114.518 84.75L114.791 85.9545C114.7 85.9886 114.573 86.0227 114.411 86.0568C114.248 86.0947 114.041 86.1136 113.791 86.1136C113.412 86.1136 113.041 86.0322 112.678 85.8693C112.318 85.7064 112.018 85.4583 111.78 85.125C111.545 84.7917 111.428 84.3712 111.428 83.8636V75.1818ZM122.675 79.2273L121.47 79.5682C121.394 79.3674 121.283 79.1723 121.135 78.983C120.991 78.7898 120.794 78.6307 120.544 78.5057C120.294 78.3807 119.974 78.3182 119.584 78.3182C119.05 78.3182 118.605 78.4413 118.249 78.6875C117.896 78.9299 117.72 79.2386 117.72 79.6136C117.72 79.947 117.841 80.2102 118.084 80.4034C118.326 80.5966 118.705 80.7576 119.22 80.8864L120.516 81.2045C121.296 81.3939 121.877 81.6837 122.26 82.0739C122.643 82.4602 122.834 82.9583 122.834 83.5682C122.834 84.0682 122.69 84.5152 122.402 84.9091C122.118 85.303 121.72 85.6136 121.209 85.8409C120.697 86.0682 120.103 86.1818 119.425 86.1818C118.535 86.1818 117.798 85.9886 117.214 85.6023C116.631 85.2159 116.262 84.6515 116.107 83.9091L117.379 83.5909C117.5 84.0606 117.73 84.4129 118.067 84.6477C118.408 84.8826 118.853 85 119.402 85C120.027 85 120.523 84.8674 120.891 84.6023C121.262 84.3333 121.447 84.0114 121.447 83.6364C121.447 83.3333 121.341 83.0795 121.129 82.875C120.917 82.6667 120.591 82.5114 120.152 82.4091L118.697 82.0682C117.898 81.8788 117.311 81.5852 116.936 81.1875C116.565 80.786 116.379 80.2841 116.379 79.6818C116.379 79.1894 116.518 78.7538 116.794 78.375C117.074 77.9962 117.455 77.6989 117.936 77.483C118.421 77.267 118.97 77.1591 119.584 77.1591C120.447 77.1591 121.125 77.3485 121.618 77.7273C122.114 78.1061 122.466 78.6061 122.675 79.2273ZM131.33 86L128.67 77.2727H130.08L131.966 83.9545H132.057L133.92 77.2727H135.352L137.193 83.9318H137.284L139.17 77.2727H140.58L137.92 86H136.602L134.693 79.2955H134.557L132.648 86H131.33ZM142.352 86V77.2727H143.693V86H142.352ZM143.034 75.8182C142.773 75.8182 142.547 75.7292 142.358 75.5511C142.172 75.3731 142.08 75.1591 142.08 74.9091C142.08 74.6591 142.172 74.4451 142.358 74.267C142.547 74.089 142.773 74 143.034 74C143.295 74 143.519 74.089 143.705 74.267C143.894 74.4451 143.989 74.6591 143.989 74.9091C143.989 75.1591 143.894 75.3731 143.705 75.5511C143.519 75.7292 143.295 75.8182 143.034 75.8182ZM149.945 77.2727V78.4091H145.422V77.2727H149.945ZM146.74 75.1818H148.081V83.5C148.081 83.8788 148.136 84.1629 148.246 84.3523C148.359 84.5379 148.503 84.6629 148.678 84.7273C148.856 84.7879 149.043 84.8182 149.24 84.8182C149.388 84.8182 149.509 84.8106 149.604 84.7955C149.698 84.7765 149.774 84.7614 149.831 84.75L150.104 85.9545C150.013 85.9886 149.886 86.0227 149.723 86.0568C149.56 86.0947 149.354 86.1136 149.104 86.1136C148.725 86.1136 148.354 86.0322 147.99 85.8693C147.63 85.7064 147.331 85.4583 147.092 85.125C146.857 84.7917 146.74 84.3712 146.74 83.8636V75.1818ZM153.49 80.75V86H152.149V74.3636H153.49V78.6364H153.604C153.808 78.1856 154.115 77.8277 154.524 77.5625C154.937 77.2936 155.486 77.1591 156.172 77.1591C156.767 77.1591 157.287 77.2784 157.734 77.517C158.181 77.7519 158.528 78.1136 158.774 78.6023C159.024 79.0871 159.149 79.7045 159.149 80.4545V86H157.808V80.5455C157.808 79.8523 157.628 79.3163 157.268 78.9375C156.912 78.5549 156.418 78.3636 155.786 78.3636C155.346 78.3636 154.952 78.4564 154.604 78.642C154.259 78.8277 153.986 79.0985 153.786 79.4545C153.589 79.8106 153.49 80.2424 153.49 80.75ZM169.648 86.1818C168.86 86.1818 168.169 85.9943 167.574 85.6193C166.983 85.2443 166.521 84.7197 166.188 84.0455C165.858 83.3712 165.693 82.5833 165.693 81.6818C165.693 80.7727 165.858 79.9792 166.188 79.3011C166.521 78.6231 166.983 78.0966 167.574 77.7216C168.169 77.3466 168.86 77.1591 169.648 77.1591C170.436 77.1591 171.125 77.3466 171.716 77.7216C172.311 78.0966 172.773 78.6231 173.102 79.3011C173.436 79.9792 173.602 80.7727 173.602 81.6818C173.602 82.5833 173.436 83.3712 173.102 84.0455C172.773 84.7197 172.311 85.2443 171.716 85.6193C171.125 85.9943 170.436 86.1818 169.648 86.1818ZM169.648 84.9773C170.246 84.9773 170.739 84.8239 171.125 84.517C171.511 84.2102 171.797 83.8068 171.983 83.3068C172.169 82.8068 172.261 82.2652 172.261 81.6818C172.261 81.0985 172.169 80.5549 171.983 80.0511C171.797 79.5473 171.511 79.1402 171.125 78.8295C170.739 78.5189 170.246 78.3636 169.648 78.3636C169.049 78.3636 168.557 78.5189 168.17 78.8295C167.784 79.1402 167.498 79.5473 167.312 80.0511C167.127 80.5549 167.034 81.0985 167.034 81.6818C167.034 82.2652 167.127 82.8068 167.312 83.3068C167.498 83.8068 167.784 84.2102 168.17 84.517C168.557 84.8239 169.049 84.9773 169.648 84.9773ZM181.149 82.4318V77.2727H182.49V86H181.149V84.5227H181.058C180.854 84.9659 180.536 85.3428 180.104 85.6534C179.672 85.9602 179.126 86.1136 178.467 86.1136C177.922 86.1136 177.437 85.9943 177.013 85.7557C176.589 85.5133 176.255 85.1496 176.013 84.6648C175.77 84.1761 175.649 83.5606 175.649 82.8182V77.2727H176.99V82.7273C176.99 83.3636 177.168 83.8712 177.524 84.25C177.884 84.6288 178.342 84.8182 178.899 84.8182C179.232 84.8182 179.571 84.733 179.916 84.5625C180.265 84.392 180.556 84.1307 180.791 83.7784C181.03 83.4261 181.149 82.9773 181.149 82.4318ZM184.946 86V77.2727H186.241V78.5909H186.332C186.491 78.1591 186.779 77.8087 187.196 77.5398C187.613 77.2708 188.082 77.1364 188.605 77.1364C188.704 77.1364 188.827 77.1383 188.974 77.142C189.122 77.1458 189.234 77.1515 189.31 77.1591V78.5227C189.264 78.5114 189.16 78.4943 188.997 78.4716C188.838 78.4451 188.67 78.4318 188.491 78.4318C188.067 78.4318 187.688 78.5208 187.355 78.6989C187.026 78.8731 186.764 79.1155 186.571 79.4261C186.382 79.733 186.287 80.0833 186.287 80.4773V86H184.946ZM195.399 86V77.2727H196.74V86H195.399ZM196.081 75.8182C195.82 75.8182 195.594 75.7292 195.405 75.5511C195.219 75.3731 195.126 75.1591 195.126 74.9091C195.126 74.6591 195.219 74.4451 195.405 74.267C195.594 74.089 195.82 74 196.081 74C196.342 74 196.566 74.089 196.751 74.267C196.941 74.4451 197.036 74.6591 197.036 74.9091C197.036 75.1591 196.941 75.3731 196.751 75.5511C196.566 75.7292 196.342 75.8182 196.081 75.8182ZM200.537 80.75V86H199.196V77.2727H200.491V78.6364H200.605C200.81 78.1932 201.12 77.8371 201.537 77.5682C201.954 77.2955 202.491 77.1591 203.151 77.1591C203.741 77.1591 204.259 77.2803 204.702 77.5227C205.145 77.7614 205.49 78.125 205.736 78.6136C205.982 79.0985 206.105 79.7121 206.105 80.4545V86H204.764V80.5455C204.764 79.8598 204.586 79.3258 204.23 78.9432C203.874 78.5568 203.385 78.3636 202.764 78.3636C202.336 78.3636 201.954 78.4564 201.616 78.642C201.283 78.8277 201.02 79.0985 200.827 79.4545C200.634 79.8106 200.537 80.2424 200.537 80.75ZM212.351 77.2727V78.4091H207.828V77.2727H212.351ZM209.146 75.1818H210.487V83.5C210.487 83.8788 210.542 84.1629 210.652 84.3523C210.766 84.5379 210.91 84.6629 211.084 84.7273C211.262 84.7879 211.449 84.8182 211.646 84.8182C211.794 84.8182 211.915 84.8106 212.01 84.7955C212.105 84.7765 212.18 84.7614 212.237 84.75L212.51 85.9545C212.419 85.9886 212.292 86.0227 212.129 86.0568C211.966 86.0947 211.76 86.1136 211.51 86.1136C211.131 86.1136 210.76 86.0322 210.396 85.8693C210.036 85.7064 209.737 85.4583 209.499 85.125C209.264 84.7917 209.146 84.3712 209.146 83.8636V75.1818ZM219.868 82.4318V77.2727H221.209V86H219.868V84.5227H219.777C219.572 84.9659 219.254 85.3428 218.822 85.6534C218.391 85.9602 217.845 86.1136 217.186 86.1136C216.641 86.1136 216.156 85.9943 215.732 85.7557C215.307 85.5133 214.974 85.1496 214.732 84.6648C214.489 84.1761 214.368 83.5606 214.368 82.8182V77.2727H215.709V82.7273C215.709 83.3636 215.887 83.8712 216.243 84.25C216.603 84.6288 217.061 84.8182 217.618 84.8182C217.951 84.8182 218.29 84.733 218.635 84.5625C218.983 84.392 219.275 84.1307 219.51 83.7784C219.749 83.4261 219.868 82.9773 219.868 82.4318ZM223.665 86V77.2727H225.006V86H223.665ZM224.347 75.8182C224.085 75.8182 223.86 75.7292 223.67 75.5511C223.485 75.3731 223.392 75.1591 223.392 74.9091C223.392 74.6591 223.485 74.4451 223.67 74.267C223.86 74.089 224.085 74 224.347 74C224.608 74 224.831 74.089 225.017 74.267C225.206 74.4451 225.301 74.6591 225.301 74.9091C225.301 75.1591 225.206 75.3731 225.017 75.5511C224.831 75.7292 224.608 75.8182 224.347 75.8182ZM231.257 77.2727V78.4091H226.734V77.2727H231.257ZM228.053 75.1818H229.393V83.5C229.393 83.8788 229.448 84.1629 229.558 84.3523C229.672 84.5379 229.816 84.6629 229.99 84.7273C230.168 84.7879 230.356 84.8182 230.553 84.8182C230.7 84.8182 230.821 84.8106 230.916 84.7955C231.011 84.7765 231.087 84.7614 231.143 84.75L231.416 85.9545C231.325 85.9886 231.198 86.0227 231.036 86.0568C230.873 86.0947 230.666 86.1136 230.416 86.1136C230.037 86.1136 229.666 86.0322 229.303 85.8693C228.943 85.7064 228.643 85.4583 228.405 85.125C228.17 84.7917 228.053 84.3712 228.053 83.8636V75.1818ZM233.274 86V77.2727H234.615V86H233.274ZM233.956 75.8182C233.695 75.8182 233.469 75.7292 233.28 75.5511C233.094 75.3731 233.001 75.1591 233.001 74.9091C233.001 74.6591 233.094 74.4451 233.28 74.267C233.469 74.089 233.695 74 233.956 74C234.217 74 234.441 74.089 234.626 74.267C234.816 74.4451 234.911 74.6591 234.911 74.9091C234.911 75.1591 234.816 75.3731 234.626 75.5511C234.441 75.7292 234.217 75.8182 233.956 75.8182ZM244.207 77.2727L240.98 86H239.616L236.389 77.2727H237.844L240.253 84.2273H240.344L242.753 77.2727H244.207ZM249.324 86.1818C248.483 86.1818 247.758 85.9962 247.148 85.625C246.542 85.25 246.074 84.7273 245.744 84.0568C245.419 83.3826 245.256 82.5985 245.256 81.7045C245.256 80.8106 245.419 80.0227 245.744 79.3409C246.074 78.6553 246.532 78.1212 247.119 77.7386C247.71 77.3523 248.4 77.1591 249.188 77.1591C249.642 77.1591 250.091 77.2348 250.534 77.3864C250.977 77.5379 251.381 77.7841 251.744 78.125C252.108 78.4621 252.398 78.9091 252.614 79.4659C252.83 80.0227 252.938 80.7083 252.938 81.5227V82.0909H246.21V80.9318H251.574C251.574 80.4394 251.475 80 251.278 79.6136C251.085 79.2273 250.809 78.9223 250.449 78.6989C250.093 78.4754 249.672 78.3636 249.188 78.3636C248.653 78.3636 248.191 78.4962 247.801 78.7614C247.415 79.0227 247.117 79.3636 246.909 79.7841C246.701 80.2045 246.597 80.6553 246.597 81.1364V81.9091C246.597 82.5682 246.71 83.1269 246.938 83.5852C247.169 84.0398 247.489 84.3864 247.898 84.625C248.307 84.8598 248.782 84.9773 249.324 84.9773C249.676 84.9773 249.994 84.928 250.278 84.8295C250.566 84.7273 250.814 84.5758 251.023 84.375C251.231 84.1705 251.392 83.9167 251.506 83.6136L252.801 83.9773C252.665 84.4167 252.436 84.803 252.114 85.1364C251.792 85.4659 251.394 85.7235 250.92 85.9091C250.447 86.0909 249.915 86.1818 249.324 86.1818ZM265.659 79.2273L264.455 79.5682C264.379 79.3674 264.267 79.1723 264.119 78.983C263.975 78.7898 263.778 78.6307 263.528 78.5057C263.278 78.3807 262.958 78.3182 262.568 78.3182C262.034 78.3182 261.589 78.4413 261.233 78.6875C260.881 78.9299 260.705 79.2386 260.705 79.6136C260.705 79.947 260.826 80.2102 261.068 80.4034C261.311 80.5966 261.689 80.7576 262.205 80.8864L263.5 81.2045C264.28 81.3939 264.862 81.6837 265.244 82.0739C265.627 82.4602 265.818 82.9583 265.818 83.5682C265.818 84.0682 265.674 84.5152 265.386 84.9091C265.102 85.303 264.705 85.6136 264.193 85.8409C263.682 86.0682 263.087 86.1818 262.409 86.1818C261.519 86.1818 260.782 85.9886 260.199 85.6023C259.616 85.2159 259.246 84.6515 259.091 83.9091L260.364 83.5909C260.485 84.0606 260.714 84.4129 261.051 84.6477C261.392 84.8826 261.837 85 262.386 85C263.011 85 263.508 84.8674 263.875 84.6023C264.246 84.3333 264.432 84.0114 264.432 83.6364C264.432 83.3333 264.326 83.0795 264.114 82.875C263.902 82.6667 263.576 82.5114 263.136 82.4091L261.682 82.0682C260.883 81.8788 260.295 81.5852 259.92 81.1875C259.549 80.786 259.364 80.2841 259.364 79.6818C259.364 79.1894 259.502 78.7538 259.778 78.375C260.059 77.9962 260.439 77.6989 260.92 77.483C261.405 77.267 261.955 77.1591 262.568 77.1591C263.432 77.1591 264.11 77.3485 264.602 77.7273C265.098 78.1061 265.451 78.6061 265.659 79.2273ZM268.7 89.2727C268.473 89.2727 268.27 89.2538 268.092 89.2159C267.914 89.1818 267.791 89.1477 267.723 89.1136L268.064 87.9318C268.39 88.0152 268.678 88.0455 268.928 88.0227C269.178 88 269.399 87.8883 269.592 87.6875C269.789 87.4905 269.969 87.1705 270.132 86.7273L270.382 86.0455L267.155 77.2727H268.609L271.018 84.2273H271.109L273.518 77.2727H274.973L271.268 87.2727C271.102 87.7235 270.895 88.0966 270.649 88.392C270.403 88.6913 270.117 88.9129 269.791 89.0568C269.469 89.2008 269.106 89.2727 268.7 89.2727ZM282.925 79.2273L281.72 79.5682C281.644 79.3674 281.533 79.1723 281.385 78.983C281.241 78.7898 281.044 78.6307 280.794 78.5057C280.544 78.3807 280.224 78.3182 279.834 78.3182C279.3 78.3182 278.855 78.4413 278.499 78.6875C278.146 78.9299 277.97 79.2386 277.97 79.6136C277.97 79.947 278.091 80.2102 278.334 80.4034C278.576 80.5966 278.955 80.7576 279.47 80.8864L280.766 81.2045C281.546 81.3939 282.127 81.6837 282.51 82.0739C282.893 82.4602 283.084 82.9583 283.084 83.5682C283.084 84.0682 282.94 84.5152 282.652 84.9091C282.368 85.303 281.97 85.6136 281.459 85.8409C280.947 86.0682 280.353 86.1818 279.675 86.1818C278.785 86.1818 278.048 85.9886 277.464 85.6023C276.881 85.2159 276.512 84.6515 276.357 83.9091L277.629 83.5909C277.75 84.0606 277.98 84.4129 278.317 84.6477C278.658 84.8826 279.103 85 279.652 85C280.277 85 280.773 84.8674 281.141 84.6023C281.512 84.3333 281.697 84.0114 281.697 83.6364C281.697 83.3333 281.591 83.0795 281.379 82.875C281.167 82.6667 280.841 82.5114 280.402 82.4091L278.947 82.0682C278.148 81.8788 277.561 81.5852 277.186 81.1875C276.815 80.786 276.629 80.2841 276.629 79.6818C276.629 79.1894 276.768 78.7538 277.044 78.375C277.324 77.9962 277.705 77.6989 278.186 77.483C278.671 77.267 279.22 77.1591 279.834 77.1591C280.697 77.1591 281.375 77.3485 281.868 77.7273C282.364 78.1061 282.716 78.6061 282.925 79.2273ZM288.898 77.2727V78.4091H284.375V77.2727H288.898ZM285.693 75.1818H287.034V83.5C287.034 83.8788 287.089 84.1629 287.199 84.3523C287.313 84.5379 287.456 84.6629 287.631 84.7273C287.809 84.7879 287.996 84.8182 288.193 84.8182C288.341 84.8182 288.462 84.8106 288.557 84.7955C288.652 84.7765 288.727 84.7614 288.784 84.75L289.057 85.9545C288.966 85.9886 288.839 86.0227 288.676 86.0568C288.513 86.0947 288.307 86.1136 288.057 86.1136C287.678 86.1136 287.307 86.0322 286.943 85.8693C286.583 85.7064 286.284 85.4583 286.045 85.125C285.811 84.7917 285.693 84.3712 285.693 83.8636V75.1818ZM294.48 86.1818C293.639 86.1818 292.914 85.9962 292.304 85.625C291.698 85.25 291.23 84.7273 290.901 84.0568C290.575 83.3826 290.412 82.5985 290.412 81.7045C290.412 80.8106 290.575 80.0227 290.901 79.3409C291.23 78.6553 291.688 78.1212 292.276 77.7386C292.866 77.3523 293.556 77.1591 294.344 77.1591C294.798 77.1591 295.247 77.2348 295.69 77.3864C296.134 77.5379 296.537 77.7841 296.901 78.125C297.264 78.4621 297.554 78.9091 297.77 79.4659C297.986 80.0227 298.094 80.7083 298.094 81.5227V82.0909H291.366V80.9318H296.73C296.73 80.4394 296.632 80 296.435 79.6136C296.241 79.2273 295.965 78.9223 295.605 78.6989C295.249 78.4754 294.829 78.3636 294.344 78.3636C293.81 78.3636 293.348 78.4962 292.957 78.7614C292.571 79.0227 292.274 79.3636 292.065 79.7841C291.857 80.2045 291.753 80.6553 291.753 81.1364V81.9091C291.753 82.5682 291.866 83.1269 292.094 83.5852C292.325 84.0398 292.645 84.3864 293.054 84.625C293.463 84.8598 293.938 84.9773 294.48 84.9773C294.832 84.9773 295.151 84.928 295.435 84.8295C295.723 84.7273 295.971 84.5758 296.179 84.375C296.387 84.1705 296.548 83.9167 296.662 83.6136L297.957 83.9773C297.821 84.4167 297.592 84.803 297.27 85.1364C296.948 85.4659 296.55 85.7235 296.077 85.9091C295.603 86.0909 295.071 86.1818 294.48 86.1818ZM300.134 86V77.2727H301.429V78.6364H301.543C301.724 78.1705 302.018 77.8087 302.423 77.5511C302.829 77.2898 303.315 77.1591 303.884 77.1591C304.459 77.1591 304.938 77.2898 305.321 77.5511C305.707 77.8087 306.009 78.1705 306.224 78.6364H306.315C306.539 78.1856 306.874 77.8277 307.321 77.5625C307.768 77.2936 308.304 77.1591 308.929 77.1591C309.709 77.1591 310.348 77.4034 310.844 77.892C311.34 78.3769 311.588 79.1326 311.588 80.1591V86H310.247V80.1591C310.247 79.5152 310.071 79.0549 309.719 78.7784C309.366 78.5019 308.952 78.3636 308.474 78.3636C307.861 78.3636 307.385 78.5492 307.048 78.9205C306.711 79.2879 306.543 79.7538 306.543 80.3182V86H305.179V80.0227C305.179 79.5265 305.018 79.1269 304.696 78.8239C304.374 78.517 303.959 78.3636 303.452 78.3636C303.103 78.3636 302.777 78.4564 302.474 78.642C302.175 78.8277 301.933 79.0852 301.747 79.4148C301.565 79.7405 301.474 80.1174 301.474 80.5455V86H300.134ZM315.017 86.0909C314.737 86.0909 314.496 85.9905 314.295 85.7898C314.095 85.589 313.994 85.3485 313.994 85.0682C313.994 84.7879 314.095 84.5473 314.295 84.3466C314.496 84.1458 314.737 84.0455 315.017 84.0455C315.297 84.0455 315.538 84.1458 315.739 84.3466C315.939 84.5473 316.04 84.7879 316.04 85.0682C316.04 85.2538 315.992 85.4242 315.898 85.5795C315.807 85.7348 315.684 85.8598 315.528 85.9545C315.377 86.0455 315.206 86.0909 315.017 86.0909Z" fill="black"/>
<path d="M479.999 109.001C479.999 143.519 452.017 171.501 417.499 171.501C382.981 171.501 357.818 144.838 357.818 110.32C357.818 75.8025 385.801 47.8203 420.318 47.8203C454.836 47.8203 479.999 74.4832 479.999 109.001Z" fill="#E7EFFF"/>
<path d="M440.273 79.4535V167.203C426.355 172.921 410.78 173.113 396.725 167.741C382.67 162.37 371.194 151.839 364.637 138.296V79.4535C364.637 78.8266 364.886 78.2254 365.329 77.7821C365.772 77.3389 366.373 77.0898 367 77.0898H437.909C438.536 77.0898 439.138 77.3389 439.581 77.7821C440.024 78.2254 440.273 78.8266 440.273 79.4535Z" fill="#874EE9"/>
<path d="M452.091 64.0902V160.68C449.402 162.593 446.56 164.281 443.594 165.727H392.043C386.286 162.927 381.022 159.211 376.455 154.724V64.0902C376.455 63.4633 376.704 62.8621 377.147 62.4189C377.591 61.9756 378.192 61.7266 378.819 61.7266H449.728C450.355 61.7266 450.956 61.9756 451.399 62.4189C451.842 62.8621 452.091 63.4633 452.091 64.0902Z" fill="#C5B7FB"/>
<path d="M392.999 87.7255C398.221 87.7255 402.454 83.4926 402.454 78.271C402.454 73.0493 398.221 68.8164 392.999 68.8164C387.778 68.8164 383.545 73.0493 383.545 78.271C383.545 83.4926 387.778 87.7255 392.999 87.7255Z" fill="#FFA100"/>
<path d="M442.636 71.1836H411.909C410.603 71.1836 409.545 72.2418 409.545 73.5472V83.0018C409.545 84.3072 410.603 85.3654 411.909 85.3654H442.636C443.941 85.3654 444.999 84.3072 444.999 83.0018V73.5472C444.999 72.2418 443.941 71.1836 442.636 71.1836Z" fill="white"/>
<path d="M448.546 83.0014C458.336 83.0014 466.273 75.0646 466.273 65.2741C466.273 55.4836 458.336 47.5469 448.546 47.5469C438.755 47.5469 430.818 55.4836 430.818 65.2741C430.818 75.0646 438.755 83.0014 448.546 83.0014Z" fill="#00C99F"/>
<path d="M445.698 71.6642L439.789 65.7551C439.402 65.303 439.199 64.7213 439.222 64.1265C439.245 63.5316 439.492 62.9673 439.913 62.5463C440.334 62.1254 440.898 61.8788 441.493 61.8558C442.088 61.8328 442.67 62.0352 443.122 62.4224L447.365 66.6533L455.153 58.8769C455.605 58.4897 456.186 58.2874 456.781 58.3104C457.376 58.3333 457.941 58.5799 458.361 59.0009C458.782 59.4218 459.029 59.9861 459.052 60.581C459.075 61.1759 458.873 61.7575 458.485 62.2097L449.031 71.6642C448.588 72.1044 447.989 72.3515 447.365 72.3515C446.74 72.3515 446.141 72.1044 445.698 71.6642Z" fill="white"/>
<path d="M443.818 97.18H384.727C384.413 97.18 384.113 97.0555 383.891 96.8339C383.669 96.6123 383.545 96.3117 383.545 95.9982C383.545 95.6848 383.669 95.3842 383.891 95.1626C384.113 94.9409 384.413 94.8164 384.727 94.8164H443.818C444.131 94.8164 444.432 94.9409 444.653 95.1626C444.875 95.3842 444.999 95.6848 444.999 95.9982C444.999 96.3117 444.875 96.6123 444.653 96.8339C444.432 97.0555 444.131 97.18 443.818 97.18ZM443.818 104.271H384.727C384.413 104.271 384.113 104.146 383.891 103.925C383.669 103.703 383.545 103.403 383.545 103.089C383.545 102.776 383.669 102.475 383.891 102.253C384.113 102.032 384.413 101.907 384.727 101.907H443.818C444.131 101.907 444.432 102.032 444.653 102.253C444.875 102.475 444.999 102.776 444.999 103.089C444.999 103.403 444.875 103.703 444.653 103.925C444.432 104.146 444.131 104.271 443.818 104.271ZM443.818 111.362H384.727C384.413 111.362 384.113 111.237 383.891 111.016C383.669 110.794 383.545 110.493 383.545 110.18C383.545 109.867 383.669 109.566 383.891 109.344C384.113 109.123 384.413 108.998 384.727 108.998H443.818C444.131 108.998 444.432 109.123 444.653 109.344C444.875 109.566 444.999 109.867 444.999 110.18C444.999 110.493 444.875 110.794 444.653 111.016C444.432 111.237 444.131 111.362 443.818 111.362ZM443.818 118.453H384.727C384.413 118.453 384.113 118.328 383.891 118.107C383.669 117.885 383.545 117.584 383.545 117.271C383.545 116.958 383.669 116.657 383.891 116.435C384.113 116.214 384.413 116.089 384.727 116.089H443.818C444.131 116.089 444.432 116.214 444.653 116.435C444.875 116.657 444.999 116.958 444.999 117.271C444.999 117.584 444.875 117.885 444.653 118.107C444.432 118.328 444.131 118.453 443.818 118.453ZM422.545 125.544H384.727C384.413 125.544 384.113 125.419 383.891 125.198C383.669 124.976 383.545 124.675 383.545 124.362C383.545 124.048 383.669 123.748 383.891 123.526C384.113 123.305 384.413 123.18 384.727 123.18H422.545C422.858 123.18 423.159 123.305 423.381 123.526C423.602 123.748 423.727 124.048 423.727 124.362C423.727 124.675 423.602 124.976 423.381 125.198C423.159 125.419 422.858 125.544 422.545 125.544ZM422.545 132.635H384.727C384.413 132.635 384.113 132.51 383.891 132.288C383.669 132.067 383.545 131.766 383.545 131.453C383.545 131.139 383.669 130.839 383.891 130.617C384.113 130.395 384.413 130.271 384.727 130.271H422.545C422.858 130.271 423.159 130.395 423.381 130.617C423.602 130.839 423.727 131.139 423.727 131.453C423.727 131.766 423.602 132.067 423.381 132.288C423.159 132.51 422.858 132.635 422.545 132.635ZM422.545 139.725H384.727C384.413 139.725 384.113 139.601 383.891 139.379C383.669 139.158 383.545 138.857 383.545 138.544C383.545 138.23 383.669 137.93 383.891 137.708C384.113 137.486 384.413 137.362 384.727 137.362H422.545C422.858 137.362 423.159 137.486 423.381 137.708C423.602 137.93 423.727 138.23 423.727 138.544C423.727 138.857 423.602 139.158 423.381 139.379C423.159 139.601 422.858 139.725 422.545 139.725ZM422.545 146.816H384.727C384.413 146.816 384.113 146.692 383.891 146.47C383.669 146.249 383.545 145.948 383.545 145.635C383.545 145.321 383.669 145.021 383.891 144.799C384.113 144.577 384.413 144.453 384.727 144.453H422.545C422.858 144.453 423.159 144.577 423.381 144.799C423.602 145.021 423.727 145.321 423.727 145.635C423.727 145.948 423.602 146.249 423.381 146.47C423.159 146.692 422.858 146.816 422.545 146.816ZM422.545 153.907H384.727C384.413 153.907 384.113 153.783 383.891 153.561C383.669 153.34 383.545 153.039 383.545 152.725C383.545 152.412 383.669 152.111 383.891 151.89C384.113 151.668 384.413 151.544 384.727 151.544H422.545C422.858 151.544 423.159 151.668 423.381 151.89C423.602 152.111 423.727 152.412 423.727 152.725C423.727 153.039 423.602 153.34 423.381 153.561C423.159 153.783 422.858 153.907 422.545 153.907Z" fill="#EDEAFD"/>
<path d="M434.352 134.992L465.074 104.27L474.524 113.719L443.801 144.442L434.352 134.992Z" fill="#874EE9"/>
<path d="M465.092 104.275L474.546 113.729L479.132 109.144C479.796 108.479 480.169 107.578 480.169 106.638C480.169 105.699 479.796 104.798 479.132 104.133L474.688 99.6892C474.023 99.0253 473.122 98.6523 472.183 98.6523C471.243 98.6523 470.342 99.0253 469.677 99.6892L465.092 104.275Z" fill="#5C26B1"/>
<path d="M434.364 135L430.818 148L443.818 144.455L434.364 135Z" fill="white"/>
<path d="M436.385 146.475L430.818 148L432.343 142.434L436.385 146.475Z" fill="#874EE9"/>
<path d="M407.18 51.0909C409.138 51.0909 410.726 49.5036 410.726 47.5455C410.726 45.5874 409.138 44 407.18 44C405.222 44 403.635 45.5874 403.635 47.5455C403.635 49.5036 405.222 51.0909 407.18 51.0909Z" fill="#00C99F"/>
<path d="M357.545 92.4542C359.504 92.4542 361.091 90.8668 361.091 88.9087C361.091 86.9506 359.504 85.3633 357.545 85.3633C355.587 85.3633 354 86.9506 354 88.9087C354 90.8668 355.587 92.4542 357.545 92.4542Z" fill="#FF4D69"/>
<path d="M478.09 126.728C480.048 126.728 481.636 125.14 481.636 123.182C481.636 121.224 480.048 119.637 478.09 119.637C476.132 119.637 474.545 121.224 474.545 123.182C474.545 125.14 476.132 126.728 478.09 126.728Z" fill="#FFA100"/>
<path d="M461.143 171.634C463.101 171.634 464.689 170.047 464.689 168.088C464.689 166.13 463.101 164.543 461.143 164.543C459.185 164.543 457.598 166.13 457.598 168.088C457.598 170.047 459.185 171.634 461.143 171.634Z" fill="#00C99F"/>
</svg>
